<?xml version="1.0" encoding="UTF-8"?>
<svg id="_レイヤー_1" data-name="レイヤー 1" xmlns="http://www.w3.org/2000/svg" viewBox="0 0 332 66">
  <defs>
    <style>
      .cls-1 {
        fill: #ffe300;
      }
    </style>
  </defs>
  <rect x="0" width="332" height="66" rx="6" ry="6"/>
  <g>
    <g>
      <path class="cls-1" d="M94.4,21.64c6.22-1.18,8.05-4.27,8.54-7.85-2.57.04-8.98.11-8.98.11v-1.97h9.71c-.23-.54-.51-1.13-.72-1.47l1.01-.38c.23.38.66,1.21.9,1.85h.45c0,.07-.03.99-.03,1.06-.52,5.46-3.48,9.15-9.37,10.47l-1.52-1.82ZM105.79,12.66c-.21-.75-.72-1.73-1.07-2.33l.97-.34c.34.48.89,1.51,1.1,2.21l-1,.45Z"/>
      <path class="cls-1" d="M108.6,21.57c5.57-.41,7.68-2.44,8.03-5.1-2.55.03-8.7.11-9.08.11v-1.87h11.49c-.08,5.05-3,7.99-9.01,8.8l-1.44-1.93ZM108.73,13.03v-1.82h9.15s0,1.82,0,1.82h-9.15Z"/>
      <path class="cls-1" d="M122.72,18.51c-.25-1.31-.69-2.79-1.21-4.03l1.69-.41c.52,1.13,1,2.59,1.27,3.85l-1.75.59ZM122.45,21.85c4.6-1.14,6.47-3.2,6.74-8.19l1.96.28c-.56,4.88-1.87,7.85-7.23,9.43l-1.47-1.52ZM125.75,18.06c-.14-1.16-.54-2.78-1-3.97l1.76-.34c.44,1.17.86,2.69,1.03,3.83l-1.79.48Z"/>
      <path class="cls-1" d="M133.72,21.64c6.34-.85,8.32-4.17,9.3-7.43h-4.26c-1,1.59-2.37,3.1-4.02,4.12l-1.78-1.49c2.86-1.48,4.62-4.27,5.23-6.33l2.14.44c-.15.48-.35.97-.59,1.47,1.71-.01,4.95-.03,5.72-.03-.63,3.9-2.16,9.53-10.15,11.14l-1.61-1.88Z"/>
      <path class="cls-1" d="M157.34,15.48v.27c0,4.38-1.38,6.47-6.09,7.68l-1.61-1.75c4.95-.7,5.69-2.92,5.72-6.13v-.07h-3.68v3.48h-2v-3.48h-2.78v-1.83h2.78v-2.72h2v2.72h3.66c0-.83-.01-1.73-.01-2.72h2.02v2.72h2.79v1.83h-2.81Z"/>
      <path class="cls-1" d="M165.68,16.08c-1.13-1.18-3.1-2.38-4.14-2.89l1.48-1.54c.9.41,3,1.54,4.1,2.62l-1.44,1.8ZM161.86,21.19c6.31-.94,8.88-3.75,10.04-8.72l1.85,1.14c-.86,3.34-2.57,7.92-10.63,9.51l-1.25-1.93Z"/>
      <path class="cls-1" d="M175.41,21.92c2.82-.38,4.88-1.41,6.36-2.71-1-.8-2-1.49-3.13-2.18l1.27-1.34c.85.47,2.04,1.23,3.19,2.09.9-1.2,1.42-2.5,1.65-3.67h-4.58c-1,1.48-2.33,2.9-4.05,4.17l-1.66-1.41c2.79-1.54,4.66-4.27,5.38-6.36l2.06.41c-.21.49-.44.99-.71,1.48,1.04,0,2.75-.01,4.07-.01-.24-.59-.62-1.41-.9-1.85l.97-.38c.27.42.82,1.44,1.04,2.09l-.32.14h.97c-.42,4.02-2.45,9.68-10.09,11.15l-1.52-1.62ZM187.17,12.62c-.25-.7-.75-1.69-1.13-2.28l.96-.34c.34.48.92,1.52,1.14,2.17l-.97.45Z"/>
      <path class="cls-1" d="M188.39,17.98v-1.94h12.29v1.94h-12.29Z"/>
      <path class="cls-1" d="M200.76,21.98c2.66-2.1,3.07-5.43,3.07-8.6,0-.75-.01-1.49-.04-2.21l2.04.03v.72c0,5.14-.34,8.32-3.06,11.21l-2.02-1.14ZM207.29,11.13h2.03s-.03,6.65-.07,8.84c1.64-.85,2.85-2.95,3.55-5.05l1.49,1.66c-.96,2.45-3.14,5.86-7.01,6.34v-11.8Z"/>
      <path class="cls-1" d="M220.7,17.53c-.41,2.57-1.66,4.5-5.14,5.84l-1.66-1.68c4.4-1.27,4.86-3.58,4.86-6.6v-.69h2.13v.47c0,.79-.03,1.52-.11,2.23,1.93-.68,3.24-1.9,3.57-3.71-2.16.07-9.08.09-10.02.09v-1.87h12.3c0,3.81-2.17,6.31-4.76,7.33l-1.16-1.4Z"/>
      <path class="cls-1" d="M227.6,17.98v-1.94h12.29v1.94h-12.29Z"/>
    </g>
    <g>
      <g>
        <path class="cls-1" d="M69.1,55.41v-22.33c0-.32.17-.44.35-.44s.38.15.38.44v6.21c0,.35.15.5.29.5.17,0,.32-.18.32-.5v-6.42l-2.21-1.89,1.74-1.75,3.46,1.39c.47-.03.9-.03,1.31-.03s.78,0,1.1.03c.67-.68,1.05-.98,1.05-.98.17-.18.44-.27.7-.27s.55.09.76.27c0,0,.73.56,2.79,2.42l-.9.86v7.75c-.79-.06-1.63-.06-2.47-.06-1.28,0-2.59.03-3.78.15v13.84c0,.56-.41.8-.76.8h-4.13ZM76.31,33.34c-.7,0-1.51,0-2.38.06v1.24h2.38v-1.3ZM76.31,36.8c-.41-.03-.81-.03-1.22-.03-.38,0-.79,0-1.16.03v1.36c.81-.06,1.57-.12,2.38-.12v-1.24ZM81.32,55.23c-.03-3.37-.03-4.32-.03-4.32,0-.27.15-.39.29-.39.17,0,.35.15.35.39v.92c0,.24.15.35.29.35s.29-.12.29-.35v-1.89c-.35-.03-.7-.03-1.05-.03-.38,0-.73,0-1.08.03-.17,2.51-.67,4.11-1.92,5.44-.06.09-.2.12-.32.12-.17,0-.35-.06-.49-.18-1.05-.92-2.38-2.28-3.11-2.96-.09-.06-.12-.15-.12-.24,0-.21.17-.41.38-.41.06,0,.15.03.2.09,0,0,.32.3.76.53.49-.35,1.19-1.01,1.45-2.01-.44.06-.87.18-1.31.27-.15.03-.23.06-.35.06-.23,0-.35-.12-.44-.35,0,0-.38-1.09-.93-2.57l1.22-1.42,1.05.86.81-.06v-1.54c-.35.06-.7.15-1.02.24-.15.03-.23.06-.32.06-.23,0-.35-.12-.44-.35,0,0-.35-1.09-.84-2.54l1.13-1.45.96.86c1.51-.12,3.26-.21,4.97-.21,1.16,0,2.3.06,3.34.12l.87-.98,1.34,1.24c-.17.71-.55,1.89-.87,2.84-.06.24-.15.38-.41.38-.09,0-.2-.03-.32-.06-.15-.06-.32-.12-.49-.15v1.48h.26l.93-.95,1.45,1.24c-.17.71-.61,1.89-.96,2.84-.06.24-.15.38-.41.38-.12,0-.2-.03-.35-.06l-.64-.18v4.14c0,.53-.38.77-.73.77h-3.43ZM81.78,45.14h-.47c-.35,0-.7,0-1.05.03v1.8c.49-.03,1.02-.03,1.51-.03v-1.8ZM87.45,55.58l-1.37-4.29c.38.12.96.15,1.34.15.55,0,.67-.21.67-.83v-9.17c0-.27.17-.41.35-.41s.35.15.35.41v3.87c0,.24.17.39.35.39.15,0,.29-.12.29-.35v-4.58c-1.08-.09-2.41-.15-3.78-.15s-2.82.06-4.13.18v-9.02l-.96-1.21,1.66-1.3,3.46,1.3c.41-.03.81-.03,1.22-.03.44,0,.84,0,1.22.03l1.13-1.18c.17-.18.41-.24.64-.24.29,0,.61.09.84.3,0,0,1.45,1.24,3.34,2.84l-.9,1.18v17.87c0,2.9-.9,4.26-3.29,4.26h-2.44ZM88.53,33.31c-.55-.03-1.1-.06-1.66-.06-.38,0-.76.03-1.13.03v1.21c.96,0,1.95,0,2.79.03v-1.21ZM88.53,36.68c-.55-.03-1.1-.06-1.66-.06-.38,0-.76.03-1.13.03v1.3h2.79v-1.27Z"/>
        <path class="cls-1" d="M118.41,48.81c-.2-.09-.41-.27-.41-.27-.12-.09-.17-.18-.17-.27,0-.12.12-.24.32-.24.06,0,.12,0,.2.03,0,0,.49.18,3.9,1.95.06.47.06.92.06,1.33,0,.33,0,.62-.03.86-.15,1.77-.76,2.87-3.17,3.17-.7.09-1.48.12-2.27.12-1.51,0-3.05-.12-4.16-.18-1.92-.09-2.7-1.6-2.7-3.19v-3.82c0-.27.2-.41.41-.41s.44.18.44.47v2.57c0,.41.17.62.38.62s.41-.24.41-.62v-3.46l-3.02.09c-.96,4.88-3.08,6.45-6.72,8.05-.17.09-.38.12-.58.12-.38,0-.7-.15-.84-.35-.96-1.36-2.76-4.02-3.55-5.3-.06-.09-.09-.18-.09-.24,0-.21.2-.33.41-.33.12,0,.26.06.35.18,0,0,.2.33.47.74,1.69-.24,3.43-.86,4.39-1.86.09-.09.17-.12.26-.12.2,0,.35.15.35.33,0,.06-.03.12-.06.18-.35.53-1.45,1.21-2.3,1.54-.23.09-.32.24-.32.38s.15.3.38.3c.09,0,.15,0,.23-.03,1.31-.47,2.91-1.63,3.58-3.28-1.95.21-3.66.47-4.86.83-.29.09-.52.12-.73.12-.32,0-.52-.12-.64-.39,0,0-.52-.89-1.98-3.87l2.21-2.6,2.38,2.48c.76-.06,1.6-.03,2.09-.12.26-.03.38-.21.38-.35,0-.18-.12-.33-.32-.3-.7.06-1.4.06-2.12.12h-.03c-.26,0-.41-.18-.41-.36s.12-.35.44-.35l2.5-.18v-1.07c-.49.06-.93.15-1.31.27l-.9-1.45c-.84.3-1.69.53-2.44.68-.17.03-.32.06-.47.06-.29,0-.52-.12-.61-.53-.29-1.39-.99-3.76-1.66-6.6-.03-.06-.03-.12-.03-.18,0-.18.12-.27.26-.27s.32.12.44.33c0,0,.15.39.26.59.41.03.81.03,1.22.03.49,0,.96,0,1.45-.06-.73-.74-1.74-1.63-2.53-2.16l3.2-1.72c1.16.5,2.21,1.24,2.82,1.69.23.18.35.39.35.56,0,.12-.06.21-.15.27,0,0-.35.21-1.8,1.12,1.69-.33,3.05-.83,3.63-1.36.09-.09.23-.12.38-.12.26,0,.55.15.55.35,0,.06-.03.12-.09.18-.84.86-2.35,1.48-3.84,1.75-.17.03-.26.18-.26.33,0,.18.12.35.38.35h.15c2.85-.53,4.39-1.69,4.91-3.34-.12-.03-.26-.03-.41-.03-.96,0-2.44.35-2.68.53-.06.06-.12.09-.17.09-.12,0-.2-.18-.32-.36,0,0-.15-.27-1.02-2.25l1.16-1.48.79.68c.44,0,2.41-.18,3.05-.18.32-.41.55-.65.55-.65.12-.12.26-.21.44-.21.15,0,.29.06.44.18,0,0,.32.3,2.85,1.6.03.62.2,1.18.47,1.66.38-.44.64-.86.81-1.18l-.49-.39,1.1-.92c2.44.83,2.76.98,2.76.98.2.09.32.3.32.47,0,.12-.06.27-.15.35-.64.68-1.51,1.54-2.59,2.31.41.21.87.35,1.34.5,1.08-.95,1.74-1.66,1.98-2.16l-.52-.33,1.13-.95c2.97.77,3.29.89,3.29.89.23.09.35.27.35.47,0,.12-.06.24-.15.33-.58.59-1.57,1.39-2.94,2.22.35.03.73.03,1.1.03.67,0,1.37-.03,2.04-.09.12-.59.26-.95.26-.95.06-.15.2-.24.38-.24s.35.12.35.33v.12c-.41,1.8-1.1,4.79-1.6,6.51-.12.35-.41.47-.7.47h-.09c-.96-.12-2.01-.35-3.08-.68l-.7,1.54-1.63-.27v2.43l2.33.12h.03c.29,0,.44-.15.44-.33,0-.15-.15-.33-.41-.36-.47-.06-.99-.12-1.45-.12h-.32c-.26,0-.41-.15-.41-.3,0-.18.17-.35.49-.39.93,0,1.77.09,2.59.12l1.86-1.74,2.3,2.4c-1.31,3.64-1.51,4.14-1.51,4.14-.15.36-.26.53-.67.53-.15,0-.35-.03-.61-.09-1.08-.24-2.62-.38-4.42-.44v2.25c0,.33.12.47.38.53.29.06.73.09,1.13.09.44,0,.84-.03,1.13-.09.29-.06.41-.21.41-.41v-1.09ZM109.25,35.62c-.67.89-1.63,1.66-2.7,2.37,1.89-.06,4.07-.09,5.93-.09-1.13-.62-2.33-1.45-3.23-2.28ZM110.04,41.3c-.49,0-.99.03-1.48.06v1.6c.52,0,.99-.03,1.48-.03v-1.63Z"/>
        <path class="cls-1" d="M151.19,48.28c.03.89.06,1.45.06,1.98,0,.44-.03.86-.06,1.45-.12,1.72-.58,2.99-2.04,3.25-1.37.27-3.29.44-5,.44-.78,0-1.51-.03-2.15-.12-.79-.12-1.4-.62-1.86-1.36-.29.35-.58.68-.84.92-.32.3-.67.5-.99.5-.26,0-.52-.12-.76-.41-.61-.71-2.53-2.9-3-3.61-.12-.15-.15-.3-.15-.41,0-.21.15-.33.32-.33s.38.12.52.35c.79-.47,1.51-1.01,2.18-1.66-.67-1.63-1.54-2.99-2.15-4.32l-.26,1.27c-.09.18-.23.27-.38.27-.12,0-.2-.06-.29-.15-.2-.3-.44-.74-.64-1.21l.7,9.55v.09c0,.36-.17.5-.58.5h-4.83l.32-7.43c-.64,1.57-1.34,2.9-2.01,3.85-.2.3-.41.41-.61.41-.26,0-.47-.21-.58-.56l-1.42-7.22v-.09c0-.21.17-.35.32-.35.12,0,.23.09.29.24l.23.98c1.02-.71,2.12-1.89,2.76-2.78.06-.09.12-.12.2-.12.17,0,.35.18.35.38,0,.06,0,.12-.06.21-.44.65-.78,1.15-1.34,1.72-.06.06-.09.15-.09.24,0,.18.15.36.29.36.06,0,.15-.03.2-.09.64-.71,1.13-1.42,1.54-2.19v-1.36c-1.05.24-2.15.62-3.02,1.09-.12.06-.23.09-.32.09-.2,0-.32-.15-.41-.39l-.76-4.05,1.48-2.4,1.4,1.3c.32-.09.67-.15,1.08-.24v-1.57c-.44.09-.9.15-1.4.21h-.12c-.32,0-.61-.18-.73-.44l-1.42-4.79c-.03-.09-.06-.18-.06-.24,0-.24.15-.35.29-.35.12,0,.26.12.38.33l.26.53c.29.03.61.03.93.03,1.51,0,3.37-.27,4.39-.62.06-.03.12-.03.17-.03.2,0,.29.15.29.33,0,.12-.06.27-.2.33-.7.33-1.57.47-2.53.53-.23.03-.32.21-.32.38s.09.33.29.33h.09c1.28-.15,2.27-.35,3.37-1.06l-.61-1.3,1.69-.62,3.05,2.99c.09.12.17.21.2.3l2.56-2.93c1.89.53,3.72,1.15,5.03,1.95.35.24.49.47.49.74,0,.12-.03.27-.15.38,0,0-.81,1.04-2.62,3.34-1.89-1.51-4.1-2.54-5.26-3.16,0,.15-.12.27-.26.35-.81.53-2.01,1.07-3.08,1.45v2.13h.49l.84-1.12,1.63,1.8-.23,1.3.17-.27c1.45.33,1.77.35,1.77.35.35.09.35.33.38.68.03.71.03,1.54.03,2.37,0,2.51-.12,5.3-.44,6.92.32-.35.64-.74.93-1.15,0-3.19.09-6.95.15-9.35l-1.37-1.39,1.86-1.72,4.27,1.6-.55.89c-.15,1.39-.26,2.9-.35,4.5,1.31-2.75,2.27-6.03,2.82-8.85l-.64-.71,1.31-1.54c3.52,1.12,3.95,1.15,3.95,1.15.35.06.47.33.47.62,0,.06-.03.15-.03.21-.49,2.46-1.42,5.12-2.56,7.66l1.13-1.42c.9,1.48,1.83,3.49,2.21,5.06.03.21.06.41.06.59,0,.38-.09.74-.29.98,0,0-.41.59-1.42,1.95l.99.77ZM135.58,44.14c.29-.62.73-3.31.76-4.32l-.2-.21-.29,1.54c-.09.27-.29.41-.49.41-.06,0-.09,0-.15-.03-.55-.24-1.08-.38-1.63-.5.7.8,1.4,1.36,2.15,1.8l-.23,1.15.09.15ZM142.56,31.12c-.52-.3-1.54-.68-2.18-.89-.06-.03-.12-.03-.17-.03-.2,0-.29.15-.29.3,0,.12.06.27.23.33.64.24,1.66.59,2.15.86.09.06.17.06.23.06.17,0,.29-.12.29-.27,0-.12-.09-.27-.26-.35ZM146.98,49.46c-.79.12-1.66.21-2.65.21h-.44c-.2,0-.32-.18-.32-.36s.12-.38.41-.38h.29c1.22,0,2.41-.15,3.4-.33.17-.03.44-.3.44-.65,0-.59,0-.15-.09-1.01-.44-.38-.87-.71-.87-.71-.12-.09-.15-.18-.15-.3,0-.24.2-.44.44-.44.09,0,.17.03.26.09l.84.65c-.32-1.45-.7-2.75-1.02-3.79-1.42,2.84-3.08,5.41-4.68,7.28.09.27.26.44.49.47.49.06,1.05.09,1.57.09.93,0,1.8-.09,2.15-.18.23-.06.35-.21.35-.36s-.15-.3-.38-.3h-.06Z"/>
        <path class="cls-1" d="M161.06,55.23v-.65c-.55-.06-1.16-.06-1.74-.06v.39c0,.38-.41.65-.67.65h-3.78v-7.57c0-.21.15-.33.29-.33.2,0,.44.18.44.44v3.28c0,.24.15.35.32.35.15,0,.29-.12.29-.35v-3.34l-1.77-1.83,1.4-1.45c-.09-.09-.17-.21-.26-.41-.2-.56-.52-1.45-.73-2.22l1.4-1.12.7.56c.93-.12,2.53-.21,3.9-.21.55,0,1.08.03,1.51.06l.58-.68c-1.02-.21-2.12-.35-3.2-.35s-2.15.15-3.17.47c-.2.06-.38.12-.49.12-.2,0-.35-.15-.49-.5-.2-.53-.52-1.45-.73-2.22l1.28-1.07-.23.03c-.26.09-.47.15-.61.15-.29,0-.47-.15-.61-.62,0,0-.29-.92-1.08-3.79l2.15-1.6,1.1,1.24c.12-.03.26-.06.44-.06v-1.33c0-.27.17-.35.35-.35s.38.12.38.33v.74c0,.21.17.3.32.3.17,0,.32-.09.32-.3v-.95l-2.3-.92,1.69-1.3,4.62.95-.84,1.18v2.34c.35.03.67.06.96.12.06.03.15.03.2.03.2,0,.29-.12.29-.24,0-.15-.15-.33-.49-.33h-.06c-.35,0-.52-.15-.52-.3,0-.18.23-.35.64-.35.09,0,.2,0,.32.03l.84-1.12,1.6,1.69c-.32,1.18-.76,2.69-1.16,3.93-.09.3-.26.44-.49.44-.09,0-.17-.03-.26-.06l-.61-.15,1.25,1.24c-.29.89-.47,1.54-.78,2.28-.09.24-.26.33-.49.33l1.28,1.27c-.29.89-.47,1.54-.78,2.28-.09.21-.26.33-.49.33-.06,0-.12-.03-.17-.03l-.2-.03.2.15c.47.5,1.74,1.8,2.76,3.02l-.96,1.04v5.77c0,.47-.23.68-.78.68h-2.82ZM161.84,44.64c.06-.12.17-.18.29-.18-.73-.15-1.51-.21-2.3-.21-1.13,0-2.24.15-3.29.47-.15.03-.26.09-.38.09l1.37.59c1.42,0,2.53,0,3.4-.06l.9-.71ZM162.89,36.89c-.81-.15-1.63-.21-2.47-.21-1.34,0-2.73.18-4.1.44l.61.56c.87-.09,2.35-.18,3.66-.18.64,0,1.25,0,1.74.06l.55-.68ZM161.23,48.93c-.26,0-.55-.03-.81-.03-.41,0-.81.03-1.25.06v1.95l2.06.09v-2.07ZM174.55,55.14v-.77c-.49-.03-1.02-.03-1.51-.03-.73,0-1.45.03-2.12.09,0,.77-.2.83-.67.83h-4.27v-8.7c0-.41.17-.59.35-.59.2,0,.38.21.38.59v3.7c0,.27.17.38.35.38s.35-.12.35-.38v-3.85l-1.86-1.72,1.69-1.57,2.53.83.67-.03v-1.92c-1.51.15-2.94.44-4.13.92-.15.06-.26.09-.38.09-.32,0-.58-.24-.7-.71,0,0-.29-1.3-.93-3.87l1.63-2.31,1.45,2.34c.7-.09,1.02-.12,1.74-.18.17-.03.26-.21.26-.38,0-.15-.09-.3-.26-.3-.76.03-.9,0-1.57.12h-.09c-.23,0-.35-.15-.35-.33,0-.21.15-.41.38-.44.78-.12,1.66-.15,2.76-.18v-1.39c-.67.09-1.34.15-1.95.21h-.12c-.32,0-.73-.12-.96-.47-.81-1.27-1.92-3.19-2.59-4.23-.06-.09-.09-.18-.09-.27,0-.15.09-.24.2-.24s.29.09.47.39c.38.03.79.03,1.13.03,2.27,0,4.13-.41,4.91-.74.06-.03.09-.03.15-.03.2,0,.32.18.32.39,0,.12-.06.24-.17.3-.47.21-1.25.44-2.21.53-.23.03-.32.15-.32.3,0,.18.17.38.49.38h.03c1.16-.12,1.89-.33,3.14-.86l-1.34-1.51,2.35-.71c1.57,1.01,3.84,2.34,5.44,3.43.17.09.23.24.23.39,0,.12-.06.24-.14.3-1.16.68-2.59,1.24-4.13,1.66v2.25c.84,0,1.69.06,2.44.12l1.02-1.39,1.57,2.37-1.1,4.2c-.12.44-.2.68-.52.68-.09,0-.2,0-.35-.06-.99-.36-2.06-.59-3.17-.71v1.83h.35l.96-.98c.12-.12.26-.18.41-.18.23,0,.52.15.78.41,0,0,.81.77,2.59,2.54l-1.86,1.77v3.37c0,.35.17.53.35.53.14,0,.32-.18.32-.53v-3.37c0-.35.2-.53.44-.53.17,0,.35.15.35.53v6.77c0,.8-.38.89-.67.89h-4.45ZM174.66,47.39c-.67-.06-1.34-.06-1.98-.06s-1.25,0-1.86.06v3.05c.76-.03,1.54-.06,2.36-.06.49,0,.99,0,1.48.03v-3.02Z"/>
        <path class="cls-1" d="M188.32,54.65c-1.09-.62-1.92-1.33-2.84-2.51-.92-1.21-1.51-3.24-1.51-5.47v-.24c.07-2.77.64-5.75,1.25-7.79.09-.26.28-.38.45-.38.19,0,.36.14.36.35,0,.07,0,.12-.02.19-.62,2.08-1.16,5.18-1.21,7.29,0,.28.21.5.4.5s.35-.14.35-.54c.05-2.58.57-5.3,1.18-7.38l-2.06-1.99,2.11-1.7,5.14,2.77c-2.08,2.2-3.22,5.7-3.41,7.6-.02.24-.02.45-.02.66,0,.5.02.97.05,1.37l.83-1.09c.14.14.43.73.43.73.19.31.26.59.26.88,0,.17-.02.36-.07.54l-1.66,6.2ZM202.12,37.68l2.06,1.47c-.14.59-.66,2.96-.85,3.91-.05.19-.21.31-.38.31-.05,0-.07,0-.12-.02-.64-.24-1.28-.43-1.92-.54.02,1.56.05,3.08.05,4.19.88.45,1.82.99,2.84,1.68.21.12.57.59.57.95,0,.07-.02.14-.05.19,0,0-.43,1.04-1.89,3.86-.59-.5-1.4-1.16-2.2-1.73-.17.28-.35.57-.62.88-1.07,1.28-2.53,1.68-3.95,1.68-1.23,0-2.58-.33-3.55-1.18-.99-.85-1.82-2.3-1.82-3.74,0-1.3.59-2.51,1.54-3.29.78-.66,1.78-1.07,3.05-1.07.28,0,.59.02.9.05-.02-.57-.07-1.16-.17-1.78v-.09c0-.31.19-.47.38-.47.17,0,.33.12.38.4.09.43.14,1.09.14,1.49,0,.21.19.35.38.35.14,0,.26-.09.26-.33,0-.73-.05-1.51-.14-2.25-1.54.14-3.05.57-4.47,1.21-.14.07-.28.09-.4.09-.17,0-.31-.07-.35-.26-.28-.99-.71-2.7-.97-3.74l1.73-1.63.66.95c.62-.09,1.33-.19,2.11-.26l-.35-2.13-1.35-.9,2.18-1.4,5.54,1.23-.64.92c.05.57.09,1.3.12,2.11l.64.05.69-1.14ZM194.85,48.43c-.57,0-.78.14-.97.38-.21.24-.24.54-.24.76,0,.19.14.5.28.66.24.31.62.52,1.02.52.54,0,.85-.21.99-.47.12-.26.21-.78.26-1.35-.52-.28-.99-.5-1.35-.5Z"/>
        <path class="cls-1" d="M230.03,43.99c-.17,2.99-.15,5.12-.41,8.25-.06.65-.38,1.24-1.02,1.45-1.98.59-5.99,1.15-9.68,1.15-6.13,0-11.86-1.72-11.86-6.8,0-2.25,1.13-4.88,3.84-7.01l4.94,2.57c-1.45.68-2.41,1.92-2.41,2.51,0,1.48,2.68,1.77,4.86,1.77,2.65,0,8.05-1.07,10.41-2.54.12-.89.17-1.57.17-1.57.03-.41.32-.62.58-.62.29,0,.58.24.58.74v.09ZM221.59,40.79l-4.39-1.75,1.45-1.12c-.17,0-.38-.03-.61-.03-1.63,0-4.04.41-6.13,1.39-.17.09-.41.18-.61.18-.23,0-.44-.09-.55-.35,0,0-.7-1.6-2.44-6.33l2.53-2.43,2.85,3.19c2.09-.27,4.8-.41,6.89-.5.49-.03.73-.27.73-.47,0-.24-.23-.44-.7-.44-1.83,0-4.65.27-6.78.5h-.12c-.35,0-.52-.21-.52-.47s.2-.56.55-.62c2.21-.33,5.15-.53,8.05-.53,1.08,0,2.12.03,3.14.09,1.08.89,2.38,2.51,3.17,3.76l-6.51,5.95ZM222.35,49.61c1.8-.27,3.2-.68,4.77-1.18.38-.12.52-.33.52-.53,0-.24-.2-.44-.49-.44-.06,0-.12,0-.17.03-1.6.53-2.91.89-4.74,1.18-.41.06-.61.3-.61.53,0,.21.2.41.58.41h.15Z"/>
        <path class="cls-1" d="M254.32,31.83l2.7,2.16c-.87,4.14-1.08,4.82-1.08,4.82-.12.47-.23.71-.58.71-.15,0-.35-.06-.58-.12-2.47-.71-6.43-.92-10.23-.92-.73,1.45-1.4,2.81-1.8,3.76,1.51-.83,3.58-1.39,5.58-1.39,1.72,0,3.4.41,4.62,1.48.17.15.32.24.47.24.17,0,.29-.15.29-.33s-.09-.41-.35-.62c-1.25-1.04-3.08-1.48-4.88-1.48-1.22,0-2.41.21-3.43.53-.17.06-.32.09-.47.09-.26,0-.41-.12-.41-.3s.17-.39.58-.56c.81-.33,1.89-.59,3.49-.59,2.18,0,4.07.35,5.82,1.69,1.77,1.36,2.53,3.34,2.53,5.27s-1.02,4.17-2.33,5.38c-1.95,1.81-4.86,3.05-9.77,3.05-2.01,0-5.06-.24-6.95-.5-.64-.06-1.45-.5-1.57-1.15-.09-.62-1.05-6.06-1.28-6.92-.03-.09-.03-.18-.03-.27,0-.38.2-.53.44-.53.26,0,.52.18.61.47,0,0,.23.65.38,1.18,2.47.89,6.02,1.51,8.32,1.51,3.05,0,5.58-.65,5.58-2.51,0-1.21-1.28-1.98-2.88-1.98-2.41,0-5.18,1.63-6.45,3.22-1.95-.74-4.04-2.07-5.5-3.46.67-1.3,1.34-2.54,1.98-3.7-.58.21-1.19.41-1.8.68-.29.12-.49.18-.67.18-.32,0-.49-.18-.61-.53,0,0-.76-2.28-1.6-5.62l2.56-2.04,2.85,3.28c.44-.06.76-.06,1.28-.12.32-.03.47-.24.47-.44s-.14-.41-.44-.41c-.49,0-.9.06-1.34.09h-.03c-.35,0-.52-.21-.52-.44s.17-.47.55-.5c.67-.06,1.72-.15,2.82-.21l.73-1.15-1.54-1.21,2.27-2.1c4.36.74,6.28,1.24,6.28,1.24.29.06.44.24.44.44s-.12.41-.29.62c-.35.41-.79,1.07-1.25,1.8h1.57c1.54,0,3.02.03,3.93.09l1.54-1.86Z"/>
        <path class="cls-1" d="M266.18,48.34v-.06c0-.27.26-.41.52-.41.12,0,.26.06.29.18,0,0,.12.33.38.77,1.48.33,2.91.41,4.19.41,1.98,0,3.75-.41,4.71-1.24.9-.8,1.08-1.63,1.08-2.34s0-1.48-.64-2.07c-.52-.5-1.4-.59-2.04-.59-1.6,0-3.81.74-5.55,1.92-1.6,1.09-3.11,2.57-4.48,4.56-1.83-1.24-3.28-2.37-4.51-3.52.52-3.11,1.34-6.12,2.09-8.16.09-.24.29-.35.49-.35s.38.12.38.32c0,.06,0,.09-.03.15-.38,1.18-.99,3.25-1.28,4.38v.09c0,.27.23.53.47.53.15,0,.29-.12.35-.41.35-1.48.81-3.34,1.37-4.67l-2.82-2.34,2.33-1.48c4.68,1.45,5.09,1.6,5.09,1.6.29.09.49.3.49.59,0,.15-.06.33-.2.5-1.08,1.45-1.57,2.99-2.06,4.53,2.24-2.01,5.79-3.46,8.69-3.46,2.53,0,4.83.83,6.22,2.16,1.57,1.48,2.3,3.31,2.3,5.53s-.84,4.82-2.44,6.45c-2.27,2.28-6.11,3.34-10.55,3.34-.7,0-1.42-.03-2.15-.09-.67-.06-1.05-.33-1.22-1.12l-1.45-5.68ZM268.07,28.52c3.02.47,6.19,1.3,9.83,2.87.35.15.58.5.58.86,0,.12-.03.27-.12.39,0,0-.32.44-3.66,3.9-3.4-1.57-7.41-3.02-10.64-3.85l4.01-4.17ZM273.97,31.15c-1.31-.53-2.62-.86-4.16-1.24-.12-.03-.23-.03-.32-.03-.35,0-.52.18-.52.35,0,.15.12.33.38.38,1.57.41,2.82.8,4.27,1.27.15.03.26.06.38.06.29,0,.47-.15.47-.3,0-.18-.15-.35-.49-.5Z"/>
      </g>
      <polygon class="cls-1" points="62.86 42.78 48 34.2 48 51.36 62.86 42.78"/>
    </g>
  </g>
</svg>