<?xml version="1.0" encoding="UTF-8"?>
<svg id="_レイヤー_1" data-name="レイヤー 1" xmlns="http://www.w3.org/2000/svg" viewBox="0 0 460 90">
  <defs>
    <style>
      .cls-1 {
        fill: #fff;
      }

      .cls-2 {
        opacity: .64;
      }

      .cls-3 {
        fill: #fff100;
      }
    </style>
  </defs>
  <rect class="cls-3" width="460" height="90" rx="10" ry="10"/>
  <g>
    <g>
      <path d="M190.9,70.61c-4.23,0-6.49-.23-6.49-4.94v-17.35h-5.25c-.4,11.32-3.56,19.59-17.45,23.44l-6.04-8.67c12.2-2.47,13.66-9.54,13.66-14.77h-11.01v-9.42h3.61l-5.42-5.34s6.15-4.37,7.74-15.4l9.77,1.09c-.17,1.95-.45,2.93-.79,4.54h6.1v-6.78h9.54v6.78h16.26v9.42h-16.26v5.69h18.29v9.42h-12.7v11.72c0,.52.06.86.9.86h2.65c1.13,0,1.69-.46,1.86-8.62l9.65,3.5c-.28,14.19-4.12,14.82-10.33,14.82h-8.3ZM179.32,33.2h-9.6c-.85,2.01-2.77,4.54-3.78,5.69h13.38v-5.69Z"/>
      <path d="M235.03,61.81c11.01,0,11.24,0,11.24-4.77v-12.98h-15.98v-5.8c-1.24,2.07-2.6,3.91-4.07,5.57v27.92h-9.54v-19.42c-2.48,1.61-4.23,2.47-4.23,2.47l-2.43-11.2s7.4-3.68,13.38-12.18l6.89,4.71v-1.21h33.71v9.14h-8.13v13.85c0,12.12-.79,13.62-17.39,13.62l-3.44-9.71ZM210.29,27.23s6.66-3.85,11.01-10.23l8.36,4.94c-5.08,9.02-14.85,15.05-14.85,15.05l-4.52-9.77ZM232.65,28.38v-9.14h28.63v9.14h-28.63Z"/>
      <path d="M299.2,54.12s5.03-3.33,7.57-7.87h-9.2v10.97c0,13.56-.4,14.31-18.63,14.31l-3.61-10.11h2.77c9.32,0,9.88-.11,9.88-2.07v-13.1h-21.85v-9.71h16.77c-2.32-1.38-8.64-4.42-8.64-4.42l5.93-4.88h-9.71v-9.13h43.31v9.02c-2.54,3.56-6.04,7.18-9.26,9.42h13.33v9.77c-4.07,9.94-11.24,15.23-11.24,15.23l-7.4-7.41ZM283.9,27.23s6.89,4.42,9.54,6.72c3.28-1.95,5.98-4.31,8.07-6.72h-17.62Z"/>
      <path d="M320.26,67.96c1.41-5.11,1.52-12.53,1.52-15.4v-1.21l6.55.29v1.84c0,3.51-.11,11.49-1.3,16.89l-6.78-2.41ZM329.52,71.75v-21.49c-4.74.06-8.58.06-8.58.06l-.56-8.68h4.63c.62-.69,1.24-1.44,1.81-2.18-1.81-2.24-3.9-5.06-6.49-7.76l3.78-9.42c.51.58.96,1.03,1.41,1.55.85-1.78,1.75-4.02,2.48-6.66l8.36,2.7c-1.98,5-3.84,8.1-5.59,10.17.28.4.96,1.26,1.24,1.67,3.11-5.23,5.08-9.54,5.08-9.54l7.4,4.83s-3.28,7.35-8.92,14.36c.85,0,2.94-.11,3.84-.17-.17-.86-.62-2.59-.85-3.39l5.53-2.07c2.15,7.53,3.5,14.02,3.5,14.02l-6.78,2.24s-.06-.92-.17-2.3h-1.58v22.06h-9.54ZM341.21,69.28s-.11-8.5-1.3-16.26l6.44-1.38c1.47,7.99,2.26,16.49,2.26,16.55l-7.4,1.09ZM351.21,61.36h1.75c10.45,0,10.5-.75,10.5-28.67h-9.54c-1.58,2.64-3.28,5.34-6.15,7.47l-5.48-8.5c6.1-6.89,7.68-14.59,7.68-14.59l9.82.63s-.34,2.18-1.41,5.34h14.62v2.07c0,41.48-.45,46.54-18.52,46.54l-3.28-10.28ZM352.33,55.84c-2.37-6.66-6.04-13.33-6.04-13.33l7.62-4.14s4.35,6.38,6.89,13.04l-8.47,4.42Z"/>
    </g>
    <g>
      <path d="M146.58,26.29c-1.14,4.1-2.29,8.19-3.43,12.29-.33,1.19-.62,2.38-.97,3.56-1.07,3.64-3.7,5.66-7.48,5.66-9.4.02-18.8,0-28.2,0-.51,0-1.03,0-1.68,0,.21,1.18.33,2.18.59,3.15.36,1.36,1.23,1.89,2.94,1.89,6.09,0,12.18,0,18.27,0,3.66,0,7.33-.04,10.99.02,2.33.03,3.64,2.15,2.32,3.84-.5.63-1.63,1.06-2.48,1.08-5.43.1-10.85.05-16.28.05-4.15,0-8.3,0-12.44,0-4.88,0-7.55-2.18-8.46-6.95-1.7-8.91-3.4-17.81-5.04-26.72-.2-1.08-.66-1.39-1.67-1.34-1.28.06-2.56.04-3.84,0-1.58-.04-2.71-1.09-2.72-2.49-.02-1.46,1.12-2.5,2.8-2.52,1.5-.02,3-.03,4.5,0,1.92.05,3.56.78,4.62,2.39.55.83,1.16,1,2.06,1,13.5-.02,27.01.02,40.51-.05,2.55-.01,4.22.9,5.09,3.28v1.85Z"/>
      <path d="M130.42,66.17c.03-2.72,2.27-4.94,4.99-4.94,2.75,0,5.1,2.35,5.04,5.05-.06,2.7-2.35,4.96-5.03,4.96-2.76,0-5.04-2.3-5.01-5.07Z"/>
      <path d="M110.33,66.23c0,2.74-2.17,4.97-4.9,5.01-2.74.04-5.05-2.25-5.05-5.02,0-2.74,2.19-4.96,4.92-4.99,2.8-.03,5.02,2.18,5.02,5Z"/>
    </g>
  </g>
  <rect class="cls-2" x="185" y="-185" width="90" height="460" rx="10" ry="10" transform="translate(185 275) rotate(-90)"/>
  <g>
    <path class="cls-1" d="M148.8,55.92l-4.32.76-.51-2.88c-.15-.84-.29-1.35-.41-1.55-.13-.19-.35-.26-.67-.2-.36.06-.56.23-.61.5-.05.27,0,.83.15,1.67l1.36,7.71c.14.81.28,1.32.42,1.55s.38.31.71.26c.32-.06.51-.22.56-.48s0-.85-.16-1.76l-.37-2.09,4.32-.76.11.65c.3,1.72.4,2.96.28,3.72-.12.76-.54,1.49-1.28,2.17-.74.69-1.71,1.14-2.93,1.35-1.26.22-2.35.18-3.25-.14s-1.56-.85-1.97-1.62c-.41-.76-.76-1.96-1.04-3.58l-.85-4.85c-.21-1.2-.33-2.1-.35-2.71-.02-.61.12-1.23.43-1.86.31-.62.8-1.16,1.46-1.6.67-.44,1.47-.75,2.4-.91,1.27-.22,2.36-.16,3.28.18.91.34,1.56.86,1.95,1.55.39.69.72,1.8.99,3.35l.28,1.58Z"/>
    <path class="cls-1" d="M164.81,55.67c.29,1.67.46,2.85.51,3.56.04.71-.09,1.38-.4,2.03-.31.65-.79,1.19-1.44,1.62-.65.43-1.44.73-2.38.89-.89.16-1.71.15-2.47-.01-.76-.16-1.4-.5-1.94-1-.53-.51-.9-1.09-1.1-1.76-.2-.67-.45-1.86-.76-3.57l-.5-2.84c-.29-1.67-.46-2.85-.51-3.56-.04-.71.09-1.39.4-2.03.31-.65.79-1.19,1.44-1.62.65-.43,1.44-.73,2.38-.89.89-.16,1.71-.15,2.47.01s1.4.5,1.94,1.01c.53.5.9,1.09,1.1,1.76.2.67.45,1.86.76,3.57l.5,2.84ZM159.53,50.97c-.14-.77-.27-1.26-.39-1.46-.12-.2-.32-.28-.58-.23-.23.04-.38.16-.47.35-.09.2-.06.72.09,1.57l1.37,7.75c.17.96.31,1.55.43,1.76.12.21.32.29.61.24.29-.05.46-.21.49-.49.04-.27-.03-.9-.2-1.88l-1.34-7.63Z"/>
    <path class="cls-1" d="M182.14,42.59l2.93,16.6-3.77.67-1.98-11.2.47,11.47-2.68.47-3.51-10.67,1.93,10.95-3.77.67-2.93-16.6,5.58-.98c.34.97.72,2.12,1.13,3.44l1.36,4.11-.37-7.92,5.61-.99Z"/>
    <path class="cls-1" d="M192.29,40.8l2.93,16.6-4.32.76-2.93-16.6,4.32-.76Z"/>
    <path class="cls-1" d="M207.76,38.07l2.93,16.6-3.78.67-3.58-7.15,1.33,7.54-3.61.64-2.93-16.6,3.61-.64,3.74,7.05-1.32-7.47,3.61-.64Z"/>
    <path class="cls-1" d="M224.59,41.4l-4.32.76-.27-1.51c-.17-.95-.31-1.54-.44-1.76-.12-.23-.34-.31-.65-.26-.27.05-.43.18-.49.4-.06.22-.01.76.13,1.6l1.4,7.97c.13.74.27,1.23.4,1.45.14.22.35.3.64.25.31-.05.5-.23.57-.51.07-.29.03-.82-.11-1.59l-.35-1.97-.87.15-.44-2.52,5.05-.89,1.57,8.91-2.71.48-.61-1.12c-.2.56-.51,1.01-.91,1.35-.4.33-.91.56-1.52.66-.73.13-1.43.07-2.13-.17-.69-.24-1.25-.59-1.67-1.05-.42-.46-.72-.97-.9-1.53-.18-.56-.37-1.4-.58-2.55l-.87-4.93c-.28-1.59-.4-2.75-.35-3.5.04-.75.42-1.49,1.12-2.23.7-.74,1.7-1.22,2.98-1.45,1.26-.22,2.36-.15,3.28.22s1.58.89,1.96,1.56c.38.67.69,1.69.93,3.05l.13.72Z"/>
    <path class="cls-1" d="M247.31,36.28l-4.01.71-.22-1.23c-.1-.57-.22-.93-.35-1.07-.13-.14-.32-.19-.55-.15-.26.05-.44.19-.53.42s-.11.57-.03,1c.1.55.25.96.44,1.21.19.26.66.52,1.4.8,2.12.8,3.5,1.52,4.13,2.17.63.64,1.08,1.78,1.37,3.4.21,1.18.22,2.08.05,2.69-.18.61-.63,1.17-1.36,1.69-.73.52-1.62.87-2.67,1.06-1.15.2-2.18.16-3.07-.13-.89-.29-1.53-.76-1.9-1.39s-.67-1.57-.89-2.81l-.19-1.09,4.01-.71.36,2.02c.11.62.24,1.01.38,1.17.14.16.36.21.65.16.29-.05.48-.2.58-.45.1-.25.11-.6.03-1.04-.17-.98-.42-1.59-.74-1.85-.33-.25-1.09-.64-2.28-1.15-1.2-.52-2-.91-2.41-1.17-.41-.26-.77-.65-1.1-1.18-.33-.53-.57-1.23-.73-2.11-.22-1.27-.23-2.23,0-2.87.22-.65.66-1.2,1.33-1.66.67-.46,1.51-.78,2.54-.96,1.12-.2,2.11-.18,2.96.04.85.22,1.46.59,1.81,1.09.35.51.65,1.42.88,2.74l.12.66Z"/>
    <path class="cls-1" d="M263.98,38.18c.29,1.67.46,2.85.51,3.56s-.09,1.38-.4,2.03c-.31.65-.79,1.19-1.44,1.62-.65.43-1.44.73-2.38.89-.89.16-1.71.15-2.47-.01-.76-.16-1.4-.5-1.94-1.01-.53-.5-.9-1.09-1.1-1.76-.2-.67-.45-1.86-.76-3.57l-.5-2.84c-.29-1.67-.46-2.85-.51-3.56s.09-1.39.4-2.03c.31-.65.79-1.19,1.44-1.62.65-.43,1.44-.73,2.38-.89.89-.16,1.71-.15,2.47.01.76.17,1.4.5,1.94,1.01.53.5.9,1.09,1.1,1.76.2.67.45,1.86.76,3.57l.5,2.84ZM258.7,33.49c-.14-.77-.27-1.26-.39-1.46-.12-.2-.32-.28-.59-.23-.22.04-.38.16-.47.35-.09.2-.06.72.09,1.57l1.37,7.75c.17.96.31,1.55.43,1.76.12.21.32.29.61.24.29-.05.46-.21.49-.49.04-.27-.03-.9-.2-1.88l-1.34-7.63Z"/>
    <path class="cls-1" d="M279.59,35.43c.29,1.67.46,2.85.51,3.56s-.09,1.38-.4,2.03c-.31.65-.79,1.19-1.44,1.62-.65.43-1.44.73-2.38.89-.89.16-1.71.15-2.47-.01s-1.4-.5-1.94-1.01c-.53-.51-.9-1.09-1.1-1.76-.2-.67-.45-1.86-.76-3.57l-.5-2.84c-.29-1.67-.46-2.85-.51-3.56s.09-1.39.4-2.03c.31-.65.79-1.19,1.44-1.62.65-.43,1.44-.73,2.38-.89.89-.16,1.71-.15,2.47.01.76.17,1.4.5,1.94,1.01s.9,1.09,1.1,1.76c.2.67.45,1.86.76,3.57l.5,2.84ZM274.31,30.73c-.14-.77-.27-1.26-.39-1.46-.12-.2-.32-.28-.59-.23-.23.04-.38.16-.47.35-.09.2-.06.72.09,1.57l1.37,7.75c.17.96.31,1.55.43,1.76.12.21.32.29.61.24.29-.05.46-.21.49-.49.04-.27-.03-.9-.2-1.88l-1.34-7.63Z"/>
    <path class="cls-1" d="M293.24,23l2.93,16.6-3.78.67-3.58-7.15,1.33,7.54-3.61.64-2.93-16.6,3.61-.64,3.74,7.05-1.32-7.47,3.61-.64Z"/>
    <path class="cls-1" d="M304.28,34.68l.6,3.38-3.13.55-.6-3.38,3.13-.55Z"/>
    <path class="cls-1" d="M312.84,33.17l.6,3.38-3.13.55-.6-3.38,3.13-.55Z"/>
    <path class="cls-1" d="M321.4,31.66l.6,3.38-3.13.55-.6-3.38,3.13-.55Z"/>
  </g>
</svg>