<?xml version="1.0" encoding="UTF-8"?>
<svg id="_レイヤー_1" data-name="レイヤー 1" xmlns="http://www.w3.org/2000/svg" viewBox="0 0 244 42">
  <defs>
    <style>
      .cls-1 {
        fill: #ffe300;
      }
    </style>
  </defs>
  <rect class="cls-1" y="0" width="244" height="42" rx="21" ry="21"/>
  <g>
    <path d="M93.15,31.92c-3.26.84-6.47,1.17-9.4,1.17-2.23,0-4.3-.2-6.05-.53-4.49-.86-6.7-3.46-6.7-6.14,0-1.42.64-2.87,1.87-4.13l4.35,1.62c-.78.64-1.14,1.26-1.14,1.81,0,1.2,1.67,2.32,7.03,2.32,2.85,0,6.25-.42,9.79-1.48l.25,5.36ZM91.15,15.62c-3.1-.45-6.78-.7-10.27-.7-3.1,0-6.05.2-8.29.56l-.17-4.99c2.9-.25,6.25-.45,9.74-.45,3.07,0,6.25.14,9.32.53l-.33,5.05Z"/>
    <path d="M96.2,32.36c2.12-4.69,4.05-11.44,5.44-16.94h-4.83v-4.41l5.58-.03c.25-1.2.45-2.32.59-3.29l5.25.53c-.2.92-.39,1.84-.61,2.76l6.5-.03v4.44h-7.31c-1.73,6.59-3.68,13.78-5.47,18.08l-5.13-1.12ZM121.4,32.92c-1.81.36-3.6.5-5.25.5-1.76,0-3.32-.14-4.6-.34-3.54-.5-5.19-2.87-5.19-5.16,0-1.03.33-2.04,1-2.85l4.44.81c-.53.53-.75,1-.75,1.37,0,1.34,2.59,1.45,4.19,1.45,1.51,0,3.46-.17,5.83-.7l.33,4.91ZM120.92,21.29c-2.01-.36-4.27-.59-6.5-.59-1.81,0-3.63.14-5.27.47l-.33-4.46c2.15-.25,4.41-.42,6.64-.42,2.01,0,3.99.11,5.86.36l-.39,4.63ZM117.27,14.39c-.75-1.28-1.93-2.87-2.9-4.02l2.29-1.45c.92.98,2.12,2.43,2.96,3.77l-2.34,1.7ZM120.39,12.16c-.87-1.23-1.98-2.73-2.99-3.74l2.26-1.42c1,.92,2.34,2.45,3.01,3.54l-2.29,1.62Z"/>
    <path d="M149.5,22.57c0,3.46-1.51,9.29-12.86,10.49l-2.29-4.91c8.65-.5,10.07-3.82,10.07-5.72v-.06c0-2.65-1.42-3.96-3.88-4.02h-.17c-1.95,0-4.41.89-6.7,3.32-.03,1.39-.06,2.79-.06,4.16,0,2.76.08,5.44.31,7.76l-4.86.06c-.08-.89-.08-1.87-.08-2.9,0-1.42.03-2.96.08-4.58-.89,2.12-1.93,4.21-3.01,5.97l-2.76-4.86c1.95-2.65,4.27-5.83,5.66-8.76l-4.8.08v-4.55l5.08-.08c.11-2.12.2-4.19.31-6.03l4.86.14c-.14,1.73-.34,4.49-.5,7.7,1.87-1.26,4.05-2.09,6.11-2.15h.42c6.36,0,9.07,4.35,9.07,8.84v.08Z"/>
    <path d="M156.65,34.01l-2.62-4.99c.64.03,1.28.06,1.87.06,11.86,0,11.91-6.86,11.91-9.46,0-6.42-2.12-6.47-2.65-6.47-.42,0-.86.14-1.23.36-1.56.95-5.53,6.5-5.8,12.42l-4.94-.25c-.11-1.2-.17-2.43-.17-3.68,0-4.63.64-9.57,1.31-13.76l5.25.31c-.53,2.15-1.12,4.38-1.37,6.36,2.04-4.32,4.58-6.08,7.59-6.08,2.43,0,4.86,1.26,5.97,3.68.84,1.87,1.23,4.74,1.23,7.42,0,.92-.06,1.81-.14,2.65-.47,4.44-3.74,11.44-15.51,11.44h-.7Z"/>
  </g>
</svg>