<?xml version="1.0" encoding="UTF-8"?>
<svg id="_レイヤー_1" data-name="レイヤー 1" xmlns="http://www.w3.org/2000/svg" viewBox="0 0 370 42">
  <defs>
    <style>
      .cls-1 {
        fill: #ffe300;
      }
    </style>
  </defs>
  <g>
    <path class="cls-1" d="M0,40.87c0-.34.05-5.24.1-5.59.1-7.5.87-12.55,9.1-14.65,1.93-.49,8.67-1.96,12.43-2.75,3.56-.78,4.19-2.45,4.19-4.75s-.14-4.51-7.32-4.51h-.72c-1.3,0-2.46.15-3.66.29-4.43.59-4.53,2.16-4.53,6.67H.19c0-1.03.05-2.16.05-2.84C.48,3.38,4.86.39,17.53.39s17.39,1.91,17.39,12.84c0,7.6-1.83,11.66-10.4,13.08-.29.05-11.08,1.76-11.32,1.81-4.09.83-4.09,2.65-4.09,4.41l25.48-.25v8.58H0Z"/>
    <path class="cls-1" d="M56.47,0c13.87,0,17.63,1.32,17.63,20.78,0,3.82-.14,7.69-.48,10.54-1.11,10.19-8.48,10.49-16.76,10.49-9.34,0-16.71,0-17.82-10.54-.29-2.79-.43-6.71-.48-10.49C38.55,2.65,40.52,0,56.47,0ZM56.37,8.18c-1.35,0-2.55.05-3.61.15-4.77.49-5.25,3.23-5.25,12.3,0,11.81.63,13.18,8.86,13.18s8.72-1.57,8.72-12.94c-.19-12.01-.67-12.69-8.72-12.69Z"/>
    <path class="cls-1" d="M77.64,40.87c0-.34.05-5.24.1-5.59.1-7.5.87-12.55,9.1-14.65,1.93-.49,8.67-1.96,12.43-2.75,3.56-.78,4.19-2.45,4.19-4.75s-.14-4.51-7.32-4.51h-.72c-1.3,0-2.46.15-3.66.29-4.43.59-4.53,2.16-4.53,6.67h-9.39c0-1.03.05-2.16.05-2.84.24-9.36,4.62-12.35,17.29-12.35s17.39,1.91,17.39,12.84c0,7.6-1.83,11.66-10.4,13.08-.29.05-11.08,1.76-11.32,1.81-4.09.83-4.09,2.65-4.09,4.41l25.48-.25v8.58h-34.58Z"/>
    <path class="cls-1" d="M142.36,12.45c0-.44-.1-1.03-.14-1.37-.43-1.96-1.44-3.04-7.56-3.04h-.87c-6.84,0-8.91,1.23-8.91,10.34,2.12-2.79,7.75-2.99,11.27-2.99,9.83,0,15.75.83,15.75,12.99,0,11.52-5.01,13.62-18.11,13.62-16.42,0-17.53-5.29-17.53-20.83S117.75.1,134.13.1c11.9,0,17.2,2.25,17.2,12.35h-8.96ZM125.07,28.82c0,.59.05,1.13.14,1.62.39,2.5,2.55,3.53,9.1,3.53,8.09-.24,8.91-1.32,8.91-5.73,0-4.02-1.54-5.19-8.33-5.19-6.31.2-9.83.29-9.83,5.24v.54Z"/>
    <path class="cls-1" d="M181.24,34.86v6.62h-7.18v-6.62h-18.72v-6.84h5.24v-9.11c-.51.47-1.52,1.42-2.24,1.93l-4.1-6.79c6.17-5.24,7.9-13.58,7.9-13.58l7.18,1.2s-.25,1.2-.76,3.14h23.87v6.83h-11.2v3.95h10.48v6.83h-10.48v5.59h12.72v6.84h-12.72ZM174.06,11.65h-8.07c-.63,1.72-2.49,3.95-2.49,3.95h10.56v-3.95ZM174.06,22.44h-6.34v5.59h6.34v-5.59Z"/>
  </g>
  <g>
    <path class="cls-1" d="M212.74,40.87c0-.34.05-5.24.1-5.59.1-7.5.87-12.55,9.1-14.65,1.93-.49,8.67-1.96,12.43-2.75,3.56-.78,4.19-2.45,4.19-4.75s-.14-4.51-7.32-4.51h-.72c-1.3,0-2.46.15-3.66.29-4.43.59-4.53,2.16-4.53,6.67h-9.39c0-1.03.05-2.16.05-2.84.24-9.36,4.62-12.35,17.29-12.35s17.39,1.91,17.39,12.84c0,7.6-1.83,11.66-10.4,13.08-.29.05-11.08,1.76-11.32,1.81-4.09.83-4.09,2.65-4.09,4.41l25.48-.25v8.58h-34.58Z"/>
    <path class="cls-1" d="M274.86,40.8l-2.66-7.01h5.41c2.7,0,2.79-.64,2.79-1.93v-2.54h-18.29c-.63,3.83-1.99,8.04-5.11,12.12l-5.7-5.89c4.14-5.16,4.18-12.64,4.18-15.09V2.24h32.06v27.85c0,8.34-.76,10.7-9.42,10.7h-3.25ZM280.4,9.24h-17.74v3.48h17.74v-3.48ZM280.4,19.3h-17.74v3.44h17.74v-3.44Z"/>
    <path class="cls-1" d="M304.99,41.44V9.24h-13.35V1.81h38.19v7.44h-16.69v8.47l2.11-3.18c5.62,3.18,12.8,8.42,12.8,8.42l-4.6,6.75s-4.22-3.78-10.31-7.78v19.51h-8.15Z"/>
    <path class="cls-1" d="M354.16,36.8h-10.56v1.29h-7.18v-17.32c-.76.82-1.56,1.68-2.45,2.49l-3.34-8.34c6.67-7.05,7.43-14.36,7.43-14.36l7.65.47s-.17,1.2-.72,3.18h25.01v9.76c0,23.86-.59,27.42-13.73,27.42l-2.11-4.6ZM362.86,11.44h-20.49c-.21.52-.46,1.46-.76,2.02h17.74v20.16c3.38-.47,3.51-3.95,3.51-17.79v-4.38ZM352.22,19.82h-8.62v2.28h8.62v-2.28ZM352.22,28.03h-8.62v2.36h8.62v-2.36Z"/>
  </g>
</svg>