<?xml version="1.0" encoding="UTF-8"?>
<svg id="_レイヤー_1" data-name="レイヤー 1" xmlns="http://www.w3.org/2000/svg" viewBox="0 0 260 148">
  <defs>
    <style>
      .cls-1 {
        fill: #fff;
      }

      .cls-2 {
        fill: #ffe300;
      }

      .cls-3 {
        fill: #e50012;
      }
    </style>
  </defs>
  <g>
    <g>
      <path d="M234.26,62.43c-.24-5.84-.29-7.49-.29-10.27,0-4.29.37-9.02,1.21-15.35l.14-1.05,7.61-1.34-.24,1.62,15.57-2.74v7.76l-16.19,2.85v-3.54c-.55,4.2-.67,6.95-.67,12.01,0,.09,0,.27,0,.52.16-1.47.58-3.14,1.21-4.83l.29-.78,8.01-1.41-1.05,2.46c-.94,2.21-1.11,2.98-1.11,3.78,0,.75.2.82.35.88.11.04.22.07.43.07.3,0,.75-.06,1.46-.18,2.33-.41,3.86-.7,5.77-1.16l1.79-.43v7.82l-1.14.25c-1.48.32-4.87.98-6.24,1.22-1.28.23-2.33.34-3.23.34-1.49,0-2.66-.3-3.7-.94-1.43-.88-2.45-2.51-2.8-4.37.03,1.69.08,3.84.13,5.95l.03,1.25-7.28,1.28-.07-1.66Z"/>
      <path class="cls-1" d="M256.81,35.02v4.82s-13.29,2.34-13.29,2.34v-4.82s13.29-2.34,13.29-2.34M241.2,36.2c-1.04,6.87-1.25,9.65-1.25,16.19,0,.59.08,4.92.19,9.21l-4.42.78c-.24-5.85-.29-7.44-.29-10.21,0-4.25.37-8.92,1.2-15.17l4.58-.81M248.52,47.78h0M248.52,47.78c-.93,2.18-1.23,3.22-1.23,4.35,0,1.19.43,1.92,1.31,2.24.29.1.57.15.93.15.42,0,.94-.07,1.71-.2,2.48-.44,4-.73,5.86-1.18v4.82c-1.49.32-4.87.98-6.18,1.21-1.18.21-2.15.31-2.98.31-1.24,0-2.15-.24-2.94-.73-1.36-.83-2.24-2.61-2.24-4.51,0-1.55.42-3.58,1.2-5.65l4.56-.8M259.71,31.57l-3.4.6-11.88,2.09.24-1.62-3.97.7-4.58.81-2.09.37-.28,2.1c-.85,6.4-1.22,11.19-1.22,15.55,0,2.81.06,4.46.3,10.32l.14,3.31,3.26-.58,4.42-.78,2.46-.43-.06-2.49c0-.21-.01-.42-.02-.63.16.11.32.22.48.32,1.26.78,2.68,1.15,4.45,1.15.99,0,2.1-.11,3.48-.36,1.36-.24,4.78-.9,6.29-1.23l2.28-.49v-2.34s0-4.82,0-4.82v-3.68s-3.57.86-3.57.86c-1.69.41-3.07.68-5.69,1.14-.18.03-.34.06-.49.08.1-.52.35-1.25.94-2.62l2.1-4.92-5.27.93-4.56.8-.47.08c.01-.2.02-.4.04-.6l.99-.17,13.29-2.34,2.39-.42v-2.43s0-4.82,0-4.82v-3.45h0ZM256.81,37.92h0,0ZM248.53,44.88h0,0ZM248.52,50.67h0,0Z"/>
    </g>
    <g>
      <path d="M85.18,136.82l.51-.15-.9-9.67.24-.04v-5.89l-.58.37v-10.66s.39-.42.39-.42c3.05-3.27,3.91-4.5,5.38-7.77l.32-.7,6.9-1.22.53.78c1.35,2,3.39,3.96,5.09,4.89l.76.41v.96c.7-1.99,1.16-4.15,1.71-7.48l.17-1.01,9.38-1.65-.34,2.03c-.24,1.39-.39,2.2-.66,3.36l9.28-1.64v1.73c-.08,22.23-.16,24.87-.85,28.25-.66,3.07-2.32,5.57-4.81,7.25-1.76,1.1-3.53,1.66-7.62,2.42l-5.06.89v-9.49s4.54-.8,4.54-.8c3.05-.5,3.65-1.08,4.03-3.86,0-.06.01-.12.02-.18l-9.87-2.58v-.14l-.97,6.86,1.07-.35v8.81l-.94.35c-4.94,1.86-9.54,3.26-15.88,4.82l-1.79.44v-8.93ZM113.92,117.22c.02-1.47.05-3.1.07-4.88l-3,.53c-.5,1.25-.92,2.18-1.5,3.23l4.43,1.12Z"/>
      <path class="cls-1" d="M113.28,99.36h0M113.28,99.36c-.35,2.06-.5,2.78-1.17,5.41l9.76-1.72c-.08,22.11-.15,24.73-.82,27.97-.58,2.71-2.02,4.87-4.2,6.34-1.56.97-3.27,1.49-7.08,2.2l-3.35.59v-6.55l3.35-.59c3.66-.6,4.75-1.66,5.21-5.09.2-1.64.35-6.92.47-17.32l-5.52.97c-.9,2.33-1.44,3.42-2.65,5.46l6.18,1.56v7.42l-8.32-2.18v-3.56c-1.01,1.26-1.17,1.46-2.33,2.45v-9.42c2.33-4.32,3.11-6.71,4.12-12.84l6.34-1.12M96.75,102.27c1.52,2.25,3.73,4.33,5.6,5.35v8.33s-2.26-1.64-2.26-1.64v2.43l-3.03.53v1.69l4.36-.77v5.77l-4.36.77v10.29s5.29-1.71,5.29-1.71v5.82c-4.98,1.88-9.49,3.24-15.72,4.77v-5.99s4.71-1.35,4.71-1.35v-10.81l-4.86.86v-5.77l4.86-.86v-1.69s-3.27.58-3.27.58v-1.69c-.97.86-1.13.98-2.18,1.64v-7.47c3.15-3.38,4.08-4.71,5.64-8.16l5.21-.92M91.92,112.46l4.9-.86-2.57-2.58c-1.21,1.95-1.48,2.39-2.33,3.45M121.87,103.05h0M102.15,125.41l-1.05,7.39-3.81.67.93-7.37,3.93-.69M90.48,127.47l.58,7.1-4.05.71-.66-7.09,4.12-.73M102.35,133.32h0M116.82,95.79l-4.05.71-6.34,1.12-2.02.36-.33,2.02c-.31,1.91-.6,3.41-.92,4.73-1.38-.91-2.95-2.5-4.01-4.07l-1.05-1.56-1.85.33-5.21.92-1.51.27-.63,1.39c-1.41,3.11-2.17,4.21-5.12,7.37l-.78.83v1.14s0,7.47,0,7.47v5.25s.58-.37.58-.37v2.05l-.35.06.25,2.66.11,1.13v.46h.04s.51,5.49.51,5.49v.06s-.4.12-.4.12v2.18s0,5.99,0,5.99v3.7s3.59-.88,3.59-.88c6.41-1.58,11.06-2.99,16.05-4.87l.16-.06v1.82l3.4-.6,3.35-.59c3.75-.7,6.02-1.29,8.11-2.59l.05-.03.04-.03c2.8-1.89,4.67-4.71,5.41-8.13.72-3.54.81-6.21.88-28.57v-3.46s-3.4.6-3.4.6l-5.47.96c.07-.39.15-.82.23-1.32l.69-4.05h0ZM113.28,96.46h0,0ZM121.88,100.16h0,0ZM112.02,114.16l.49-.09c0,.44-.01.88-.02,1.3l-.91-.23c.15-.32.29-.64.43-.98h0ZM104.49,129.58l.4-2.82,7.06,1.85c-.23,1.04-.66,1.21-2.64,1.54l-3.38.6-.68.12v-1.53l-.76.25h0ZM102.15,128.31h0,0Z"/>
    </g>
    <g>
      <path d="M125.03,121.07l.28-.38c2.8-3.82,3.11-4.25,4.24-5.89l.17-.25v-1.47l-4.17.73v-8.66l4.17-.73v-5.75l8.15-1.44v8.59c.27-.27.54-.52.79-.77,2.66-2.68,4.89-4.03,7.43-4.47.53-.09,1.01-.14,1.47-.14,1.8,0,3.21.69,4.32,2.11,1.01,1.32,1.56,3.23,1.56,5.39l-.07,2.7-.3,8.11-.03.5c-.03.47.03.85.08,1.07h.01c.15,0,.36-.02.62-.07.36-.06.84-.15,1.73-.34l1.76-.38v9.07l-4.04.82c-1.38.24-2.42.36-3.3.36-1.59,0-2.78-.39-3.73-1.21-1.53-1.37-1.82-3.07-1.82-5.54v-.59l.27-10.3.04-.74c0-.38,0-.72-.02-.96-.51.24-1.3.92-2.66,2.3-2.26,2.32-2.91,3.06-4.11,4.71v15.47s-8.15,1.44-8.15,1.44v-6.38l-1.34,1.88-3.35,4.85v-13.6Z"/>
      <path class="cls-1" d="M136.43,98.95v10.33c.69-.68,1.22-1.21,1.59-1.53.53-.57,1.09-1.11,1.65-1.66,2.45-2.46,4.43-3.69,6.68-4.09.44-.08.84-.12,1.22-.12,1.34,0,2.35.49,3.17,1.55.79,1.04,1.26,2.66,1.26,4.5l-.07,2.67-.3,8.09-.03.45c-.07,1.05.16,2,.53,2.31.25.21.57.31,1.01.31.25,0,.54-.03.87-.09.33-.06.83-.15,1.78-.35v6.09s-2.87.58-2.87.58c-1.22.22-2.2.33-3.01.33-1.27,0-2.11-.28-2.78-.86-.99-.9-1.32-1.98-1.32-4.45v-.59s.26-10.26.26-10.26l.03-.71c0-1.25-.03-1.65-.2-2.03-.17-.32-.56-.54-.99-.54-.07,0-.15,0-.23.02-.89.16-1.75.79-3.73,2.8-2.51,2.58-3.11,3.28-4.53,5.26v14.72s-5.26.93-5.26.93v-9.11c-1.16,1.5-1.75,2.3-2.64,3.64l-1.32,1.85-.73,1.05v-8.48c3.14-4.28,3.17-4.36,4.69-6.55v-3.65s-4.17.73-4.17.73v-5.72s4.17-.73,4.17-.73v-5.76s5.26-.93,5.26-.93M139.33,95.5l-3.4.6-5.26.93-2.39.42v2.43s0,3.32,0,3.32l-1.77.31-2.4.42v2.43s0,5.72,0,5.72v3.45s3.4-.6,3.4-.6l.21-.04c-.72,1.03-1.39,1.96-3.57,4.93l-.56.76v18.71l4.69-6.78v3.53l3.4-.6,5.26-.93,2.39-.42v-16.21c.99-1.34,1.66-2.08,3.71-4.18.04-.04.07-.08.11-.11l-.23,8.74v.04s0,.04,0,.04v.59c0,2.81.38,4.89,2.28,6.6l.02.02.02.02c1.21,1.06,2.74,1.57,4.68,1.57.96,0,2.08-.12,3.52-.37h.03s.03-.01.03-.01l2.87-.58,2.32-.47v-2.37s0-6.09,0-6.09v-3.59s-3.51.76-3.51.76c-.25.05-.46.1-.65.14l.29-7.91.07-2.7v-.04s0-.04,0-.04c0-2.47-.66-4.69-1.85-6.26-1.39-1.79-3.23-2.69-5.48-2.69-.55,0-1.11.05-1.72.16-2.28.4-4.31,1.42-6.52,3.31v-3.5s0-3.45,0-3.45h0Z"/>
    </g>
    <g>
      <polygon points="189.26 112.17 189.93 112.06 188.45 89.22 200.2 87.15 198.55 110.54 199.11 110.44 199.11 120.18 189.26 121.92 189.26 112.17"/>
      <path class="cls-1" d="M198.21,89.35l-1.53,21.84-4.92.87-1.38-21.32,7.83-1.38M197.28,112.61v6.04s-6.2,1.09-6.2,1.09v-6.04s6.2-1.09,6.2-1.09M202.18,84.94l-4.61.81-7.83,1.38-3.22.57.21,3.27,1.26,19.57-.57.1v9.1s0,4.35,0,4.35l4.29-.76,6.2-1.09,3.02-.53v-3.07s0-6.04,0-6.04v-4.35l-.4.07,1.31-18.72.33-4.67h0ZM198.21,93h0,0ZM197.28,116.27h0,0Z"/>
    </g>
    <g>
      <path d="M211.78,103.6c-.03-1.31.05-2.82.56-4.25l-9.28,1.64v-5.88c0-5.27,3.08-8.77,8.66-9.86l8.92-1.57c.95-.17,1.88-.25,2.76-.25,4.83,0,7.95,2.61,7.95,6.64v3.1c-.04,4.87-3.26,8.36-8.62,9.35l-.84.15v13.54l-10.11,1.78v-14.38ZM221.04,92.61c-.25,0-.57.03-.95.1l-5.37.95c-2.02.36-2.01.66-1.97,1.37v3.37c.86-1.62,2.42-3,5.22-3.63l1.97-.35c.98-.23,1.09-.43,1.11-.63v-1.19h0Z"/>
      <path class="cls-1" d="M223.39,85.24c3.74,0,6.12,1.79,6.12,4.82v3.1c-.03,3.96-2.68,6.73-7.12,7.55l-2.33.41v6.45s-6.45,1.14-6.45,1.14v-5.11c-.09-4.17,1.31-6.27,4.76-7.04l1.89-.33c1.76-.41,2.52-1.08,2.62-2.35v-1.53c0-1.06-.59-1.56-1.83-1.56-.36,0-.79.04-1.26.13l-5.37.95c-2.68.47-3.58,1.33-3.48,3.26v2.62s-6.04,1.06-6.04,1.06v-3.7c0-4.38,2.46-7.14,7.19-8.07l8.88-1.57c.86-.15,1.68-.23,2.44-.23M220.06,108.72v5.94s-6.45,1.14-6.45,1.14v-5.94l6.45-1.14M223.39,81.59c-.98,0-2.01.09-3.07.28l-8.88,1.57h-.03s-.03.01-.03.01c-6.44,1.26-10.14,5.51-10.14,11.66v8.06l4.29-.76,4.5-.79c-.06.64-.09,1.32-.07,2.02v3.16h0v13.36l4.29-.76,6.45-1.14,3.02-.53v-9.01s0-4.35,0-4.35v-.2c5.82-1.32,9.41-5.47,9.46-10.98v-3.13c0-2.61-1.09-4.89-3.07-6.43-1.72-1.34-4.04-2.04-6.71-2.04h0Z"/>
    </g>
    <g>
      <path d="M167.61,128.3c-7.11,0-8.17-4.29-8.17-6.85,0-1.12.21-2.21.6-3.22-.39.37-.8.78-1.26,1.24l-2.48,2.54v-10.57l.42-.42c.29-.29,1.1-1,1.27-1.12.68-.53,1.4-1.13,2.12-1.73l1.08-.89c.77-.62,1.95-1.6,3.23-2.66,1.17-.99,2-1.68,2.72-2.27l-7.57,1.48v-8.62l23.26-4.1v7.82l-4.21,3.57c4.66.32,7.97,4.18,7.97,9.41,0,3.79-1.33,7.54-3.64,10.3-2.55,2.96-6.18,4.82-11.11,5.69-1.55.27-2.98.41-4.24.41ZM169.69,112.03c3.41.25,5.88,2.56,6.14,5.75.56-.33.86-.69,1.13-1.14.57-.95.89-2.11.89-3.25,0-1.88-.76-2.64-2.61-2.64-.43,0-.91.05-1.44.14-1.44.25-2.78.62-4.11,1.15Z"/>
      <path class="cls-1" d="M181.38,92.83h0M181.38,92.83v5.42s-7.74,6.56-7.74,6.56c1.55-.5,2.15-.64,2.88-.76.5-.09,1-.13,1.48-.13,4.13,0,7.15,3.22,7.15,7.98,0,3.47-1.22,6.89-3.3,9.36-2.32,2.69-5.65,4.39-10.25,5.2-1.48.26-2.81.39-3.99.39-4.42,0-6.72-1.82-6.72-5.4,0-3.76,2.97-7.2,6.84-7.88.46-.08.91-.12,1.34-.12,3.07,0,5.33,1.97,5.33,4.88,0,.37-.03,1-.1,1.6,2.12-.63,3.14-1.29,3.9-2.57.69-1.15,1.09-2.55,1.09-3.99,0-2.69-1.41-4.09-4.06-4.09-.52,0-1.08.05-1.69.16-3.37.59-6.28,1.81-9.82,4.17-2.71,1.77-3.94,2.76-5.98,4.85v-6.42c.26-.27,1.02-.92,1.09-.97,1.09-.86,2.18-1.79,3.27-2.68.76-.61,1.95-1.6,3.24-2.67,3.5-2.94,3.9-3.27,7.41-5.95l-11.74,2.29v-5.64s20.37-3.59,20.37-3.59M168.13,121.64c.21,0,.43-.02.66-.06l.43-.08.26-.08c-.23-1.68-.72-2.43-1.7-2.43-.13,0-.27.01-.41.04-.73.13-1.12.53-1.12,1.19,0,.87.77,1.42,1.88,1.42M184.28,89.38l-3.4.6-20.37,3.59-2.39.42v2.43s0,5.64,0,5.64v3.52s3.45-.67,3.45-.67l.3-.06c-.68.56-1.2.99-1.58,1.29-.38.31-.74.61-1.1.91-.74.61-1.44,1.2-2.14,1.75h0c-.34.27-1.08.93-1.36,1.21l-.84.85v1.19s0,6.42,0,6.42v7.11s3.18-3.25,3.18-3.25c.24,2.83,1.6,4.51,2.76,5.43,1.65,1.32,3.95,1.99,6.83,1.99,1.35,0,2.86-.15,4.49-.43,5.27-.93,9.18-2.95,11.94-6.16,2.55-3.03,4-7.12,4-11.25,0-3.01-.99-5.75-2.78-7.72-.99-1.08-2.18-1.91-3.51-2.44l1.5-1.27,1.02-.87v-1.34s0-5.42,0-5.42v-3.45h0ZM181.39,89.93h0,0ZM181.38,95.73h0,0ZM174.33,112.26c.33-.05.63-.07.91-.07.65,0,.92.13.97.19.05.05.19.34.19,1.01,0,.37-.04.73-.12,1.09-.5-.85-1.16-1.6-1.95-2.21h0Z"/>
    </g>
  </g>
  <g>
    <path class="cls-3" d="M173.57,34.93v11.23c-.05,13.37-5.31,20.23-19.06,25.04,1.44,2.81,2.33,4.69,4.24,8.82l-9.13,1.61c-3.63-7.57-7.78-14.9-12.72-22.87l9.23-1.63,2.28,3.86,1.82,3.16c11.32-3.19,15.05-7.18,15.19-16.3v-3.17s-31.69,5.59-31.69,5.59v-8.32s39.84-7.03,39.84-7.03M181.42,25.58l-9.21,1.62-39.84,7.03-6.49,1.14v6.59s0,8.32,0,8.32v2.46l-1.76.31,1.76,2.84v3.75s2.09-.37,2.09-.37l2.25,3.64c5.13,8.28,9.04,15.31,12.32,22.13l2.58,5.37,5.86-1.03,9.13-1.61,10.05-1.77-4.28-9.26c-.26-.57-.51-1.1-.74-1.59,11.27-6.07,16.23-15.1,16.28-28.94v-11.26s0-9.36,0-9.36h0Z"/>
    <path class="cls-3" d="M54.48,30.04v3.1c0,6.01-2.32,10.71-7.14,14.28l-8.67,6.4v34.46s-10.48,1.85-10.48,1.85v-28.51s-20.34,14.91-20.34,14.91v-12.46l31.27-21.89c4.14-2.94,4.99-4.42,4.99-8.59v-1.71s10.37-1.83,10.37-1.83M62.33,20.68l-9.21,1.62-10.37,1.83-6.49,1.14v6.59s0,1.71,0,1.71c0,.42-.01.72-.03.91-.25.23-.73.62-1.63,1.26L3.35,57.62l-3.35,2.34v32.03l12.49-9.15,7.85-5.75v13.03s0,9.35,0,9.35l9.21-1.62,10.48-1.85,6.49-1.14v-6.59s0-30.49,0-30.49l5.48-4.04c6.76-5.01,10.32-12.13,10.32-20.6v-3.1s0-9.35,0-9.35h0Z"/>
    <path class="cls-3" d="M70.48,51.6v11.49s14.29-2.52,14.29-2.52v8.39l-14.47,2.55c-.14,10.92-1.57,15.57-6.36,20.86-3.63,3.59-7.35,5.19-15.86,6.89v-8.55c6.5-1.35,8.15-1.99,10.48-4.15,3.05-3.04,3.67-5.29,3.81-13.67l-15.5,2.73v-8.4s15.76-2.78,15.76-2.78v-11.5s7.84-1.38,7.84-1.38M78.33,42.25l-9.21,1.62-7.84,1.38-6.49,1.14v6.59s0,4.91,0,4.91l-9.28,1.63-6.49,1.14v6.59s0,8.4,0,8.4v9.36s1.21-.21,1.21-.21v5.94s0,8.55,0,8.55v9.57s9.39-1.88,9.39-1.88c8.72-1.74,14.46-3.69,19.84-9.01l.15-.15.15-.16c5.48-6.05,7.45-11.77,8.11-19.5l8.26-1.46,6.49-1.14v-24.34l-9.21,1.62-5.07.9v-2.14s0-9.35,0-9.35h0Z"/>
    <path class="cls-3" d="M136.23,16.09v8.9s-4.69.83-4.69.83v-8.9s4.69-.83,4.69-.83M129.87,17.21v8.9s-4.74.84-4.74.84v-8.9s4.74-.84,4.74-.84M123.56,24.09v4.89s4.74-.84,4.74-.84c-3.7,10.89-4.33,12.51-6.52,17.73,5.89,8.91,8.76,13.93,12.82,22.29l-10.79,1.9c-1.88-4.03-1.88-4.09-7.04-13.01-5.37,11.13-11.52,16.52-20.7,18.19l-6.15,1.08v-9.25l3.96-.7c10.53-2.03,14.91-8.16,22.99-32.09l-23.92,4.22v-9.02s30.6-5.4,30.6-5.4M144.08,6.74l-9.21,1.63-4.69.83-2.28.4-4.13.73-6.49,1.14v5.76s-25.67,4.53-25.67,4.53l-6.49,1.14v15.6s0,9.36,0,9.36l9.21-1.62,10.51-1.85c-4.98,12.18-7.88,13.4-12.37,14.28l-3.89.69-6.49,1.14v25.19l9.21-1.62,6.15-1.08c7.61-1.39,13.69-4.77,18.79-10.59.1.21.2.44.32.68l.15.32,2.54,5.46,5.94-1.05,10.79-1.9,10.25-1.81-4.55-9.36c-3.68-7.56-6.5-12.63-11.05-19.69,1.14-2.86,2.14-5.66,4.25-11.83l2.85-.5h0s6.36-1.12,6.36-1.12v-6.59s0-8.9,0-8.9V6.74h0Z"/>
    <path class="cls-3" d="M218.09,9.56l-1.61,13.8,4.78-.84c-.94,9.39-1.79,12.93-4.65,18.87,2.06,1.43,2.77,1.8,4.92,2.32v9.53c-4.38-1.17-6.03-1.98-8.76-4.44-2.82,3.59-4.78,5.28-8.94,7.71v-7.93c-1.97,4.94-3.98,7.48-6.48,9.37v-5.19l-3.57.63v-12.22s4.65-.82,4.65-.82v5.09c.98-2.82,2.1-8,2.1-25.55l-3.08.54v-3.69s-5.72,11.73-5.72,11.73l4.64-.82,2.19,5v2.39c0,2.09-1.07,3.33-3.31,3.72l-2.77.49v19.6s-6.48,1.14-6.48,1.14v-19.6s-5.99,1.06-5.99,1.06v-6.83s2.14-.38,2.14-.38l1.21-2.46-3.31-5.55c-.36-.64-.49-1.11-.49-1.71,0-.7.13-1.32.58-2.35l3.35-7.62,7.15-1.26-4.38,9.05.94,1.58,3.44-6.99,6.79-1.2v-2.54s20.64-3.64,20.64-3.64M208.98,30.32l1.25-12.14-2.77.49-.09,5.4,1.61,6.25M189.5,32.95l2.82-.5-1.03-3.16-1.79,3.66M211.93,36.68c.76-1.73,1.43-4.09,1.79-6.2l-4.33.76c.67,2.47,1.07,3.15,2.55,5.43M204.11,47.68c2.5-2.19,2.95-2.61,4.2-4.13-.76-1.36-1.03-1.91-2.14-4.96-.18,2.53-.76,6.07-2.06,9.09M227.11,0l-10.38,1.83-12.9,2.28.58-1.2-15.11,2.67-7.15,1.26-4.13.73-1.69,3.84-3.35,7.62c-.86,1.98-1.24,3.67-1.24,5.5,0,1.2.19,2.36.57,3.49l-.12.02v6.59s0,6.83,0,6.83v9.36s5.99-1.06,5.99-1.06v19.6s9.21-1.62,9.21-1.62l2.14-.38v6.35l6.48-4.89v1.37l11.81-6.9c2.52-1.47,4.45-2.79,6.19-4.3,1.62.72,3.38,1.26,5.51,1.84l9.88,2.65v-10.23s0-9.53,0-9.53v-6.17s-2.58-.63-2.58-.63c1.12-3.84,1.7-7.84,2.28-13.62l1.03-10.31-4.6.81.39-3.33,1.22-10.47h0Z"/>
    <path class="cls-3" d="M185.08,42.71c-.14,7.21-.22,8.31-.81,13.16l-5.27.93c.8-4.23.98-6.21,1.3-13.24l4.78-.84M193.11,33.32l-9.39,1.66-4.78.84-6.2,1.09-.28,6.29c-.3,6.79-.45,8.38-1.17,12.13l-2.12,11.17,11.2-1.97,5.27-.93,5.73-1.01.7-5.78c.61-5.06.72-6.42.86-13.94l.18-9.54h0Z"/>
    <g>
      <path class="cls-2" d="M26.23,65.48l-20.34,14.91v-17.35l32.11-22.47c3.79-2.69,4.15-3.66,4.15-6.99v-3.35l14.29-2.52v5.44c0,6.62-2.67,11.96-7.93,15.86l-7.87,5.81v35.11l-14.41,2.54v-26.98Z"/>
      <path d="M54.48,30.04h0M54.48,30.04v3.1c0,6.01-2.32,10.71-7.14,14.28l-8.67,6.4v34.46s-10.48,1.85-10.48,1.85v-28.51s-20.34,14.91-20.34,14.91v-12.46s31.27-21.89,31.27-21.89c4.14-2.94,4.99-4.42,4.99-8.59v-1.71l10.37-1.83M58.4,25.36l-4.61.81-10.37,1.83-3.24.57v5c0,2.62,0,3.02-3.33,5.39L5.6,60.84l-1.67,1.17v14.5s0,7.74,0,7.74l6.24-4.58,14.1-10.33v20.77s0,4.68,0,4.68l4.61-.81,10.48-1.85,3.24-.57v-3.29s0-32.48,0-32.48l7.07-5.22c5.8-4.29,8.73-10.16,8.73-17.44v-3.1s0-4.68,0-4.68h0ZM54.48,26.11h0,0ZM54.48,33.96h0,0Z"/>
    </g>
    <g>
      <path class="cls-2" d="M46.13,89.14l1.56-.32c6.54-1.35,7.65-1.9,9.54-3.66,2.16-2.15,2.9-3.61,3.12-9.88l-15.44,2.72v-12.38l15.76-2.78v-11.5l11.76-2.07v11.49l14.29-2.52v12.38l-14.5,2.56c-.28,10.2-1.96,15.15-6.83,20.53l-.07.08c-3.89,3.85-7.99,5.65-16.85,7.42l-2.35.47v-12.54Z"/>
      <path d="M70.48,51.6v11.49s14.29-2.52,14.29-2.52v8.39l-14.47,2.55c-.14,10.92-1.57,15.57-6.36,20.86-3.63,3.59-7.35,5.19-15.86,6.89v-8.55c6.5-1.35,8.15-1.99,10.48-4.15,3.05-3.04,3.67-5.29,3.81-13.67l-15.5,2.73v-8.4s15.76-2.78,15.76-2.78v-11.5s7.84-1.38,7.84-1.38M74.41,46.93l-4.61.81-7.84,1.38-3.24.57v11.5s-12.52,2.21-12.52,2.21l-3.24.57v3.29s0,8.4,0,8.4v4.68s4.61-.81,4.61-.81l10.7-1.89c-.31,3.78-1,4.71-2.41,6.13-1.47,1.36-2.24,1.82-8.56,3.13l-3.13.65v3.19s0,8.55,0,8.55v4.79s4.69-.94,4.69-.94c9.3-1.86,13.64-3.79,17.85-7.95l.08-.08.07-.08c4.97-5.49,6.86-10.5,7.29-20.19l11.31-2,3.24-.57v-16.37l-4.61.81-9.68,1.71v-6.82s0-4.68,0-4.68h0Z"/>
    </g>
    <g>
      <path class="cls-2" d="M87.98,65.42l5.58-.98c8.63-1.66,12.8-5.82,20.39-27.65l-22.95,4.05v-13l32.16-5.67v-5.76l15.03-2.65v12.88l-7.77,1.37-.26.76c-3.45,10.16-4.22,12.25-6.16,16.89,5.48,8.34,8.33,13.33,12.37,21.64l1.14,2.34-14.84,2.62-.78-1.68c-1.46-3.14-1.76-3.79-5.02-9.44-5.29,9.55-11.55,14.41-20.44,16.03l-8.47,1.49v-13.23Z"/>
      <path d="M136.23,16.09v8.9s-4.69.83-4.69.83v-8.9s4.69-.83,4.69-.83M129.87,17.21v8.9s-4.74.84-4.74.84v-8.9s4.74-.84,4.74-.84M123.56,24.09h0M123.56,24.09v4.89s4.74-.84,4.74-.84c-3.7,10.89-4.33,12.51-6.52,17.73,5.89,8.91,8.76,13.93,12.82,22.29l-10.79,1.9c-1.88-4.03-1.88-4.09-7.04-13.01-5.37,11.13-11.52,16.52-20.7,18.19l-6.15,1.08v-9.25l3.96-.7c10.53-2.03,14.91-8.16,22.99-32.09l-23.92,4.22v-9.02s30.6-5.4,30.6-5.4M128.31,28.14h0M140.16,11.41l-4.61.81-4.69.83-2.25.4-4.15.73-3.24.57v3.29s0,2.46,0,2.46l-28.92,5.1-3.24.57v3.29s0,9.02,0,9.02v4.68s4.61-.81,4.61-.81l17.33-3.06c-6.55,18.12-10.4,21.77-17.79,23.2l-3.93.69-3.24.57v17.22l4.61-.81,6.15-1.08c8.46-1.54,14.83-5.97,20.07-14.09,1.71,3.01,2.12,3.9,3.28,6.38l.15.32,1.27,2.73,2.97-.52,10.79-1.9,5.12-.9-2.28-4.68c-3.94-8.1-6.76-13.08-11.93-20.98,1.64-3.98,2.58-6.57,5.69-15.71l1.89-.33h0s3.12-.55,3.12-.55l3.24-.57v-12.19s0-4.68,0-4.68h0ZM133.8,12.54h0,0ZM127.49,19.41h0,0Z"/>
    </g>
    <g>
      <path class="cls-2" d="M184.05,57.9l-7.51,1.32.53-2.79c.76-4,.94-5.83,1.25-12.68l-.26.05v-10.82l2.79-.49.3-.61-2.76-4.63c-.55-.97-.77-1.77-.77-2.71,0-1.03.21-1.91.74-3.13l3.78-8.59,11.96-2.11-1.92,3.98,3.32-.58v-2.54l24.86-4.38-1.61,13.8,4.74-.84-.26,2.58c-.89,8.89-1.72,12.71-4.11,17.98.95.59,1.57.79,2.89,1.11l1.5.36v13.62l-2.47-.66c-3.86-1.03-5.82-1.86-7.99-3.55-2.37,2.78-4.47,4.44-8.2,6.62l-2.95,1.72v-3.69c-.99,1.26-2.09,2.33-3.34,3.28l-3.14,2.37v-6.79l-.94.17v5.24l-10.41,1.84v-4.44ZM198.49,27.57c.04-1.62.07-3.4.08-5.34l-1.76.31-1.62,3.33,2.37-.42.93,2.12Z"/>
      <path d="M218.09,9.56h0M218.09,9.56l-1.61,13.8,4.78-.84c-.94,9.39-1.79,12.93-4.65,18.87,2.06,1.43,2.77,1.8,4.92,2.32v9.53c-4.38-1.17-6.03-1.98-8.76-4.44-2.82,3.59-4.78,5.28-8.94,7.71v-7.93c-1.97,4.94-3.98,7.48-6.48,9.37v-5.19s-3.57.63-3.57.63v-12.22s4.65-.82,4.65-.82v5.09c.98-2.82,2.1-8,2.1-25.55l-3.08.54v-3.69l-5.72,11.73,4.64-.82,2.19,5v2.39c0,2.09-1.07,3.33-3.31,3.72l-2.77.49v19.6s-6.48,1.14-6.48,1.14v-19.6s-5.99,1.06-5.99,1.06v-6.83l2.14-.38,1.21-2.46-3.31-5.55c-.36-.64-.49-1.11-.49-1.71,0-.7.13-1.32.58-2.35l3.35-7.62,7.15-1.26-4.38,9.05.94,1.58,3.44-6.99,6.79-1.2v-2.54s20.64-3.64,20.64-3.64M210.23,18.18l-2.77.49-.09,5.4,1.61,6.25,1.25-12.14M189.5,32.95l2.82-.5-1.03-3.16-1.79,3.66M213.72,30.48l-4.33.76c.67,2.47,1.07,3.15,2.55,5.43.76-1.73,1.43-4.09,1.79-6.2M204.11,47.68c2.5-2.19,2.95-2.61,4.2-4.13-.76-1.36-1.03-1.91-2.14-4.96-.18,2.53-.76,6.07-2.06,9.09M221.27,22.52h0M185.08,42.71c-.14,7.21-.22,8.31-.81,13.16l-5.27.93c.8-4.23.98-6.21,1.3-13.24l4.78-.84M222.6,4.78l-5.19.92-20.46,3.61.58-1.2-7.56,1.33-7.15,1.26-2.07.36-.84,1.92-3.35,7.62c-.65,1.49-.91,2.62-.91,3.93,0,1.29.31,2.41.99,3.63l.02.04.03.04,1.6,2.69-2.2.39v14.8l.14-.03c-.24,4.8-.46,6.59-1.1,9.96l-1.06,5.59,5.6-.99,2.41-.42v4.44l4.61-.81,6.48-1.14.26-.05v3.15l6.29-4.74c.06-.05.13-.1.19-.15v2.41l5.91-3.45c3.28-1.92,5.42-3.5,7.51-5.7,2.02,1.28,4.07,2,7.19,2.84l4.94,1.32v-5.11s0-9.53,0-9.53v-3.09s-3-.73-3-.73c-.3-.07-.56-.14-.78-.2,1.9-4.64,2.69-8.76,3.49-16.79l.51-5.15-4.69.83,1-8.56.61-5.23h0ZM218.1,5.64h0,0ZM218.09,13.49h0,0ZM221.27,18.59h0,0ZM189.09,38.02h0,0Z"/>
    </g>
    <g>
      <path class="cls-2" d="M147.85,82.48c-3.37-7.02-7.38-14.23-12.62-22.68l-1.53-2.46,13.42-2.37,2.97,5.03,1.06,1.84c9.37-2.86,12.18-6.18,12.3-14.01v-.8l-31.69,5.59v-12.3l43.76-7.72v13.57c-.05,13.54-5.21,21.02-18.28,26.12.99,2,1.86,3.85,3.28,6.92l1.07,2.31-13.11,2.31-.64-1.34Z"/>
      <path d="M173.57,34.93v11.23c-.05,13.37-5.31,20.23-19.06,25.04,1.44,2.81,2.33,4.69,4.24,8.82l-9.13,1.61c-3.63-7.57-7.78-14.9-12.72-22.87l9.23-1.63,2.28,3.86,1.82,3.16c11.32-3.19,15.05-7.18,15.19-16.3v-3.17s-31.69,5.59-31.69,5.59v-8.32s39.84-7.03,39.84-7.03M177.5,30.25l-4.61.81-39.84,7.03-3.24.57v11.61s0,4.68,0,4.68l4.61-.81,27.01-4.76c-.36,5.02-2.26,7.7-9.36,10.11l-.26-.44-2.31-3.9-1.38-2.34-2.68.47-9.23,1.63-5.71,1.01,3.05,4.93c5.2,8.4,9.18,15.55,12.52,22.5l1.29,2.68,2.93-.52,9.13-1.61,5.02-.89-2.14-4.63c-.97-2.09-1.69-3.64-2.38-5.08,12.36-5.4,17.51-13.51,17.56-27.12v-11.24s0-4.68,0-4.68h0Z"/>
    </g>
  </g>
</svg>