<?xml version="1.0" encoding="UTF-8"?>
<svg id="_レイヤー_1" data-name="レイヤー 1" xmlns="http://www.w3.org/2000/svg" viewBox="0 0 960 694">
  <defs>
    <style>
      .cls-1 {
        fill: #fff;
      }

      .cls-2 {
        fill: #ffe300;
      }

      .cls-3 {
        fill: #140700;
      }

      .cls-4 {
        fill: #e50012;
      }

      .cls-5 {
        fill: #ff0;
      }
    </style>
  </defs>
  <g id="ggCMed">
    <polygon class="cls-2" points="364.15 160.9 431.03 203.92 431.03 103.32 495.1 187.06 551.3 112.87 562.54 184.81 631.1 119.05 638.97 182 726.9 145.9 680 240.45 776.67 242.13 689.55 292.72 762.29 330.77 682.25 334.87 743.69 403.13 638.72 373.46 654.64 424.66 591.2 407.93 603.05 484.91 530.16 455.02 527.13 539.44 471.49 476.5 427.09 581.03 368.09 493.22 248.96 559.84 295.79 451.79 230.52 448.1 260.69 409.92 156.02 402.54 260.11 361.5 212.78 330.19 280.28 310.47 217.46 269.67 345.55 271.31 328.15 235.25 383.52 241.65 364.15 160.9"/>
  </g>
  <path class="cls-5" d="M482.47,529.65l25.77,76.54,17.17-36.2,24.3,75.66-28.71,53.57-4.78-74.56-17.37,37.2-16.39-132.22M475.84,500.57l3.65,29.45,16.39,132.22,1.28,10.35,4.41-9.45,12.41-26.57,4.03,62.85.67,10.49,4.97-9.27,28.71-53.57.6-1.12-.39-1.21-24.3-75.66-2.32-7.22-3.25,6.85-13.99,29.49-23.4-69.5-9.47-28.12h0Z"/>
  <path class="cls-5" d="M130.57,276.8l87.52,23.44-60.64-3.46,10.83,18.55-33.17-11.47,11.51,19.77-84.14-25.21,56.87,2.95-10.47-17.97,29.87,7.47-8.19-14.06M124.31,272.02l3.67,6.29,4.61,7.92-22.97-5.74-6.9-1.73,3.58,6.15,7.68,13.18-51.33-2.66-24.91-1.29,23.89,7.16,84.14,25.21,7.28,2.18-3.82-6.56-7.44-12.78,25.53,8.83,7.66,2.65-4.08-7-8.01-13.72,55.06,3.14,29.15,1.66-28.21-7.55-87.52-23.44-7.03-1.88h0Z"/>
  <path class="cls-5" d="M895.82,90.45l-61.8,41.25,24.96,10.64-37.07,15.47,19.53,8.33-109.84,43.71,66.14-43.66-25.79-10.96,43.65-13.86-27.45-11.7,107.68-39.21M918.23,79.1l-23.44,8.53-107.68,39.21-7.14,2.6,6.99,2.98,20.01,8.53-35.94,11.41-7.72,2.45,7.46,3.17,20.65,8.77-61.47,40.58-24.37,16.09,27.13-10.8,109.84-43.71,6.77-2.69-6.7-2.85-12.99-5.54,30.51-12.73,6.56-2.74-6.54-2.79-19.86-8.46,57.18-38.17,20.75-13.85h0Z"/>
  <polygon class="cls-2" points="588.09 103.41 575.19 107.38 587.98 71.98 570.24 73.12 597.91 17.57 630.16 16.77 603.91 52.56 626.16 53.33 598.92 89.68 620.11 89.5 571.78 156.06 588.09 103.41"/>
  <polygon class="cls-2" points="282.01 460.7 187.8 499.87 194.31 462.46 51.64 560.74 162.52 510.65 153.47 552.76 282.01 460.7"/>
  <polygon class="cls-2" points="415.87 173.4 397.75 128.37 419.91 134.25 369.01 62.94 392.73 116.26 367.89 108.86 415.87 173.4"/>
  <polygon class="cls-2" points="876.2 292.02 813.73 290.02 827.91 269.85 722.22 289.63 796.88 289.64 779.98 311.89 876.2 292.02"/>
  <g>
    <g>
      <g>
        <path class="cls-3" d="M283.08,152.09c-.24-5.76-.29-7.38-.29-10.11,0-4.22.37-8.89,1.19-15.13l.14-1.04,7.5-1.32-.24,1.59,15.34-2.7v7.64l-15.95,2.81v-3.49c-.54,4.14-.66,6.85-.66,11.84,0,.09,0,.26,0,.51.16-1.45.57-3.09,1.19-4.76l.29-.76,7.89-1.39-1.04,2.42c-.93,2.17-1.09,2.93-1.09,3.72,0,.74.2.81.35.86.11.04.22.06.42.06.3,0,.74-.06,1.44-.18,2.29-.4,3.8-.69,5.69-1.15l1.76-.42v7.71l-1.13.24c-1.46.32-4.8.96-6.14,1.2-1.26.22-2.3.33-3.18.33-1.47,0-2.62-.3-3.65-.93-1.41-.86-2.42-2.47-2.75-4.3.03,1.67.08,3.79.13,5.86l.03,1.23-7.17,1.27-.07-1.63Z"/>
        <path class="cls-1" d="M305.3,125.08v4.75s-13.1,2.31-13.1,2.31v-4.75s13.1-2.31,13.1-2.31M289.92,126.24c-1.02,6.77-1.23,9.5-1.23,15.95,0,.58.08,4.85.18,9.08l-4.36.77c-.24-5.76-.29-7.33-.29-10.05,0-4.19.37-8.79,1.18-14.94l4.51-.8M297.13,137.65h0M297.13,137.65c-.92,2.15-1.21,3.17-1.21,4.28,0,1.17.42,1.89,1.29,2.2.28.1.56.15.91.15.41,0,.93-.07,1.68-.2,2.44-.43,3.94-.72,5.77-1.16v4.75c-1.47.32-4.8.96-6.09,1.19-1.16.21-2.12.31-2.93.31-1.23,0-2.12-.24-2.9-.72-1.34-.82-2.2-2.57-2.2-4.45,0-1.52.42-3.53,1.18-5.57l4.49-.79M308.15,121.68l-3.35.59-11.71,2.06.24-1.59-3.91.69-4.51.8-2.06.36-.27,2.07c-.83,6.3-1.21,11.03-1.21,15.32,0,2.76.06,4.4.29,10.17l.13,3.26,3.21-.57,4.36-.77,2.42-.43-.06-2.46c0-.21-.01-.42-.02-.62.15.11.31.22.47.32,1.25.77,2.64,1.14,4.39,1.14.96,0,2.09-.12,3.43-.35,1.35-.24,4.72-.89,6.2-1.21l2.25-.49v-2.3s0-4.75,0-4.75v-3.62s-3.52.85-3.52.85c-1.86.45-3.34.73-5.6,1.13-.18.03-.34.06-.48.08.1-.51.34-1.23.92-2.59l2.07-4.85-5.19.91-4.49.79-.47.08c.01-.2.02-.4.04-.6l.97-.17,13.1-2.31,2.36-.42v-2.4s0-4.75,0-4.75v-3.4h0ZM305.3,127.94h0,0ZM297.14,134.8h0,0ZM297.13,140.51h0,0Z"/>
      </g>
      <g>
        <path class="cls-3" d="M136.19,225.39l.5-.14-.89-9.53.23-.04v-5.8s-.58.36-.58.36v-10.51l.38-.41c3.01-3.22,3.85-4.44,5.3-7.65l.31-.69,6.79-1.2.52.77c1.33,1.97,3.34,3.9,5.02,4.81l.75.4v.95c.69-1.96,1.14-4.09,1.69-7.37l.16-1,9.24-1.63-.34,2c-.23,1.37-.38,2.17-.65,3.31l9.15-1.61v1.71c-.08,21.9-.16,24.5-.84,27.84-.65,3.02-2.29,5.49-4.74,7.14-1.74,1.08-3.48,1.63-7.51,2.39l-4.99.88v-9.35l4.48-.79c3.01-.5,3.6-1.06,3.97-3.8,0-.06.01-.12.02-.18l-9.73-2.55v-.14l-.96,6.75,1.05-.34v8.68l-.92.35c-4.87,1.83-9.4,3.21-15.65,4.75l-1.77.44v-8.8ZM164.51,206.07c.02-1.45.05-3.05.07-4.81l-2.96.52c-.49,1.23-.91,2.14-1.47,3.19l4.36,1.1Z"/>
        <path class="cls-1" d="M163.88,188.48h0M163.88,188.48c-.34,2.03-.5,2.74-1.15,5.33l9.62-1.7c-.07,21.78-.15,24.36-.81,27.56-.57,2.67-1.99,4.8-4.14,6.25-1.53.95-3.22,1.46-6.98,2.17l-3.3.58v-6.46s3.3-.58,3.3-.58c3.6-.59,4.68-1.64,5.14-5.01.19-1.62.34-6.82.46-17.06l-5.44.96c-.88,2.29-1.42,3.37-2.61,5.38l6.09,1.53v7.31s-8.2-2.15-8.2-2.15v-3.51c-1,1.24-1.15,1.44-2.3,2.41v-9.28c2.3-4.26,3.06-6.61,4.06-12.65l6.25-1.1M147.59,191.35c1.49,2.22,3.68,4.27,5.52,5.27v8.21s-2.22-1.62-2.22-1.62v2.39s-2.99.53-2.99.53v1.67s4.29-.76,4.29-.76v5.69s-4.29.76-4.29.76v10.14s5.21-1.69,5.21-1.69v5.73c-4.91,1.85-9.35,3.19-15.49,4.7v-5.9s4.64-1.33,4.64-1.33v-10.65l-4.79.84v-5.69l4.79-.84v-1.67s-3.22.57-3.22.57v-1.67c-.96.85-1.11.97-2.15,1.62v-7.36c3.1-3.33,4.02-4.65,5.56-8.04l5.14-.91M142.83,201.38l4.83-.85-2.53-2.55c-1.19,1.92-1.46,2.35-2.3,3.4M172.35,192.12h0M152.91,214.15l-1.03,7.28-3.76.66.92-7.26,3.87-.68M141.42,216.18l.58,7-3.99.7-.65-6.98,4.06-.72M153.11,221.94h0M167.37,184.96l-3.99.7-6.25,1.1-1.99.35-.33,1.99c-.31,1.88-.59,3.36-.9,4.66-1.36-.9-2.91-2.47-3.95-4.02l-1.04-1.54-1.83.32-5.14.91-1.48.26-.62,1.37c-1.39,3.07-2.14,4.15-5.04,7.27l-.77.82v8.48s0,5.17,0,5.17l.58-.36v2.02l-.35.06.24,2.62.1,1.11v.46h.04s.51,5.41.51,5.41v.06s-.4.11-.4.11v2.15s0,5.9,0,5.9v3.64s3.54-.87,3.54-.87c6.31-1.55,10.89-2.95,15.81-4.8l.16-.06v1.79l3.35-.59,3.3-.58c3.69-.69,5.93-1.27,7.99-2.56l.05-.03.04-.03c2.76-1.87,4.61-4.64,5.33-8.01.71-3.49.79-6.12.87-28.15v-3.41s-3.35.59-3.35.59l-5.39.95c.07-.39.14-.81.23-1.3l.68-3.99h0ZM163.88,185.62h0,0ZM172.35,189.26h0,0ZM162.64,203.06l.49-.09c0,.44-.01.86-.02,1.28l-.89-.22c.14-.31.28-.63.43-.97h0ZM155.21,218.26l.39-2.77,6.96,1.82c-.22,1.02-.65,1.19-2.6,1.51l-3.33.59-.67.12v-1.51s-.75.24-.75.24h0ZM152.91,217h0,0Z"/>
      </g>
      <g>
        <path class="cls-3" d="M175.46,209.87l.28-.38c2.75-3.75,3.08-4.23,4.17-5.79l.18-.26v-1.45l-4.1.72v-8.53l4.1-.72v-5.67l8.03-1.42v8.46c.27-.26.53-.52.78-.75,2.62-2.64,4.82-3.97,7.32-4.41.52-.09,1-.14,1.45-.14,1.77,0,3.16.68,4.25,2.08.99,1.3,1.54,3.19,1.54,5.31l-.06,2.67-.3,7.99-.03.49c-.03.47.03.84.08,1.05h.01c.15,0,.36-.02.61-.07.33-.06.8-.14,1.7-.34l1.73-.38v8.94l-3.98.8c-1.36.24-2.39.35-3.25.35-1.57,0-2.74-.38-3.67-1.2-1.5-1.35-1.79-3.03-1.79-5.46v-.58l.26-10.15.04-.73c0-.38,0-.71-.02-.95-.51.23-1.28.9-2.62,2.26-2.23,2.29-2.87,3.01-4.05,4.64v15.24l-8.03,1.42v-6.29l-1.32,1.85-3.3,4.78v-13.4Z"/>
        <path class="cls-1" d="M186.69,188.07v10.18c.68-.67,1.21-1.19,1.56-1.51.52-.57,1.07-1.1,1.63-1.63,2.41-2.42,4.36-3.64,6.58-4.03.43-.08.83-.11,1.2-.11,1.32,0,2.31.49,3.13,1.53.78,1.03,1.24,2.62,1.24,4.43l-.06,2.63-.29,7.97-.03.44c-.07,1.03.16,1.97.52,2.27.25.21.56.31,1,.31.25,0,.53-.03.86-.09.33-.06.81-.14,1.76-.35v6s-2.83.57-2.83.57c-1.2.21-2.17.32-2.97.32-1.25,0-2.08-.27-2.73-.84-.98-.88-1.3-1.95-1.3-4.39v-.58s.26-10.11.26-10.11l.03-.7c0-1.23-.03-1.63-.2-2-.17-.31-.55-.54-.98-.54-.07,0-.15,0-.22.02-.88.16-1.73.78-3.68,2.76-2.48,2.54-3.06,3.23-4.46,5.19v14.5s-5.18.91-5.18.91v-8.98c-1.14,1.47-1.73,2.27-2.61,3.59l-1.3,1.83-.72,1.03v-8.36c3.09-4.22,3.13-4.29,4.63-6.45v-3.6s-4.1.72-4.1.72v-5.63s4.1-.72,4.1-.72v-5.67s5.18-.91,5.18-.91M189.55,184.67l-3.35.59-5.18.91-2.36.42v2.39s0,3.27,0,3.27l-1.74.31-2.36.42v2.4s0,5.63,0,5.63v3.4s3.35-.59,3.35-.59l.2-.04c-.72,1.03-1.36,1.92-3.52,4.86l-.55.75v9.29s0,9.14,0,9.14l4.63-6.68v3.48l3.35-.59,5.18-.91,2.36-.42v-15.97c.97-1.32,1.64-2.05,3.65-4.12.04-.04.07-.07.11-.11l-.22,8.61v.04s0,.04,0,.04v.58c0,2.77.38,4.82,2.24,6.51l.02.02.02.02c1.19,1.04,2.7,1.54,4.61,1.54.95,0,2.05-.12,3.46-.37h.03s.03-.01.03-.01l2.83-.57,2.29-.46v-2.34s0-6,0-6v-3.54s-3.46.75-3.46.75c-.24.05-.46.1-.64.14l.29-7.8.07-2.66v-.04s0-.04,0-.04c0-2.43-.65-4.62-1.82-6.17-1.37-1.77-3.18-2.66-5.4-2.66-.54,0-1.1.05-1.7.16-2.25.4-4.25,1.4-6.42,3.26v-3.45s0-3.4,0-3.4h0Z"/>
      </g>
      <g>
        <polygon class="cls-3" points="238.74 201.1 239.4 200.99 237.95 178.48 249.52 176.44 247.9 199.49 248.45 199.39 248.45 209 238.74 210.71 238.74 201.1"/>
        <path class="cls-1" d="M247.56,178.62l-1.51,21.51-4.85.85-1.36-21.01,7.71-1.36M246.65,201.54v5.95s-6.11,1.08-6.11,1.08v-5.95s6.11-1.08,6.11-1.08M251.47,174.27l-4.54.8-7.71,1.36-3.17.56.21,3.22,1.24,19.29-.56.1v3.02s0,5.95,0,5.95v4.29l4.22-.75,6.11-1.08,2.97-.52v-3.02s0-5.95,0-5.95v-4.29s-.39.07-.39.07l1.29-18.45.32-4.6h0ZM247.56,182.22h0,0ZM246.65,205.14h0,0Z"/>
      </g>
      <g>
        <path class="cls-3" d="M260.93,192.65c-.03-1.29.05-2.78.55-4.19l-9.14,1.61v-5.8c0-5.19,3.03-8.64,8.53-9.72l8.78-1.55c.94-.17,1.85-.25,2.71-.25,4.76,0,7.83,2.57,7.83,6.54v3.06c-.04,4.8-3.21,8.24-8.49,9.21l-.82.15v13.35l-9.96,1.75v-14.17ZM270.05,181.83c-.25,0-.56.03-.93.1l-5.29.93c-1.99.35-1.98.64-1.94,1.35v3.32c.84-1.6,2.38-2.96,5.14-3.57l1.94-.34c.97-.23,1.07-.43,1.09-.62v-1.17h0Z"/>
        <path class="cls-1" d="M272.37,174.56c3.69,0,6.03,1.76,6.03,4.75v3.06c-.03,3.91-2.64,6.64-7.02,7.44l-2.3.41v6.36s-6.36,1.12-6.36,1.12v-5.04c-.09-4.11,1.29-6.18,4.69-6.93l1.86-.33c1.73-.4,2.49-1.07,2.58-2.31v-1.51c0-1.05-.58-1.54-1.81-1.54-.36,0-.77.04-1.25.13l-5.29.93c-2.64.47-3.52,1.31-3.43,3.22v2.58l-5.95,1.05v-3.65c0-4.31,2.42-7.04,7.08-7.95l8.75-1.54c.85-.15,1.65-.22,2.4-.22M269.09,197.7v5.85l-6.36,1.12v-5.85l6.36-1.12M272.37,170.96c-.96,0-1.98.09-3.03.28l-8.75,1.54h-.03s-.03.01-.03.01c-6.35,1.24-9.99,5.43-9.99,11.49v7.94l4.22-.74,4.44-.78c-.06.63-.09,1.3-.07,1.99v3.11h0v13.16l4.22-.74,6.36-1.12,2.97-.52v-13.37c5.73-1.3,9.27-5.39,9.32-10.82v-3.08c0-2.57-1.07-4.82-3.03-6.33-1.69-1.32-3.98-2.01-6.61-2.01h0Z"/>
      </g>
      <g>
        <path class="cls-3" d="M217.41,217c-7.01,0-8.05-4.23-8.05-6.75,0-1.1.21-2.17.6-3.17-.39.37-.79.77-1.24,1.23l-2.45,2.5v-10.41l.41-.42c.28-.29,1.09-.99,1.25-1.11.67-.52,1.38-1.12,2.09-1.71l1.06-.88c.76-.61,1.92-1.57,3.18-2.62,1.16-.97,1.97-1.66,2.68-2.24l-7.46,1.45v-8.49l22.92-4.04v7.71l-4.15,3.52c4.59.31,7.86,4.12,7.86,9.27,0,3.74-1.31,7.43-3.59,10.14-2.51,2.92-6.09,4.75-10.94,5.61-1.53.27-2.93.41-4.18.41ZM219.46,200.96c3.36.25,5.79,2.52,6.05,5.66.55-.33.85-.68,1.11-1.13.57-.94.87-2.07.87-3.21,0-1.85-.75-2.6-2.57-2.6-.43,0-.9.05-1.42.14-1.42.25-2.73.61-4.05,1.13Z"/>
        <path class="cls-1" d="M230.98,182.05h0M230.98,182.05v5.34s-7.62,6.47-7.62,6.47c1.53-.49,2.12-.63,2.83-.75.5-.09.98-.13,1.45-.13,4.07,0,7.05,3.17,7.05,7.86,0,3.42-1.21,6.79-3.26,9.22-2.28,2.65-5.57,4.32-10.1,5.12-1.45.26-2.77.38-3.93.38-4.35,0-6.62-1.79-6.62-5.32,0-3.71,2.93-7.1,6.74-7.77.45-.08.9-.12,1.32-.12,3.03,0,5.25,1.94,5.25,4.81,0,.36-.03.99-.1,1.58,2.08-.62,3.09-1.27,3.84-2.53.68-1.14,1.07-2.52,1.07-3.93,0-2.65-1.39-4.03-4-4.03-.51,0-1.06.05-1.66.16-3.32.59-6.19,1.78-9.67,4.11-2.67,1.74-3.88,2.72-5.9,4.78v-6.32c.26-.26,1.01-.9,1.07-.95,1.07-.84,2.15-1.76,3.23-2.64.75-.6,1.92-1.57,3.19-2.63,3.45-2.9,3.84-3.22,7.3-5.87l-11.56,2.26v-5.56s20.07-3.54,20.07-3.54M217.92,210.43c.21,0,.42-.02.65-.06l.42-.07.26-.08c-.23-1.66-.71-2.4-1.68-2.4-.13,0-.26.01-.41.04-.72.13-1.11.52-1.11,1.18,0,.86.76,1.4,1.85,1.4M233.83,178.64l-3.35.59-20.07,3.54-2.36.42v2.4s0,5.56,0,5.56v3.47s3.4-.66,3.4-.66l.3-.06c-.67.55-1.18.97-1.56,1.27-.38.31-.73.6-1.09.9-.73.61-1.42,1.18-2.11,1.72h0c-.33.26-1.07.91-1.34,1.19l-.82.83v1.17s0,6.32,0,6.32v7s3.13-3.2,3.13-3.2c.23,2.79,1.57,4.44,2.72,5.35,1.63,1.3,3.89,1.96,6.73,1.96,1.33,0,2.81-.14,4.42-.43,5.19-.92,9.04-2.9,11.77-6.07,2.51-2.99,3.95-7.02,3.95-11.09,0-4.77-2.45-8.53-6.19-10.02l1.47-1.25,1.01-.85v-1.32s0-5.34,0-5.34v-3.4h0ZM230.99,179.19h0,0ZM230.98,184.9h0,0ZM224.03,201.18c.32-.05.62-.07.89-.07,1,0,1.15.07,1.15,1.17,0,.36-.04.72-.12,1.07-.49-.84-1.14-1.58-1.92-2.17h0Z"/>
      </g>
    </g>
    <g>
      <path class="cls-4" d="M223.28,125v11.06c-.05,13.17-5.23,19.93-18.78,24.67,1.42,2.77,2.29,4.62,4.18,8.69l-9,1.59c-3.58-7.46-7.67-14.68-12.53-22.53l9.09-1.6,2.25,3.81,1.79,3.12c11.16-3.14,14.83-7.07,14.97-16.06v-3.12s-31.22,5.5-31.22,5.5v-8.2l39.25-6.92M231.02,115.78l-9.08,1.6-39.25,6.92-6.39,1.13v17.11l-1.73.31,1.73,2.8v3.69l2.06-.36,2.22,3.58c5.05,8.15,8.91,15.08,12.14,21.8l2.54,5.29,5.78-1.02,9-1.59,9.9-1.75-4.22-9.12c-.26-.56-.5-1.08-.73-1.57,11.11-5.98,15.99-14.87,16.04-28.51v-20.31h0Z"/>
      <path class="cls-4" d="M105.94,120.18v3.05c0,5.92-2.29,10.56-7.03,14.07l-8.54,6.3v33.95s-10.33,1.82-10.33,1.82v-28.09s-20.04,14.69-20.04,14.69v-12.28s30.81-21.56,30.81-21.56c4.08-2.9,4.91-4.35,4.91-8.47v-1.68s10.21-1.8,10.21-1.8M113.67,110.96l-9.08,1.6-10.21,1.8-6.39,1.13v6.49s0,1.68,0,1.68c0,.42-.01.71-.03.9-.25.22-.72.61-1.61,1.25l-30.79,21.55-3.3,2.31v16.3s0,15.26,0,15.26l12.31-9.02,7.74-5.67v12.84s0,9.22,0,9.22l9.08-1.6,10.33-1.82,6.39-1.13v-36.54s5.4-3.98,5.4-3.98c6.66-4.94,10.17-11.95,10.17-20.3v-3.05s0-9.22,0-9.22h0Z"/>
      <path class="cls-4" d="M121.71,141.42v11.33s14.08-2.48,14.08-2.48v8.27l-14.25,2.51c-.13,10.76-1.55,15.34-6.27,20.56-3.57,3.53-7.24,5.12-15.62,6.79v-8.42c6.4-1.33,8.03-1.96,10.33-4.09,3-2.99,3.62-5.22,3.75-13.47l-15.27,2.69v-8.27s15.53-2.74,15.53-2.74v-11.33s7.72-1.36,7.72-1.36M129.45,132.21l-9.08,1.6-7.72,1.36-6.39,1.13v6.49s0,4.84,0,4.84l-9.14,1.61-6.39,1.13v6.49s0,8.27,0,8.27v9.22s1.19-.21,1.19-.21v5.85s0,8.42,0,8.42v9.43s9.25-1.85,9.25-1.85c8.59-1.72,14.25-3.64,19.55-8.88l.15-.15.14-.16c5.39-5.96,7.34-11.6,7.99-19.21l8.14-1.44,6.39-1.13v-23.98l-9.08,1.6-5,.88v-11.32h0Z"/>
      <path class="cls-4" d="M186.49,106.44v8.77s-4.62.82-4.62.82v-8.77s4.62-.82,4.62-.82M180.23,107.54v8.77s-4.68.82-4.68.82v-8.77s4.68-.82,4.68-.82M174.01,114.31v4.81s4.67-.82,4.67-.82c-3.65,10.73-4.26,12.33-6.42,17.46,5.8,8.78,8.63,13.72,12.63,21.96l-10.63,1.87c-1.85-3.97-1.85-4.03-6.93-12.82-5.29,10.97-11.35,16.28-20.39,17.92l-6.06,1.07v-9.11l3.9-.69c10.38-2,14.69-8.04,22.65-31.62l-23.57,4.16v-8.88s30.15-5.32,30.15-5.32M194.23,97.22l-9.08,1.6-4.62.82-4.48.79-1.84.32-6.39,1.13v5.67s-25.3,4.46-25.3,4.46l-6.39,1.13v6.49s0,8.88,0,8.88v9.22s9.08-1.6,9.08-1.6l10.36-1.83c-4.91,12-7.76,13.21-12.19,14.07l-3.84.68-6.39,1.13v24.82l9.08-1.6,6.06-1.07c7.5-1.37,13.49-4.7,18.51-10.44.1.21.2.43.31.67l.15.31,2.51,5.38,5.85-1.03,10.63-1.87,10.1-1.78-4.49-9.22c-3.62-7.45-6.41-12.45-10.89-19.4,1.13-2.82,2.11-5.58,4.19-11.65l2.81-.49h0s6.26-1.11,6.26-1.11v-6.49s0-8.77,0-8.77v-9.22h0Z"/>
      <path class="cls-4" d="M267.15,100l-1.58,13.6,4.71-.83c-.92,9.25-1.76,12.74-4.58,18.59,2.03,1.41,2.73,1.78,4.84,2.29v9.38c-4.31-1.16-5.94-1.95-8.63-4.37-2.77,3.53-4.71,5.2-8.8,7.59v-7.81c-1.94,4.86-3.92,7.37-6.39,9.23v-5.11l-3.52.62v-12.04s4.58-.81,4.58-.81v5.01c.97-2.77,2.07-7.88,2.07-25.17l-3.04.54v-3.64s-5.63,11.56-5.63,11.56l4.58-.81,2.16,4.92v2.36c0,2.06-1.06,3.28-3.26,3.67l-2.73.48v19.31s-6.39,1.13-6.39,1.13v-19.31s-5.9,1.04-5.9,1.04v-6.73s2.11-.37,2.11-.37l1.19-2.42-3.26-5.47c-.35-.63-.48-1.1-.48-1.69,0-.69.13-1.3.57-2.31l3.3-7.51,7.04-1.24-4.31,8.92.92,1.56,3.39-6.89,6.69-1.18v-2.5s20.34-3.59,20.34-3.59M258.17,120.45l1.23-11.96-2.73.48-.09,5.32,1.59,6.16M238.97,123.05l2.78-.49-1.01-3.11-1.76,3.6M261.08,126.72c.75-1.71,1.41-4.03,1.76-6.11l-4.27.75c.66,2.44,1.06,3.11,2.51,5.35M253.37,137.56c2.47-2.15,2.91-2.58,4.14-4.07-.75-1.34-1.01-1.88-2.11-4.88-.18,2.49-.75,5.98-2.03,8.96M276.04,90.58l-10.23,1.8-12.71,2.24.57-1.18-14.89,2.63-7.04,1.24-4.07.72-1.66,3.78-3.3,7.51c-.85,1.95-1.23,3.61-1.23,5.42,0,1.19.18,2.32.56,3.44l-.12.02v6.49s0,6.73,0,6.73v9.22s5.9-1.04,5.9-1.04v10.09s0,9.22,0,9.22l9.08-1.6,2.11-.37v6.26l6.39-4.82v1.35s11.64-6.8,11.64-6.8c2.48-1.45,4.39-2.75,6.1-4.24,1.6.71,3.33,1.25,5.43,1.81l9.74,2.61v-10.08s0-9.38,0-9.38v-6.08s-2.55-.62-2.55-.62c1.11-3.78,1.68-7.72,2.24-13.42l1.01-10.16-4.54.8.38-3.28,1.2-10.32h0Z"/>
      <path class="cls-4" d="M234.62,132.66c-.14,7.1-.22,8.19-.79,12.96l-5.19.92c.79-4.17.97-6.12,1.28-13.05l4.71-.83M242.53,123.41l-9.26,1.63-4.71.83-6.11,1.08-.28,6.2c-.3,6.69-.45,8.26-1.15,11.95l-2.09,11.01,11.03-1.95,5.19-.92,5.65-1,.69-5.7c.6-4.99.71-6.33.85-13.74l.18-9.4h0Z"/>
      <g>
        <path class="cls-2" d="M78.11,155.09l-20.04,14.69v-17.1l31.64-22.14c3.73-2.65,4.09-3.61,4.09-6.88v-3.3l14.08-2.48v5.36c0,6.53-2.63,11.78-7.81,15.63l-7.76,5.72v34.6l-14.2,2.5v-26.58Z"/>
        <path class="cls-3" d="M105.94,120.18h0M105.94,120.18v3.05c0,5.92-2.29,10.56-7.03,14.07l-8.54,6.3v33.95s-10.33,1.82-10.33,1.82v-28.09s-20.04,14.69-20.04,14.69v-12.28s30.81-21.56,30.81-21.56c4.08-2.9,4.91-4.35,4.91-8.47v-1.68l10.21-1.8M109.81,115.57l-4.54.8-10.21,1.8-3.2.56v4.93c0,2.58,0,2.98-3.29,5.31l-30.79,21.55-1.65,1.15v14.29s0,7.63,0,7.63l6.15-4.51,13.89-10.18v20.47s0,4.61,0,4.61l4.54-.8,10.33-1.82,3.2-.56v-3.25s0-32,0-32l6.97-5.14c5.71-4.23,8.6-10.01,8.6-17.18v-3.05s0-4.61,0-4.61h0ZM105.95,116.31h0,0ZM105.94,124.04h0,0Z"/>
      </g>
      <g>
        <path class="cls-2" d="M97.71,178.41l1.54-.32c6.44-1.34,7.54-1.88,9.4-3.61,2.13-2.12,2.85-3.55,3.07-9.73l-15.21,2.68v-12.2l15.53-2.74v-11.33l11.59-2.04v11.32l14.08-2.48v12.2l-14.28,2.52c-.27,10.06-1.94,14.93-6.73,20.23l-.07.08c-3.83,3.79-7.87,5.57-16.6,7.31l-2.31.46v-12.35Z"/>
        <path class="cls-3" d="M121.71,141.42v11.33s14.08-2.48,14.08-2.48v8.27s-14.25,2.51-14.25,2.51c-.13,10.76-1.55,15.34-6.27,20.56-3.57,3.53-7.24,5.12-15.62,6.79v-8.42c6.4-1.33,8.03-1.96,10.33-4.09,3-2.99,3.62-5.22,3.75-13.47l-15.27,2.69v-8.27s15.53-2.74,15.53-2.74v-11.33s7.72-1.36,7.72-1.36M125.58,136.81l-4.54.8-7.72,1.36-3.2.56v11.33s-12.34,2.17-12.34,2.17l-3.2.56v3.25s0,8.27,0,8.27v4.61s4.54-.8,4.54-.8l10.54-1.86c-.31,3.72-.99,4.65-2.37,6.04-1.45,1.34-2.21,1.8-8.43,3.09l-3.08.64v3.15s0,8.42,0,8.42v4.72s4.62-.92,4.62-.92c9.17-1.83,13.44-3.73,17.59-7.83l.08-.07.07-.08c4.9-5.41,6.76-10.34,7.18-19.89l11.15-1.97,3.2-.56v-3.24s0-8.27,0-8.27v-4.61l-4.54.8-9.54,1.68v-6.72s0-4.61,0-4.61h0Z"/>
      </g>
      <g>
        <path class="cls-2" d="M138.95,155.04l5.5-.97c8.5-1.64,12.61-5.74,20.09-27.24l-22.61,3.99v-12.81l31.69-5.59v-5.67l14.81-2.61v12.69l-7.66,1.35-.25.75c-3.4,10.01-4.16,12.07-6.07,16.64,5.41,8.22,8.21,13.14,12.19,21.32l1.12,2.3-14.62,2.58-.77-1.66c-1.44-3.09-1.74-3.74-4.94-9.3-5.21,9.41-11.38,14.2-20.14,15.8l-8.34,1.47v-13.04Z"/>
        <path class="cls-3" d="M186.49,106.44v8.77s-4.62.82-4.62.82v-8.77s4.62-.82,4.62-.82M180.23,107.54v8.77s-4.67.82-4.67.82v-8.77s4.67-.82,4.67-.82M174.01,114.31h0M174.01,114.31v4.81s4.67-.82,4.67-.82c-3.65,10.73-4.26,12.33-6.42,17.46,5.8,8.78,8.63,13.72,12.63,21.96l-10.63,1.87c-1.85-3.97-1.85-4.03-6.93-12.82-5.29,10.97-11.35,16.28-20.39,17.92l-6.06,1.07v-9.11s3.9-.69,3.9-.69c10.38-2,14.69-8.04,22.65-31.62l-23.57,4.16v-8.88s30.15-5.32,30.15-5.32M178.69,118.3h0M190.36,101.83l-4.54.8-4.62.82-3.2.56h0s-3.12.55-3.12.55l-3.2.56v3.24s0,2.43,0,2.43l-28.49,5.03-3.2.56v3.24s0,8.88,0,8.88v4.61l4.54-.8,17.08-3.01c-6.46,17.86-10.24,21.45-17.53,22.86l-3.87.68-3.2.56v3.25s0,9.11,0,9.11v4.61l4.54-.8,6.06-1.07c8.33-1.52,14.61-5.88,19.77-13.88,1.68,2.97,2.09,3.85,3.23,6.29l.15.31,1.25,2.69,2.92-.52,10.63-1.87,5.05-.89-2.24-4.61c-3.88-7.98-6.66-12.89-11.75-20.68,1.62-3.92,2.55-6.47,5.61-15.48l1.86-.33h0s3.07-.54,3.07-.54l3.19-.56v-3.24s0-8.77,0-8.77v-4.61h0ZM184.09,102.93h0,0ZM177.88,109.7h0,0Z"/>
      </g>
      <g>
        <path class="cls-2" d="M233.61,147.63l-7.4,1.3.52-2.75c.75-3.95.93-5.74,1.23-12.49l-.25.04v-10.66l2.74-.48.29-.6-2.72-4.57c-.54-.95-.76-1.74-.76-2.67,0-1.01.21-1.88.73-3.08l3.72-8.46,11.78-2.08-1.9,3.92,3.27-.58v-2.5l24.49-4.32-1.58,13.6,4.67-.82-.25,2.54c-.87,8.76-1.69,12.52-4.05,17.71.94.58,1.55.78,2.84,1.1l1.48.36v13.42l-2.43-.65c-3.8-1.02-5.74-1.83-7.88-3.5-2.34,2.74-4.41,4.37-8.08,6.52l-2.91,1.7v-3.63c-.98,1.25-2.05,2.3-3.29,3.23l-3.1,2.34v-6.69l-.93.16v5.16l-10.25,1.81v-4.38ZM247.83,117.75c.04-1.6.07-3.35.08-5.27l-1.73.3-1.6,3.28,2.34-.41.92,2.09Z"/>
        <path class="cls-3" d="M267.15,100h0M267.15,100l-1.58,13.59,4.71-.83c-.92,9.25-1.76,12.74-4.58,18.59,2.03,1.41,2.73,1.78,4.84,2.29v9.39c-4.31-1.16-5.94-1.95-8.63-4.37-2.77,3.53-4.71,5.2-8.8,7.59v-7.81c-1.94,4.86-3.92,7.37-6.39,9.23v-5.11s-3.52.62-3.52.62v-12.04s4.58-.81,4.58-.81v5.01c.97-2.77,2.07-7.88,2.07-25.17l-3.04.54v-3.64s-5.64,11.56-5.64,11.56l4.58-.81,2.16,4.92v2.36c0,2.06-1.06,3.28-3.26,3.67l-2.73.48v19.31s-6.39,1.13-6.39,1.13v-19.31s-5.9,1.04-5.9,1.04v-6.73l2.11-.37,1.19-2.42-3.26-5.47c-.35-.63-.48-1.1-.48-1.69,0-.69.13-1.3.57-2.31l3.3-7.51,7.04-1.24-4.31,8.92.92,1.56,3.39-6.89,6.69-1.18v-2.5s20.34-3.59,20.34-3.59M259.4,108.49l-2.73.48-.09,5.32,1.59,6.16,1.23-11.96M238.97,123.05l2.78-.49-1.01-3.11-1.76,3.6M262.84,120.61l-4.27.75c.66,2.44,1.06,3.11,2.51,5.35.75-1.71,1.41-4.03,1.76-6.11M253.37,137.56c2.47-2.15,2.9-2.58,4.14-4.07-.75-1.34-1.01-1.88-2.11-4.88-.18,2.49-.75,5.98-2.03,8.96M270.28,112.76h0M234.62,132.66c-.14,7.1-.22,8.19-.79,12.96l-5.2.92c.79-4.17.97-6.12,1.28-13.05l4.71-.83M271.59,95.29l-5.11.9-20.16,3.55.57-1.18-7.45,1.31-7.04,1.24-2.04.36-.83,1.89-3.3,7.51c-.64,1.47-.9,2.58-.9,3.87,0,1.27.3,2.38.98,3.58l.02.04.03.04,1.58,2.65-2.17.38v14.58l.14-.02c-.24,4.73-.46,6.49-1.09,9.81l-1.05,5.5,5.52-.97,2.37-.42v4.37l4.54-.8,6.39-1.13.26-.05v3.1l6.2-4.68c.06-.05.13-.1.19-.14v2.38s5.82-3.4,5.82-3.4c3.23-1.89,5.34-3.45,7.4-5.62,1.99,1.27,4.01,1.97,7.08,2.8l4.87,1.3v-5.04s0-9.39,0-9.39v-3.04s-2.95-.72-2.95-.72c-.3-.07-.55-.14-.77-.2,1.87-4.57,2.65-8.63,3.44-16.54l.51-5.08-4.62.82.98-8.44.6-5.16h0ZM267.16,96.13h0,0ZM267.15,103.87h0,0ZM270.29,108.9h0,0ZM238.58,128.04h0,0Z"/>
      </g>
      <g>
        <path class="cls-2" d="M197.94,171.85c-3.32-6.92-7.27-14.02-12.43-22.35l-1.5-2.43,13.22-2.33,2.93,4.96,1.04,1.81c9.23-2.82,12-6.09,12.12-13.81v-.79l-31.22,5.5v-12.12l43.12-7.61v13.37c-.05,13.34-5.14,20.71-18.01,25.74.98,1.97,1.83,3.79,3.23,6.81l1.06,2.28-12.92,2.28-.63-1.32Z"/>
        <path class="cls-3" d="M223.28,125v11.06c-.05,13.17-5.23,19.93-18.78,24.67,1.42,2.77,2.29,4.62,4.18,8.69l-9,1.59c-3.58-7.46-7.67-14.68-12.53-22.53l9.09-1.6,2.25,3.81,1.79,3.12c11.16-3.14,14.83-7.07,14.97-16.06v-3.12s-31.22,5.5-31.22,5.5v-8.2l39.25-6.92M227.15,120.39l-4.54.8-39.25,6.92-3.2.56v16.05l4.54-.8,26.62-4.69c-.35,4.95-2.23,7.58-9.22,9.96l-.25-.44-2.27-3.85-1.36-2.31-2.64.47-9.09,1.6-5.62.99,3.01,4.85c5.13,8.27,9.05,15.32,12.33,22.17l1.27,2.64,2.89-.51,9-1.59,4.95-.87-2.11-4.56c-.95-2.06-1.67-3.59-2.35-5,12.18-5.32,17.25-13.31,17.3-26.72v-11.08s0-4.61,0-4.61h0Z"/>
      </g>
    </g>
  </g>
  <g>
    <polygon class="cls-2" points="736.46 550.12 702.91 589.13 830.29 573.78 860.15 517.19 837.7 519.64 851.62 487.9 837.48 489.72 859.02 440.1 837.45 443.16 849.27 419.05 833.34 421.34 848.19 400 799.36 437.83 812.29 436.67 752.99 496.56 772.2 494.55 713.05 552.61 736.46 550.12"/>
    <g>
      <polygon class="cls-3" points="836.35 519.88 834.48 518.03 796.75 523.17 804.61 504.02 802.74 502.17 793.96 523.55 793.96 523.55 793.96 523.55 784.26 547.17 751.93 551.59 753.8 553.44 786.13 549.02 795.83 525.4 836.35 519.88"/>
      <polygon class="cls-3" points="880.05 516.84 878.18 514.99 837.66 520.51 829.29 540.97 788.78 546.49 790.65 548.35 831.16 542.83 839.53 522.36 880.05 516.84"/>
      <polygon class="cls-3" points="918.09 493.62 914.94 501.15 897.91 511.88 894.9 519.14 872.59 522.18 866.88 535.85 835.2 540.17 837.07 542.02 868.75 537.7 874.46 524.03 896.77 520.99 899.78 513.73 916.8 503 919.96 495.47 918.09 493.62"/>
      <polygon class="cls-3" points="892.33 490.33 890.46 488.48 886.44 497.93 888.31 499.78 892.33 490.33"/>
      <polygon class="cls-3" points="784.94 534.74 783.08 532.89 750.74 537.31 752.61 539.16 784.94 534.74"/>
      <polygon class="cls-3" points="780.07 525.44 747.74 529.85 749.61 531.7 781.94 527.29 780.07 525.44"/>
    </g>
    <path class="cls-2" d="M886.44,497.93l4.02-9.45-23.15,3.08-1.81,4.26-23.24,3.3-1.02,2.16-16.04,2.11h0s-17.61,2.33-17.61,2.33l.02-.04-6.67.91,1.81-4.42-20.05,2.74h0s-19.7,2.68-19.7,2.68l-1.82,4.41-6.46.88-6.97,16.96,6.44-.88-3.44,8.33,7.38-1.01-6.2,15.28,32.34-4.42,9.7-23.62,2.65-.36h0s2.39-.33,2.39-.33l1.61-.22h0s17.84-2.47,17.84-2.47l-2.66,6.63-20.04,2.73-6.97,16.96,40.51-5.52,8.37-20.47,8.89-1.21-1.63,3.98-2.95.41-6.77,16.49,31.69-4.32,5.71-13.67,22.31-3.04,3.01-7.26,17.03-10.74,3.15-7.53-31.65,4.31Z"/>
    <g>
      <polygon class="cls-1" points="889.83 501.33 886.83 508.68 877.51 510 873.88 518.58 893.22 515.94 896.23 508.68 913.22 497.95 913.22 497.95 889.83 501.33"/>
      <g>
        <polygon class="cls-1" points="821.06 516.34 824.9 507.09 806.47 509.52 802.36 518.89 821.06 516.34"/>
        <polygon class="cls-1" points="828.55 506.6 819.16 530.01 799.1 532.75 795.22 542.19 827.56 537.78 840.98 504.97 828.55 506.6"/>
        <polygon class="cls-1" points="802.77 510 796.11 510.91 797.92 506.5 785.49 508.2 783.68 512.61 776.05 513.65 777.87 509.24 766.34 510.81 764.52 515.22 758.06 516.1 754.18 525.55 760.62 524.67 757.19 533 768.72 531.43 772.15 523.1 779.8 522.06 773.98 536.24 762.16 537.85 758.33 547.28 782.54 543.98 792.24 520.35 798.89 519.45 802.77 510"/>
        <polygon class="cls-1" points="864.45 505.29 867 499.29 845.04 502.38 839.08 516.86 848.36 515.63 850.43 510.58 864.31 508.58 862.76 512.59 853.44 513.86 850.07 522.11 859.34 520.85 857.34 525.26 845.68 526.85 845.32 526.89 841.64 535.86 865.17 532.66 877.34 503.53 864.45 505.29"/>
        <polygon class="cls-1" points="873.87 502.21 877.4 493.9 870.63 494.79 867.1 503.09 873.87 502.21"/>
        <polygon class="cls-1" points="882.04 501.09 885.57 492.79 878.8 493.67 875.26 501.98 882.04 501.09"/>
      </g>
    </g>
    <g>
      <polygon class="cls-4" points="889.32 500.18 886.27 507.53 876.72 508.85 873.09 517.43 892.43 514.8 895.44 507.54 912.43 496.81 912.43 496.81 889.32 500.18"/>
      <g>
        <polygon class="cls-4" points="820.27 515.2 824.11 505.95 805.68 508.38 801.85 517.75 820.27 515.2"/>
        <polygon class="cls-4" points="827.76 505.46 818.37 528.87 798.31 531.6 794.43 541.04 826.77 536.64 840.19 503.82 827.76 505.46"/>
        <polygon class="cls-4" points="801.99 508.86 795.32 509.77 797.14 505.35 784.7 507.06 782.89 511.47 775.26 512.51 777.08 508.09 765.55 509.66 763.73 514.08 757.27 514.96 753.39 524.4 759.83 523.52 756.4 531.85 767.93 530.28 771.36 521.95 779.01 520.91 773.19 535.09 761.37 536.7 757.54 546.14 781.75 542.83 791.45 519.21 798.1 518.3 801.99 508.86"/>
        <polygon class="cls-4" points="863.66 504.14 866.21 498.14 844.19 501.24 838.29 515.72 847.57 514.48 849.64 509.43 863.52 507.43 861.97 511.45 852.65 512.71 849.28 520.97 858.55 519.7 856.55 524.11 844.89 525.7 844.53 525.75 840.85 534.72 864.38 531.51 876.55 502.39 863.66 504.14"/>
        <line class="cls-4" x1="864.38" y1="531.51" x2="876.55" y2="502.39"/>
        <line class="cls-4" x1="864.38" y1="531.51" x2="876.55" y2="502.39"/>
        <polygon class="cls-4" points="873.08 501.06 876.61 492.75 869.84 493.64 866.31 501.95 873.08 501.06"/>
        <polygon class="cls-4" points="881.25 499.95 884.78 491.64 878.01 492.53 874.48 500.84 881.25 499.95"/>
      </g>
    </g>
    <g>
      <polygon class="cls-1" points="703.32 532.79 704.45 534.04 762.35 501.72 761.22 500.47 703.32 532.79"/>
      <polygon class="cls-1" points="761.22 500.47 762.35 501.72 785.44 448.85 784.31 447.6 761.22 500.47"/>
      <polygon class="cls-1" points="815.09 464.3 816.22 465.55 822.35 450.77 821.22 449.52 815.09 464.3"/>
      <polygon class="cls-1" points="744.25 481.39 745.38 482.64 702.26 488.39 701.13 487.14 744.25 481.39"/>
      <polygon class="cls-1" points="797.51 496.54 798.64 497.79 815.12 479.93 813.74 478.95 797.51 496.54"/>
      <polygon class="cls-1" points="797.51 496.54 798.64 497.79 769.55 501.63 768.42 500.38 797.51 496.54"/>
      <polygon class="cls-1" points="796.97 481.37 798.1 482.62 769.02 486.46 767.89 485.21 796.97 481.37"/>
      <polygon class="cls-1" points="842.82 475.11 843.95 476.36 814.87 480.2 813.74 478.95 842.82 475.11"/>
      <polygon class="cls-1" points="843.08 490.37 844.21 491.62 815.66 495.39 814.52 494.14 843.08 490.37"/>
      <polygon class="cls-1" points="886.33 485 887.46 486.25 854.87 490.55 853.74 489.3 886.33 485"/>
      <polygon class="cls-1" points="886.33 485 887.46 486.25 905.1 442.45 903.97 441.2 886.33 485"/>
      <polygon class="cls-1" points="880.11 444.3 881.24 445.55 882.98 441.35 881.85 440.1 880.11 444.3"/>
      <polygon class="cls-1" points="843.08 490.37 844.21 491.62 853.42 471.51 852.29 470.26 843.08 490.37"/>
      <polygon class="cls-1" points="870.11 467.83 871.24 469.08 853.42 471.51 852.29 470.26 870.11 467.83"/>
      <polygon class="cls-1" points="870.11 467.83 871.24 469.08 873.83 463.14 872.7 461.89 870.11 467.83"/>
      <polygon class="cls-1" points="876.29 461.43 877.42 462.68 873.83 463.14 872.7 461.89 876.29 461.43"/>
    </g>
    <g>
      <polygon class="cls-3" points="702.19 531.54 703.32 532.79 761.22 500.47 760.09 499.22 702.19 531.54"/>
      <polygon class="cls-3" points="760.09 499.22 761.22 500.47 784.31 447.6 783.18 446.35 760.09 499.22"/>
      <polygon class="cls-3" points="813.96 463.05 815.09 464.3 821.22 449.52 820.09 448.27 813.96 463.05"/>
      <polygon class="cls-3" points="743.12 480.14 744.25 481.39 701.13 487.14 700 485.89 743.12 480.14"/>
      <polygon class="cls-3" points="796.38 495.29 797.51 496.54 813.99 478.68 812.61 477.7 796.38 495.29"/>
      <polygon class="cls-3" points="796.38 495.29 797.51 496.54 768.42 500.38 767.29 499.13 796.38 495.29"/>
      <polygon class="cls-3" points="795.84 480.12 796.97 481.37 767.89 485.21 766.76 483.96 795.84 480.12"/>
      <polygon class="cls-3" points="841.69 473.86 842.82 475.11 813.74 478.95 812.61 477.7 841.69 473.86"/>
      <polygon class="cls-3" points="841.95 489.12 843.08 490.37 814.52 494.14 813.39 492.89 841.95 489.12"/>
      <polygon class="cls-3" points="885.2 483.75 886.33 485 853.74 489.3 852.6 488.05 885.2 483.75"/>
      <polygon class="cls-3" points="885.2 483.75 886.33 485 903.97 441.2 902.83 439.95 885.2 483.75"/>
      <polygon class="cls-3" points="878.98 443.05 880.11 444.3 881.85 440.1 880.72 438.85 878.98 443.05"/>
      <polygon class="cls-3" points="846.42 452.79 847.55 454.04 846.57 456.43 845.44 455.18 846.42 452.79"/>
      <polygon class="cls-3" points="841.95 489.12 843.08 490.37 852.29 470.26 851.16 469.01 841.95 489.12"/>
      <polygon class="cls-3" points="868.98 466.58 870.11 467.83 852.29 470.26 851.16 469.01 868.98 466.58"/>
      <polygon class="cls-3" points="868.98 466.58 870.11 467.83 872.7 461.89 871.57 460.64 868.98 466.58"/>
      <polygon class="cls-3" points="875.16 460.19 876.29 461.43 872.7 461.89 871.57 460.64 875.16 460.19"/>
    </g>
    <polygon class="cls-3" points="878.98 443.05 880.72 438.85 859.93 441.68 854.87 453.61 845.44 455.18 846.42 452.79 828.52 455.16 828.52 455.16 816.87 456.71 815.36 460.35 815.08 460.39 820.09 448.27 780.12 453.54 783.18 446.35 752.21 450.48 749.95 455.78 710.27 461.09 700 485.89 743.12 480.14 741.12 484.7 714.64 498.55 702.19 531.54 760.09 499.22 766.76 483.96 773.36 483.08 767.29 499.13 796.38 495.29 812.61 477.7 818.85 476.87 813.39 492.89 841.95 489.12 851.16 469.01 868.98 466.58 871.57 460.64 875.16 460.18 872.16 467.39 859.67 469.03 852.6 488.05 885.2 483.75 902.83 439.95 878.98 443.05"/>
    <rect class="cls-3" x="864.84" y="458.49" width="15.53" height="15.53"/>
    <g>
      <polygon class="cls-1" points="744.83 468.49 748.94 458.89 712.61 463.75 705.91 479.92 749.19 474.14 743.76 486.58 743.64 486.64 717.37 500.38 709.37 521.59 756.35 495.36 768.06 465.42 744.83 468.49"/>
      <polygon class="cls-1" points="758.78 463.62 763.77 451.89 754.52 453.14 749.53 464.86 758.78 463.62"/>
      <polygon class="cls-1" points="771.19 461.98 776.18 450.26 766.93 451.5 761.94 463.23 771.19 461.98"/>
      <polygon class="cls-1" points="872.06 446.92 873.79 442.76 862.25 444.34 854.14 463.42 865.68 461.85 868.28 455.89 881.07 454.25 874.5 470.05 862.11 471.68 858.23 482.13 881.83 479.01 896 443.81 872.06 446.92"/>
      <polygon class="cls-1" points="812.9 463.64 770.7 469.07 766.6 478.8 795.26 474.98 789.49 481.35 776.81 483.01 772.96 493.2 793.9 490.44 808.86 474.22 812.9 463.64"/>
      <polygon class="cls-1" points="819.2 459.37 813.82 472.36 822.52 471.2 827.87 458.22 819.2 459.37"/>
      <polygon class="cls-1" points="834.17 469.66 839.52 456.67 830.85 457.82 825.47 470.81 834.17 469.66"/>
      <polygon class="cls-1" points="822.3 476.78 818.82 486.99 838.71 484.37 851.15 457.2 842.03 458.72 834.12 475.21 822.3 476.78"/>
      <polygon class="cls-1" points="809.86 460.19 813.18 452.15 778.08 456.78 774.66 464.83 809.86 460.19"/>
    </g>
  </g>
</svg>