<?xml version="1.0" encoding="UTF-8"?>
<svg id="_レイヤー_1" data-name="レイヤー 1" xmlns="http://www.w3.org/2000/svg" xmlns:xlink="http://www.w3.org/1999/xlink" viewBox="0 0 960 540">
  <defs>
    <style>
      .cls-1 {
        fill: #fff;
      }

      .cls-2 {
        fill: url(#_名称未設定グラデーション_40);
      }
    </style>
    <radialGradient id="_名称未設定グラデーション_40" data-name="名称未設定グラデーション 40" cx="480" cy="270" fx="480" fy="270" r="389.42" gradientUnits="userSpaceOnUse">
      <stop offset="0" stop-color="#606060"/>
      <stop offset="1" stop-color="#222"/>
    </radialGradient>
  </defs>
  <rect class="cls-2" width="960" height="540"/>
  <g>
    <path class="cls-1" d="M162.49,313.01l-16.99,3-2-11.35c-.58-3.3-1.13-5.33-1.63-6.08-.51-.76-1.38-1.03-2.62-.81-1.4.25-2.2.9-2.4,1.96-.2,1.06-.01,3.25.57,6.56l5.35,30.34c.56,3.17,1.11,5.21,1.66,6.11.55.9,1.48,1.24,2.8,1.01,1.26-.22,2.01-.86,2.22-1.89.22-1.04.01-3.35-.62-6.94l-1.45-8.21,16.99-3,.45,2.54c1.19,6.76,1.56,11.64,1.1,14.64-.46,3-2.13,5.85-5.02,8.55-2.89,2.7-6.73,4.48-11.52,5.32-4.98.88-9.24.7-12.78-.53-3.55-1.23-6.12-3.35-7.73-6.35s-2.98-7.71-4.11-14.11l-3.37-19.08c-.83-4.7-1.29-8.26-1.38-10.67-.09-2.41.47-4.85,1.69-7.31,1.22-2.46,3.13-4.57,5.75-6.32,2.62-1.75,5.77-2.95,9.45-3.6,5-.88,9.3-.64,12.9.72,3.6,1.36,6.16,3.39,7.69,6.1,1.53,2.71,2.83,7.11,3.91,13.21l1.09,6.2Z"/>
    <path class="cls-1" d="M225.13,312.08c1.16,6.56,1.82,11.24,1.99,14.02.17,2.79-.36,5.45-1.59,8-1.23,2.55-3.12,4.67-5.68,6.37-2.56,1.7-5.68,2.87-9.36,3.52-3.5.62-6.74.6-9.72-.05-2.99-.65-5.53-1.97-7.63-3.96-2.1-1.99-3.54-4.3-4.34-6.93-.8-2.63-1.79-7.31-2.97-14.04l-1.97-11.18c-1.16-6.56-1.82-11.24-1.99-14.02-.17-2.79.35-5.45,1.58-8,1.23-2.55,3.12-4.67,5.68-6.37,2.56-1.7,5.68-2.87,9.36-3.52,3.5-.62,6.74-.6,9.72.05,2.98.65,5.53,1.97,7.62,3.96,2.1,1.99,3.55,4.3,4.34,6.93.8,2.63,1.79,7.31,2.97,14.04l1.97,11.18ZM204.35,293.61c-.54-3.04-1.05-4.95-1.53-5.74-.49-.79-1.25-1.09-2.3-.9-.89.16-1.5.62-1.86,1.39-.35.77-.23,2.84.36,6.2l5.38,30.5c.67,3.79,1.24,6.1,1.7,6.94.47.83,1.26,1.15,2.39.95,1.15-.2,1.81-.85,1.95-1.92.14-1.08-.13-3.54-.8-7.39l-5.29-30.02Z"/>
    <path class="cls-1" d="M292.94,260.68l11.52,65.32-14.85,2.62-7.8-44.1,1.87,45.14-10.53,1.86-13.83-41.99,7.58,43.09-14.85,2.62-11.52-65.32,21.98-3.88c1.34,3.81,2.83,8.32,4.46,13.53l5.34,16.19-1.47-31.19,22.1-3.9Z"/>
    <path class="cls-1" d="M332.49,253.71l11.52,65.32-16.99,3-11.52-65.32,16.99-3Z"/>
    <path class="cls-1" d="M392.96,243.05l11.52,65.32-14.89,2.62-14.07-28.14,5.24,29.7-14.2,2.51-11.52-65.32,14.2-2.51,14.71,27.73-5.19-29.41,14.2-2.5Z"/>
    <path class="cls-1" d="M458.8,256.23l-16.99,3-1.05-5.93c-.66-3.74-1.23-6.05-1.72-6.93s-1.34-1.22-2.55-1.01c-1.05.18-1.69.72-1.93,1.59-.23.87-.06,2.98.53,6.31l5.53,31.35c.52,2.93,1.04,4.83,1.59,5.69s1.38,1.19,2.5.99c1.24-.22,1.99-.89,2.25-2.02.26-1.13.12-3.21-.42-6.25l-1.37-7.75-3.43.61-1.75-9.92,19.89-3.51,6.18,35.06-10.67,1.88-2.4-4.4c-.8,2.22-1.99,3.99-3.58,5.31-1.59,1.32-3.58,2.19-5.97,2.61-2.85.5-5.65.28-8.38-.66-2.74-.95-4.93-2.33-6.58-4.14-1.66-1.82-2.84-3.82-3.56-6.01s-1.47-5.53-2.27-10.02l-3.42-19.41c-1.1-6.24-1.56-10.83-1.39-13.78s1.65-5.87,4.42-8.79,6.69-4.82,11.74-5.71c4.98-.88,9.28-.58,12.93.88s6.21,3.52,7.7,6.15c1.49,2.63,2.71,6.63,3.65,11.98l.5,2.82Z"/>
    <path class="cls-1" d="M548.23,236.05l-15.77,2.78-.85-4.84c-.4-2.26-.85-3.66-1.37-4.21-.51-.55-1.24-.74-2.18-.57-1.02.18-1.72.73-2.1,1.66s-.42,2.24-.12,3.93c.38,2.18.97,3.77,1.75,4.77.76,1,2.59,2.05,5.5,3.15,8.35,3.15,13.76,6,16.23,8.53,2.47,2.53,4.27,7,5.4,13.4.82,4.65.88,8.18.18,10.58-.7,2.4-2.48,4.62-5.34,6.66-2.86,2.04-6.36,3.43-10.5,4.16-4.55.8-8.58.62-12.1-.53-3.52-1.15-6.01-2.98-7.47-5.46-1.47-2.49-2.63-6.18-3.49-11.07l-.75-4.27,15.78-2.78,1.4,7.95c.43,2.45.93,3.98,1.5,4.6.57.62,1.42.84,2.54.63,1.13-.2,1.89-.79,2.29-1.78.39-.99.44-2.35.13-4.1-.68-3.85-1.65-6.27-2.9-7.27-1.29-.99-4.28-2.5-8.99-4.53-4.72-2.05-7.87-3.59-9.47-4.61-1.59-1.02-3.04-2.57-4.33-4.64-1.3-2.07-2.25-4.85-2.86-8.32-.88-5-.89-8.77-.02-11.31.87-2.54,2.62-4.71,5.24-6.52,2.62-1.81,5.95-3.07,9.98-3.78,4.41-.78,8.3-.73,11.66.15,3.36.88,5.73,2.31,7.12,4.3,1.39,1.99,2.54,5.58,3.46,10.77l.46,2.58Z"/>
    <path class="cls-1" d="M613.46,243.6c1.16,6.56,1.82,11.24,2,14.02.17,2.78-.36,5.45-1.59,8s-3.12,4.67-5.68,6.37c-2.56,1.7-5.68,2.87-9.36,3.52-3.5.62-6.74.6-9.72-.05-2.98-.65-5.52-1.97-7.62-3.96-2.1-1.99-3.55-4.3-4.34-6.93-.8-2.63-1.79-7.31-2.97-14.04l-1.97-11.18c-1.16-6.56-1.82-11.24-1.99-14.02-.17-2.79.35-5.45,1.58-8s3.12-4.67,5.68-6.37c2.56-1.7,5.68-2.87,9.36-3.52,3.5-.62,6.74-.6,9.72.05,2.99.65,5.53,1.97,7.63,3.96,2.1,1.99,3.55,4.3,4.34,6.93.8,2.63,1.79,7.31,2.97,14.04l1.97,11.18ZM592.68,225.14c-.54-3.04-1.05-4.96-1.53-5.74-.49-.79-1.25-1.09-2.3-.9-.89.16-1.51.62-1.86,1.39-.35.77-.23,2.84.36,6.2l5.38,30.5c.67,3.79,1.24,6.1,1.7,6.94.46.83,1.26,1.15,2.39.95,1.15-.2,1.81-.84,1.95-1.92.14-1.08-.13-3.54-.8-7.39l-5.29-30.02Z"/>
    <path class="cls-1" d="M674.5,232.84c1.16,6.56,1.82,11.24,1.99,14.02.17,2.78-.36,5.45-1.59,8s-3.12,4.67-5.68,6.37c-2.56,1.7-5.68,2.87-9.36,3.52-3.5.62-6.74.6-9.72-.05-2.99-.65-5.53-1.97-7.63-3.96-2.1-1.99-3.54-4.3-4.34-6.93-.8-2.63-1.79-7.31-2.97-14.04l-1.97-11.18c-1.16-6.56-1.82-11.24-1.99-14.02-.17-2.79.36-5.45,1.58-8,1.23-2.55,3.12-4.67,5.68-6.37,2.56-1.7,5.68-2.87,9.36-3.52,3.5-.62,6.74-.6,9.72.05,2.98.65,5.53,1.97,7.62,3.96,2.1,1.99,3.55,4.3,4.34,6.93.79,2.63,1.79,7.31,2.97,14.04l1.97,11.18ZM653.72,214.37c-.54-3.04-1.05-4.95-1.53-5.74-.49-.79-1.26-1.09-2.3-.9-.89.16-1.5.62-1.86,1.39-.35.77-.23,2.84.37,6.2l5.38,30.5c.67,3.79,1.23,6.1,1.7,6.94s1.26,1.15,2.4.95c1.16-.2,1.8-.85,1.95-1.92.14-1.08-.13-3.54-.8-7.39l-5.29-30.02Z"/>
    <path class="cls-1" d="M727.83,184l11.52,65.32-14.89,2.63-14.07-28.14,5.24,29.7-14.2,2.5-11.52-65.32,14.2-2.5,14.71,27.73-5.19-29.41,14.2-2.51Z"/>
    <path class="cls-1" d="M770.93,230.02l2.35,13.31-12.31,2.17-2.35-13.31,12.31-2.17Z"/>
    <path class="cls-1" d="M804.29,224.14l2.35,13.31-12.3,2.17-2.35-13.31,12.3-2.17Z"/>
    <path class="cls-1" d="M837.65,218.26l2.35,13.31-12.3,2.17-2.35-13.31,12.3-2.17Z"/>
  </g>
</svg>