<?xml version="1.0" encoding="UTF-8"?>
<svg id="_レイヤー_1" data-name="レイヤー 1" xmlns="http://www.w3.org/2000/svg" viewBox="0 0 220 190">
  <defs>
    <style>
      .cls-1 {
        fill: #fff;
      }

      .cls-2 {
        fill: #ffe300;
      }

      .cls-3 {
        fill: #e50012;
      }
    </style>
  </defs>
  <polygon class="cls-2" points="36.47 150.15 2.91 189.17 130.31 173.81 160.18 117.22 137.73 119.67 151.65 87.92 137.51 89.74 159.05 40.11 137.47 43.17 149.3 19.06 133.37 21.34 148.22 0 99.38 37.84 112.31 36.68 53 96.58 72.21 94.56 13.05 152.64 36.47 150.15"/>
  <g>
    <polygon points="136.37 119.9 134.5 118.05 96.77 123.19 104.63 104.04 102.76 102.19 93.98 123.57 93.98 123.57 93.98 123.57 84.28 147.2 51.94 151.62 53.81 153.47 86.15 149.05 95.85 125.42 136.37 119.9"/>
    <polygon points="180.08 116.86 178.21 115.01 137.69 120.53 129.32 141 88.79 146.52 90.66 148.38 131.19 142.85 139.56 122.38 180.08 116.86"/>
    <polygon points="218.13 93.64 214.98 101.17 197.95 111.9 194.94 119.17 172.63 122.21 166.92 135.88 135.22 140.2 137.09 142.05 168.79 137.73 174.5 124.06 196.81 121.02 199.82 113.75 216.85 103.02 220 95.49 218.13 93.64"/>
    <polygon points="192.36 90.35 190.49 88.5 186.48 97.95 188.35 99.8 192.36 90.35"/>
    <polygon points="84.96 134.77 83.09 132.92 50.75 137.33 52.62 139.18 84.96 134.77"/>
    <polygon points="80.09 125.46 47.75 129.88 49.62 131.73 81.96 127.31 80.09 125.46"/>
  </g>
  <path class="cls-2" d="M186.48,97.95l4.02-9.45-23.15,3.08-1.81,4.26-23.24,3.3-1.02,2.16-16.05,2.11h0s-17.61,2.33-17.61,2.33l.02-.04-6.67.91,1.82-4.42-20.05,2.75h0s-19.7,2.68-19.7,2.68l-1.82,4.42-6.46.88-6.98,16.97,6.44-.88-3.44,8.33,7.39-1.01-6.2,15.29,32.34-4.42,9.7-23.63,2.65-.36h0s2.39-.33,2.39-.33l1.61-.22h0s17.84-2.48,17.84-2.48l-2.66,6.64-20.05,2.73-6.98,16.97,40.52-5.52,8.38-20.47,8.89-1.21-1.63,3.98-2.96.41-6.78,16.49,31.69-4.32,5.71-13.67,22.31-3.04,3.01-7.26,17.03-10.74,3.15-7.53-31.65,4.31Z"/>
  <g>
    <polygon class="cls-1" points="189.87 101.35 186.87 108.7 177.54 110.02 173.92 118.6 193.26 115.97 196.27 108.7 213.27 97.97 213.27 97.97 189.87 101.35"/>
    <g>
      <polygon class="cls-1" points="121.09 116.37 124.92 107.11 106.49 109.55 102.38 118.92 121.09 116.37"/>
      <polygon class="cls-1" points="128.58 106.62 119.18 130.04 99.12 132.77 95.24 142.22 127.59 137.81 141.01 104.99 128.58 106.62"/>
      <polygon class="cls-1" points="102.8 110.03 96.13 110.93 97.94 106.52 85.51 108.22 83.69 112.64 76.06 113.68 77.88 109.26 66.35 110.83 64.53 115.25 58.07 116.13 54.19 125.57 60.63 124.69 57.2 133.03 68.73 131.46 72.17 123.12 79.82 122.08 73.99 136.26 62.17 137.87 58.35 147.31 82.55 144.01 92.25 120.38 98.91 119.47 102.8 110.03"/>
      <polygon class="cls-1" points="164.48 105.31 167.03 99.31 145.06 102.4 139.11 116.88 148.39 115.65 150.46 110.6 164.34 108.6 162.79 112.61 153.47 113.88 150.1 122.14 159.37 120.87 157.37 125.28 145.71 126.87 145.35 126.92 141.66 135.89 165.2 132.68 177.37 103.55 164.48 105.31"/>
      <polygon class="cls-1" points="173.9 102.23 177.44 93.92 170.66 94.81 167.13 103.11 173.9 102.23"/>
      <polygon class="cls-1" points="182.07 101.11 185.61 92.81 178.83 93.69 175.3 102 182.07 101.11"/>
    </g>
  </g>
  <g>
    <polygon class="cls-3" points="189.36 100.2 186.31 107.55 176.76 108.87 173.13 117.46 192.47 114.82 195.48 107.56 212.48 96.82 212.48 96.82 189.36 100.2"/>
    <g>
      <polygon class="cls-3" points="120.3 115.22 124.14 105.97 105.7 108.4 101.87 117.77 120.3 115.22"/>
      <polygon class="cls-3" points="127.79 105.48 118.39 128.89 98.33 131.63 94.45 141.07 126.8 136.66 140.22 103.84 127.79 105.48"/>
      <polygon class="cls-3" points="102.01 108.88 95.34 109.79 97.16 105.37 84.72 107.08 82.9 111.49 75.27 112.53 77.09 108.11 65.56 109.69 63.74 114.1 57.28 114.98 53.4 124.43 59.85 123.55 56.41 131.88 67.94 130.31 71.38 121.98 79.03 120.93 73.2 135.12 61.38 136.73 57.56 146.17 81.76 142.86 91.46 119.23 98.12 118.33 102.01 108.88"/>
      <polygon class="cls-3" points="163.69 104.16 166.25 98.16 144.22 101.26 138.32 115.74 147.6 114.5 149.67 109.46 163.56 107.45 162 111.47 152.68 112.74 149.31 120.99 158.58 119.73 156.58 124.14 144.92 125.72 144.56 125.77 140.88 134.75 164.41 131.54 176.58 102.41 163.69 104.16"/>
      <line class="cls-3" x1="164.41" y1="131.54" x2="176.58" y2="102.41"/>
      <line class="cls-3" x1="164.41" y1="131.54" x2="176.58" y2="102.41"/>
      <polygon class="cls-3" points="173.11 101.08 176.65 92.77 169.87 93.66 166.34 101.97 173.11 101.08"/>
      <polygon class="cls-3" points="181.28 99.97 184.82 91.66 178.04 92.55 174.51 100.86 181.28 99.97"/>
    </g>
  </g>
  <g>
    <polygon class="cls-1" points="3.32 132.82 4.45 134.07 62.37 101.74 61.23 100.49 3.32 132.82"/>
    <polygon class="cls-1" points="61.23 100.49 62.37 101.74 85.46 48.86 84.33 47.61 61.23 100.49"/>
    <polygon class="cls-1" points="115.11 64.31 116.24 65.56 122.37 50.78 121.24 49.53 115.11 64.31"/>
    <polygon class="cls-1" points="44.26 81.4 45.39 82.65 2.26 88.41 1.13 87.16 44.26 81.4"/>
    <polygon class="cls-1" points="97.53 96.56 98.66 97.81 115.14 79.95 113.76 78.96 97.53 96.56"/>
    <polygon class="cls-1" points="97.53 96.56 98.66 97.81 69.57 101.65 68.44 100.4 97.53 96.56"/>
    <polygon class="cls-1" points="96.99 81.39 98.12 82.64 69.03 86.48 67.9 85.23 96.99 81.39"/>
    <polygon class="cls-1" points="142.85 75.13 143.98 76.38 114.89 80.21 113.76 78.96 142.85 75.13"/>
    <polygon class="cls-1" points="143.11 90.39 144.24 91.64 115.68 95.41 114.55 94.16 143.11 90.39"/>
    <polygon class="cls-1" points="186.37 85.02 187.5 86.27 154.9 90.57 153.77 89.32 186.37 85.02"/>
    <polygon class="cls-1" points="186.37 85.02 187.5 86.27 205.14 42.46 204.01 41.21 186.37 85.02"/>
    <polygon class="cls-1" points="180.14 44.31 181.27 45.56 183.02 41.36 181.89 40.11 180.14 44.31"/>
    <polygon class="cls-1" points="143.11 90.39 144.24 91.64 153.45 71.53 152.32 70.28 143.11 90.39"/>
    <polygon class="cls-1" points="170.15 67.85 171.28 69.1 153.45 71.53 152.32 70.28 170.15 67.85"/>
    <polygon class="cls-1" points="170.15 67.85 171.28 69.1 173.87 63.16 172.74 61.91 170.15 67.85"/>
    <polygon class="cls-1" points="176.32 61.45 177.45 62.7 173.87 63.16 172.74 61.91 176.32 61.45"/>
  </g>
  <g>
    <polygon points="2.19 131.57 3.32 132.82 61.23 100.49 60.1 99.24 2.19 131.57"/>
    <polygon points="60.1 99.24 61.23 100.49 84.33 47.61 83.2 46.36 60.1 99.24"/>
    <polygon points="113.98 63.06 115.11 64.31 121.24 49.53 120.11 48.28 113.98 63.06"/>
    <polygon points="43.13 80.15 44.26 81.4 1.13 87.16 0 85.91 43.13 80.15"/>
    <polygon points="96.4 95.31 97.53 96.56 114.01 78.7 112.63 77.72 96.4 95.31"/>
    <polygon points="96.4 95.31 97.53 96.56 68.44 100.4 67.31 99.15 96.4 95.31"/>
    <polygon points="95.86 80.14 96.99 81.39 67.9 85.23 66.77 83.98 95.86 80.14"/>
    <polygon points="141.72 73.88 142.85 75.13 113.76 78.96 112.63 77.72 141.72 73.88"/>
    <polygon points="141.98 89.14 143.11 90.39 114.55 94.16 113.42 92.91 141.98 89.14"/>
    <polygon points="185.23 83.77 186.37 85.02 153.77 89.32 152.64 88.07 185.23 83.77"/>
    <polygon points="185.23 83.77 186.37 85.02 204.01 41.21 202.87 39.96 185.23 83.77"/>
    <polygon points="179.01 43.06 180.14 44.31 181.89 40.11 180.76 38.86 179.01 43.06"/>
    <polygon points="146.45 52.8 147.58 54.05 146.6 56.44 145.47 55.19 146.45 52.8"/>
    <polygon points="141.98 89.14 143.11 90.39 152.32 70.28 151.19 69.03 141.98 89.14"/>
    <polygon points="169.02 66.6 170.15 67.85 152.32 70.28 151.19 69.03 169.02 66.6"/>
    <polygon points="169.02 66.6 170.15 67.85 172.74 61.91 171.61 60.66 169.02 66.6"/>
    <polygon points="175.19 60.2 176.32 61.45 172.74 61.91 171.61 60.66 175.19 60.2"/>
  </g>
  <polygon points="179.01 43.06 180.76 38.86 159.96 41.69 154.9 53.62 145.47 55.19 146.45 52.8 128.54 55.17 128.54 55.18 116.89 56.72 115.38 60.36 115.1 60.4 120.11 48.28 80.13 53.55 83.2 46.36 52.22 50.49 49.96 55.79 10.27 61.11 0 85.91 43.13 80.15 41.13 84.72 14.64 98.57 2.19 131.57 60.1 99.24 66.77 83.98 73.37 83.1 67.31 99.15 96.4 95.31 112.63 77.72 118.88 76.89 113.42 92.91 141.98 89.14 151.19 69.03 169.02 66.6 171.61 60.66 175.19 60.2 172.2 67.4 159.7 69.05 152.64 88.07 185.23 83.77 202.87 39.96 179.01 43.06"/>
  <rect x="164.87" y="58.5" width="15.53" height="15.53"/>
  <g>
    <polygon class="cls-1" points="44.84 68.5 48.95 58.9 12.61 63.76 5.91 79.93 49.2 74.16 43.76 86.6 43.65 86.66 17.37 100.4 9.37 121.61 56.37 95.38 68.07 65.44 44.84 68.5"/>
    <polygon class="cls-1" points="58.79 63.63 63.78 51.91 54.53 53.15 49.54 64.88 58.79 63.63"/>
    <polygon class="cls-1" points="71.2 62 76.19 50.27 66.95 51.51 61.96 63.24 71.2 62"/>
    <polygon class="cls-1" points="172.1 46.93 173.82 42.77 162.28 44.34 154.17 63.43 165.72 61.86 168.32 55.9 181.1 54.26 174.54 70.06 162.14 71.7 158.26 82.14 181.86 79.03 196.04 43.82 172.1 46.93"/>
    <polygon class="cls-1" points="112.92 63.65 70.71 69.08 66.61 78.81 95.28 74.99 89.5 81.36 76.82 83.03 72.97 93.22 93.92 90.46 108.88 74.24 112.92 63.65"/>
    <polygon class="cls-1" points="119.23 59.38 113.84 72.37 122.54 71.22 127.9 58.23 119.23 59.38"/>
    <polygon class="cls-1" points="134.19 69.67 139.55 56.69 130.88 57.83 125.49 70.83 134.19 69.67"/>
    <polygon class="cls-1" points="122.32 76.79 118.84 87.01 138.73 84.38 151.18 57.21 142.06 58.73 134.14 75.22 122.32 76.79"/>
    <polygon class="cls-1" points="109.88 60.2 113.2 52.16 78.1 56.79 74.67 64.85 109.88 60.2"/>
  </g>
</svg>