<?xml version="1.0" encoding="UTF-8"?>
<svg id="_レイヤー_1" data-name="レイヤー 1" xmlns="http://www.w3.org/2000/svg" viewBox="0 0 220 136">
  <defs>
    <style>
      .cls-1 {
        fill: none;
        stroke: #fff;
        stroke-miterlimit: 10;
        stroke-width: 1.39px;
      }

      .cls-2, .cls-3 {
        fill: #fff;
      }

      .cls-3, .cls-4 {
        fill-rule: evenodd;
      }

      .cls-4, .cls-5 {
        fill: #e50012;
      }
    </style>
  </defs>
  <g>
    <path class="cls-4" d="M182.35,111.24c0,13.67-32.39,24.76-72.35,24.76s-72.35-11.09-72.35-24.76,32.4-24.75,72.35-24.75c39.96,0,72.35,11.09,72.35,24.75"/>
    <path class="cls-3" d="M77.87,118.49c2.75-.37,4.53-2.99,4.95-3.68.41-.69.47-1.61.47-1.61,0,0-2.27-.22-5.75-.88-1.36-.26-.82-.79-.37-1.48.34-.51,2.3-3.07,2.85-4.06.55-.99,1.96-3.61,1.36-5.57-.3-.97-.96-1.69-3.8-2.57-2.83-.88-9.38-1.67-13.05-.17-3.85,1.58-4.83,4.82-4.83,4.82,2.39-.4,4.73.02,7,.34,1.98.28,3.65.54,4.17.65,1.19.22,1.11.83.84,1.33-.36.69-1.37,2.45-3.07,4.19-.63.64-1.17.58-1.6.53-.45-.04-3.36-.53-6.7.17-2.1.45-5.96,2.39-6.36,5.46,0,0,3.86-.57,5.66-.55,2.81.06,7.15,1.01,10.07,1.59,2.92.59,6.58,1.79,9.18,1.43"/>
    <path class="cls-3" d="M94.39,110.8c3.01.55,6.57,1.04,9.12.52,2.54-.52,3.97-3.26,4.78-5.51,0,0-1.96.12-4.43,0-1.74-.08-6.33-1.09-9.88-1.46-3.54-.37-5.92.28-7.67,1.65-1.75,1.37-2.66,2.41-2.91,4.21,2.37-1.14,4.78-.63,10.98.58"/>
    <path class="cls-3" d="M118.89,101.92c3.87.44,10.07,2.12,13.84,2.04,3.68-.06,5.66-3.4,6.2-4.77,0,0-3.15.08-5.19-.1-1.49-.13-6.26-.82-9.27-1.2-3.01-.39-5.74-.84-8.22.16-2.77,1.11-4.11,4.09-4.11,4.09,0,0,1.79-.78,6.75-.21"/>
    <path class="cls-3" d="M112.57,108.69c1.94-.1,6.84.34,8.58.87.93.28.83.56.56.95-.28.4-1.59,1.56-3.41,3.28-1.02.97-6.16,4.73-6.16,4.73,2.85.27,7.71.38,12.98-2.25,4.76-2.38,9.26-6.81,10.53-10.34,0,0-2.27.16-5.23-.17-1.84-.21-7.29-1.72-11.74-2-4.23-.29-6.33.78-7.79,2.14-1.46,1.35-2.75,3.61-2.75,3.61,0,0,2.21-.74,4.43-.84"/>
    <path class="cls-3" d="M165.08,99.96c-2.39-.5-13.3-2.1-14.91-2.1-.72-.02-1.55-.16-2.6.68-.58.46-2.66,4.76-5.3,7.12-2.97,2.67-3.63,2.97-3.63,2.97,0,0,3.65,1.52,7.36.1,4.52-1.74,7.05-5.61,7.05-5.61,0,0,3.31.61,4.15.74,1.16.18-.09,1.75-1.27,3.17-.97,1.16-5.05,4.89-8.34,7.1-2.58,1.74-6.13,3.58-6.13,3.58,0,0,6.18,2.11,13.97-.89,6.91-2.67,10.51-8.57,11.71-11.51,1.2-2.93.6-4.79-2.06-5.35"/>
    <rect class="cls-2" x="70.9" y="125.86" width="59.23" height="1.36"/>
    <path class="cls-3" d="M134.69,124.94c.22-.11.23-.19.04-.98-.13-.57-.45-1.44-.45-1.44-.09-.3-.21-.63-.21-.96,0-.79.69-1.54,1.51-1.56h.08c.81.03,1.49.78,1.49,1.56,0,.34-.12.67-.2.96,0,0-.32.87-.45,1.44-.18.8-.15.87.07.98.21.13.28.12.88-.44.43-.39,1.02-1.11,1.02-1.11.21-.22.44-.48.73-.65.68-.4,1.67-.18,2.1.5l.04.08c.39.71.08,1.68-.6,2.08-.3.18-.64.24-.94.3,0,0-.92.16-1.47.33-.79.24-.83.31-.82.56,0,.25.04.29.82.53.55.17,1.47.33,1.47.33.3.07.64.14.94.3.68.39.99,1.37.6,2.09l-.04.07c-.43.68-1.41.9-2.09.5-.3-.17-.53-.43-.74-.67,0,0-.59-.71-1.02-1.1-.6-.56-.66-.58-.87-.45h0c-.22.13-.25.2-.07.99.13.56.45,1.45.45,1.45.09.29.2.62.21.96,0,.78-.69,1.54-1.51,1.56h-.09c-.8-.03-1.49-.78-1.48-1.56,0-.35.11-.68.2-.97,0,0,.32-.87.45-1.44.19-.79.18-.88-.04-.99-.21-.13-.3-.12-.9.44-.42.39-1.02,1.1-1.02,1.1-.21.23-.43.5-.73.67-.68.39-1.68.17-2.1-.53l-.04-.07c-.38-.71-.07-1.68.61-2.07.3-.17.64-.23.94-.3,0,0,.92-.15,1.47-.33.74-.23.82-.28.83-.49v-.05c0-.25-.05-.32-.83-.55-.55-.17-1.47-.33-1.47-.33-.3-.07-.64-.14-.94-.31-.68-.39-.99-1.37-.6-2.09l.04-.06c.43-.69,1.41-.91,2.09-.51.3.17.52.43.73.67,0,0,.6.71,1.02,1.11.6.55.68.58.89.46"/>
  </g>
  <g>
    <g>
      <path class="cls-2" d="M43.61,1.06c-1.68.21-2.39.5-2.39,2.25v25.16c0,1.56-.43,3.91-1.71,5.1-1.53,1.43-4.19,1.93-6.02,1.93-1.35,0-4.22-.16-6.21-1.66-1.31-1-2.11-1.93-2.11-4.78V3.49c0-2.22-.8-2.27-2.51-2.43V.4h10.33v.66c-2.02.08-2.97.11-2.97,2.43v25.56c0,1.51,0,5.15,4.4,5.15,5.38,0,5.44-4.04,5.44-5.73V3.67c0-1.61-.37-2.51-3-2.62V.4h6.73v.66Z"/>
      <path class="cls-2" d="M67.06,26.12c0,5.76-4.92,9.38-10.82,9.38s-10.82-3.62-10.82-9.38V9.38c0-5.76,4.92-9.38,10.82-9.38s10.82,3.62,10.82,9.38v16.74ZM61.65,9.38c0-3.86-1.13-8.51-5.41-8.51s-5.41,4.65-5.41,8.51v16.74c0,3.86,1.13,8.51,5.41,8.51s5.41-4.65,5.41-8.51V9.38Z"/>
      <path class="cls-2" d="M2.54,2.83c0-1.61-1.34-1.66-2.54-1.77V.4h9.33c8.56,0,11.34,4.6,11.34,8.67v17.77c0,4.07-2.78,8.66-11.34,8.66H0v-.66c1.19-.11,2.54-.16,2.54-1.77V2.83ZM7.49,33.35c-.03.58-.06,1.24,1.9,1.24,5.26,0,5.96-5.63,5.96-8.03V9.33c0-2.4-.7-8.03-5.96-8.03-1.96,0-1.93.66-1.9,1.24v30.82Z"/>
    </g>
    <g>
      <polygon class="cls-2" points="77.45 9.49 78.76 9.49 78.76 21.69 77.45 21.69 77.45 23.36 83.12 23.36 83.12 21.69 81.95 21.69 81.95 9.49 83.12 9.49 83.12 7.83 77.45 7.83 77.45 9.49"/>
      <path class="cls-2" d="M96.01,17.1c0-1.4-.37-2.53-1.09-3.35-.77-.88-1.88-1.33-3.28-1.33-.75,0-1.45.18-2.09.55v-.31h-4.02v1.61h1.03v7.48h-1.03v1.61h5.06v-1.61h-1.03v-6.74c.58-.65,1.15-.97,1.75-.97.47,0,1.72,0,1.72,3.1v4.61h-1.03v1.61h5.05v-1.61h-1.04v-4.66Z"/>
      <path class="cls-2" d="M103.47,9.52h-1.18l-.11.35c-.24.76-.6,1.4-1.05,1.92-.52.59-1.08.87-1.69.87h-.5v1.61h1.55v6.61c0,1.1.58,1.87,1.68,2.21.47.15,1.31.24,2.54.27h.52s0-1.57,0-1.57l-.47-.03c-.85-.06-1.06-.2-1.08-.21-.03-.03-.2-.19-.2-.92v-6.36h1.75v-1.61h-1.75v-3.14Z"/>
      <path class="cls-2" d="M117.45,18.12l-.03-.54c-.09-1.52-.54-2.75-1.31-3.65-.87-1.01-2.08-1.52-3.61-1.52s-2.81.53-3.68,1.56c-.79.94-1.19,2.22-1.19,3.78,0,1.69.39,3.06,1.16,4.07.89,1.18,2.19,1.77,3.89,1.77.99,0,1.89-.21,2.69-.64.92-.49,1.57-1.19,1.93-2.08l.16-.39-1.39-.85-.23.53c-.23.52-.59.93-1.1,1.24-.52.32-1.06.47-1.66.47-1.06,0-2.46-.37-2.46-3.54,0-.04,0-.11,0-.22h6.85ZM112.48,14.06c.73,0,1.69.27,1.89,2.45h-3.74c.05-.63.18-1.15.4-1.57.32-.6.78-.88,1.44-.88Z"/>
      <path class="cls-2" d="M125.68,12.48c-.67,0-1.28.13-1.81.39v-.21h-3.99v1.61h1.03v7.48h-1.03v1.61h5.06v-1.61h-1.04l-.03-6.86c.43-.52.95-.77,1.58-.77.39,0,.97.13,1.4,1.23l.3.77,1.99-2.26-.38-.33c-.8-.7-1.84-1.05-3.08-1.05Z"/>
      <path class="cls-2" d="M141.69,17.1c0-1.4-.37-2.53-1.09-3.35-.77-.88-1.88-1.33-3.28-1.33-.75,0-1.46.18-2.09.55v-.31h-4.02v1.61h1.03v7.48h-1.03v1.61h5.06v-1.61h-1.03v-6.74c.58-.65,1.15-.97,1.75-.97.47,0,1.72,0,1.72,3.1v4.61h-1.02v1.61h5.05v-1.61h-1.03v-4.66Z"/>
      <path class="cls-2" d="M154.62,20.88v-4.31c0-1.62-.43-2.76-1.28-3.4-.7-.52-1.84-.78-3.49-.78-.6,0-1.64.18-3.16.54l-.39.09v3.06h1.55l.05-.45c.16-1.46.9-1.65,1.53-1.65,1.52,0,2.2.64,2.2,2.09,0,.14-.01.25-.03.32-.28.23-.84.52-1.99.76-1.41.28-2.27.53-2.71.77-.96.52-1.46,1.44-1.46,2.65,0,.98.32,1.75.95,2.28.57.49,1.35.74,2.31.74.77,0,1.52-.2,2.21-.58.31-.17.59-.37.85-.6.07.28.17.51.29.71l.15.23h3.62v-1.61h-1.18c-.02-.15-.04-.42-.04-.87ZM151.64,18.13v1.79c-.2.48-.53.94-1,1.38-.52.48-1,.72-1.42.72-.18,0-.39-.05-.57-.42-.14-.29-.21-.65-.21-1.08,0-.64.18-1.09.54-1.39.18-.15.58-.38,1.47-.63.48-.13.87-.25,1.2-.37Z"/>
      <path class="cls-2" d="M162.59,9.52h-1.18l-.11.35c-.24.76-.6,1.4-1.05,1.92-.52.59-1.07.87-1.69.87h-.51v1.61h1.55v6.61c0,1.1.58,1.87,1.68,2.21.47.15,1.3.24,2.54.27h.52s0-1.57,0-1.57l-.47-.03c-.86-.06-1.06-.2-1.08-.21-.03-.03-.2-.19-.2-.92v-6.36h1.75v-1.61h-1.75v-3.14Z"/>
      <path class="cls-2" d="M168.76,10.78c.15.15.32.27.52.35.2.09.42.13.64.13s.45-.04.65-.13c.19-.08.36-.2.52-.35.15-.15.27-.32.35-.52.09-.2.13-.42.13-.64s-.04-.45-.13-.65c-.08-.19-.2-.36-.36-.52-.15-.15-.32-.27-.52-.35-.4-.18-.89-.18-1.29,0-.19.09-.37.2-.52.36-.15.15-.27.32-.35.52-.09.2-.13.42-.13.65s.05.45.13.64c.08.19.2.37.36.52Z"/>
      <polygon class="cls-2" points="171.42 12.66 167.38 12.66 167.38 14.27 168.43 14.27 168.43 21.75 167.38 21.75 167.38 23.36 172.42 23.36 172.42 21.75 171.42 21.75 171.42 12.66"/>
      <path class="cls-2" d="M180.52,12.43c-3.49,0-5.33,1.93-5.33,5.58,0,4.6,2.55,5.57,4.68,5.57,1.92,0,3.33-.44,4.19-1.32.85-.87,1.28-2.3,1.28-4.25,0-4.61-2.62-5.58-4.82-5.58ZM178.18,18.06c0-1.09.15-2,.43-2.7.48-1.18,1.17-1.31,1.66-1.31s1.15.14,1.63,1.34c.3.73.45,1.64.45,2.69s-.15,1.92-.46,2.62c-.49,1.14-1.17,1.27-1.63,1.27s-1.16-.13-1.63-1.28c-.3-.7-.45-1.59-.45-2.63Z"/>
      <path class="cls-2" d="M198.57,17.1c0-1.4-.37-2.53-1.09-3.35-.77-.88-1.88-1.33-3.28-1.33-.75,0-1.46.18-2.09.55v-.31h-4.02v1.61h1.04v7.48h-1.04v1.61h5.06v-1.61h-1.03v-6.74c.57-.65,1.15-.97,1.75-.97.47,0,1.72,0,1.72,3.1v4.61h-1.03v1.61h5.05v-1.61h-1.03v-4.66Z"/>
      <path class="cls-2" d="M211.5,20.88v-4.31c0-1.62-.43-2.76-1.28-3.4-.7-.52-1.84-.78-3.49-.78-.6,0-1.63.18-3.16.54l-.39.09v3.06h1.56l.05-.45c.16-1.46.9-1.65,1.53-1.65,1.52,0,2.2.64,2.2,2.09,0,.14-.01.25-.03.32-.27.23-.84.52-1.99.76-1.41.28-2.27.53-2.7.77-.96.52-1.47,1.44-1.47,2.65,0,.98.32,1.75.95,2.28.57.49,1.35.74,2.31.74.77,0,1.52-.2,2.21-.58.31-.17.59-.37.85-.6.07.28.17.51.29.71l.15.23h3.62v-1.61h-1.17c-.02-.15-.04-.42-.04-.87ZM208.52,18.13v1.79c-.2.48-.53.94-1,1.38-.52.48-.99.72-1.42.72-.18,0-.39-.05-.57-.42-.14-.29-.22-.65-.22-1.08,0-.64.18-1.09.54-1.39.18-.15.58-.38,1.47-.63.47-.13.87-.25,1.2-.37Z"/>
      <polygon class="cls-2" points="218.97 21.75 218.97 7.83 214.94 7.83 214.94 9.43 215.98 9.43 215.98 21.75 214.94 21.75 214.94 23.36 220 23.36 220 21.75 218.97 21.75"/>
    </g>
    <g>
      <path class="cls-2" d="M185.68,28.16h-.95c-.06,0-.12.06-.12.12v3.43s-.02.04-.05.04c-.02,0-.04-.01-.05-.03l-1.46-3.45c-.03-.07-.09-.11-.18-.11h-.91c-.1,0-.13.08-.13.16v1.25c.34.6.54,1.29.54,2.03s-.2,1.43-.54,2.03v1.29c0,.06.05.12.12.12h.95c.06,0,.12-.06.12-.12v-3.42s.03-.05.05-.05c.02,0,.04,0,.05.03l1.46,3.46c.04.07.1.1.18.1h.84c.11,0,.21-.04.21-.14v-6.62c0-.07-.05-.12-.12-.12Z"/>
      <path class="cls-5" d="M181.67,31.59c0,1.9-1.54,3.44-3.44,3.44s-3.44-1.54-3.44-3.44,1.55-3.44,3.44-3.44,3.44,1.54,3.44,3.44Z"/>
      <path class="cls-2" d="M161.89,35.03h-.84c-.08,0-.14-.04-.17-.1l-1.47-3.46s-.03-.03-.05-.03c-.03,0-.05.02-.05.05v3.42c0,.06-.07.12-.12.12h-.95c-.07,0-.12-.06-.12-.12v-6.6c0-.08.03-.16.14-.16h.9c.08,0,.16.05.18.11l1.47,3.45s.04.03.05.03c.04,0,.06-.02.06-.04v-3.43c0-.07.06-.12.12-.12h.95c.08,0,.12.06.12.12v6.62c0,.1-.1.14-.2.14Z"/>
      <path class="cls-2" d="M164.22,35.03h-.95c-.07,0-.13-.05-.13-.11v-6.65c0-.07.05-.11.13-.11h.95c.07,0,.12.05.12.11v6.65c0,.07-.05.11-.12.11Z"/>
      <path class="cls-2" d="M172.16,32.52h-.75c-.06,0-.13.06-.13.11v2.29c0,.07-.05.11-.12.11h-.95c-.07,0-.12-.05-.12-.11v-6.65c0-.06.05-.11.12-.11h1.95c1.05,0,1.91.77,1.91,1.72v.93c0,.94-.86,1.72-1.91,1.72ZM172.87,29.87c0-.35-.32-.64-.71-.64h-.75c-.06,0-.13.06-.13.12v1.97c0,.06.07.12.13.12h.75c.39,0,.71-.29.71-.64v-.93Z"/>
      <path class="cls-2" d="M167.39,32.52h-.75c-.06,0-.12.06-.12.11v2.29c0,.07-.05.11-.12.11h-.95c-.07,0-.12-.05-.12-.11v-6.65c0-.06.05-.11.12-.11h1.95c1.05,0,1.92.77,1.92,1.72v.93c0,.94-.86,1.72-1.92,1.72ZM168.1,29.87c0-.35-.32-.64-.72-.64h-.75c-.06,0-.12.06-.12.12v1.97c0,.06.06.12.12.12h.75c.39,0,.72-.29.72-.64v-.93Z"/>
      <path class="cls-2" d="M194.06,35.42s-.12.04-.18,0c-.12-.11-.34-.31-.47-.43-.05-.05-.13-.07-.21-.04-.23.1-.48.15-.73.15h-.17c-1.05,0-1.91-.77-1.91-1.72v-3.56c0-.95.86-1.72,1.91-1.72h.17c1.05,0,1.91.77,1.91,1.72v3.56c0,.22-.06.45-.16.66-.03.07-.01.14.04.19.14.12.35.32.48.43.05.05.05.12,0,.16l-.67.61ZM193.17,29.82c0-.35-.32-.64-.71-.64h-.17c-.39,0-.71.29-.71.64v3.56c0,.35.32.64.71.64h.17c.39,0,.71-.29.71-.64v-3.56Z"/>
      <path class="cls-2" d="M197.53,35.12h-.16c-1.06,0-1.91-.78-1.91-1.73v-5.11c0-.07.05-.11.13-.11h.95c.07,0,.13.05.13.11v5.11c0,.35.32.64.71.64h.16c.39,0,.71-.29.71-.64v-5.11c0-.07.05-.11.12-.11h.95c.07,0,.12.05.12.11v5.11c0,.95-.86,1.73-1.91,1.73Z"/>
      <path class="cls-2" d="M203.92,35.03h-.97c-.07,0-.13-.05-.15-.11l-.17-.86c-.01-.07-.08-.11-.15-.11h-.89c-.07,0-.14.04-.15.11l-.18.86c-.02.07-.08.11-.15.11h-.97s-.1-.04-.1-.09v-.02l1.42-6.65c.01-.07.08-.12.14-.12h.88c.07,0,.13.05.14.11l1.41,6.65v.02c0,.06-.05.09-.1.09ZM202.07,31.49s-.02-.04-.06-.04c-.02,0-.04.02-.05.04-.03.16-.26,1.2-.26,1.29,0,.05.05.09.1.09h.43c.07,0,.11-.04.11-.09,0-.09-.24-1.14-.27-1.29Z"/>
      <path class="cls-2" d="M208.58,35.03h-3.74c-.07,0-.12-.05-.12-.11v-6.65c0-.07.05-.11.12-.11h.95c.06,0,.12.05.12.11v5.57c0,.05.06.11.12.11h2.54c.07,0,.13.06.13.11v.86c0,.07-.05.11-.13.11Z"/>
      <path class="cls-2" d="M210.55,35.03h-.95c-.07,0-.12-.05-.12-.11v-6.65c0-.07.06-.11.12-.11h.95c.07,0,.12.05.12.11v6.65c0,.07-.06.11-.12.11Z"/>
      <path class="cls-2" d="M215.3,29.25h-1.15c-.07,0-.12.05-.12.11v5.57c0,.07-.06.11-.13.11h-.95c-.07,0-.13-.05-.13-.11v-5.57c0-.06-.06-.11-.14-.11h-1.13c-.07,0-.12-.06-.12-.12v-.85c0-.07.05-.11.12-.11h3.74c.07,0,.12.05.12.11v.85c0,.05-.05.12-.12.12Z"/>
      <path class="cls-2" d="M218.58,31.65s-.02.07-.02.09v3.18c0,.07-.06.11-.12.11h-.95c-.07,0-.12-.05-.12-.11v-3.18s0-.07-.02-.1c-.12-.25-1.41-3.37-1.41-3.4,0-.05.04-.07.09-.07h1.02c.08,0,.16.04.18.1l.69,1.67s.03.03.05.03.04-.01.04-.03l.71-1.67c.02-.07.09-.1.16-.1h1.04c.05,0,.09.03.09.07,0,.04-1.31,3.15-1.42,3.41Z"/>
    </g>
    <rect class="cls-2" x="77.45" y="28.03" width="76.96" height=".64"/>
  </g>
  <g>
    <line class="cls-1" x1="98.34" y1="48.49" x2="121.66" y2="71.82"/>
    <line class="cls-1" x1="121.66" y1="48.49" x2="98.34" y2="71.82"/>
  </g>
</svg>