<?xml version="1.0" encoding="UTF-8"?>
<svg id="_レイヤー_1" data-name="レイヤー 1" xmlns="http://www.w3.org/2000/svg" viewBox="0 0 314 42">
  <defs>
    <style>
      .cls-1 {
        fill: #ffe300;
      }
    </style>
  </defs>
  <polygon class="cls-1" points="289.35 42 305.85 18.35 303.2 17.74 314 1.1 296.37 0 288.8 17.28 294.03 18.46 287 41.53 289.35 42"/>
  <polygon class="cls-1" points="24.65 42 8.15 18.35 10.8 17.74 0 1.1 17.63 0 25.2 17.28 19.97 18.46 27 41.53 24.65 42"/>
  <g>
    <path class="cls-1" d="M43,4.44h8.77c5.95,0,16.78,0,16.78,12.08s-10.71,12.15-16.65,12.15h-.38v8.33h-8.52V4.44ZM51.52,12.45v8.2h2.44c2.69,0,5.82,0,5.82-4.19s-3.32-4.01-5.82-4.01h-2.44Z"/>
    <path class="cls-1" d="M74.13,4.44h9.83c6.89,0,17.09,0,17.09,11.65,0,6.01-2.82,8.89-6.45,10.33l7.39,10.58h-9.7l-6.07-9.2h-3.57v9.2h-8.52V4.44ZM82.65,12.45v7.83h3.69c3.19,0,5.95,0,5.95-3.94s-2.94-3.88-5.95-3.88h-3.69Z"/>
    <path class="cls-1" d="M139.45,20.28c0,10.39-6.07,17.16-15.46,17.16s-15.34-6.45-15.34-16.4,6.14-17.03,15.65-17.03,15.15,6.39,15.15,16.28ZM130.69,20.65c0-5.13-2.5-8.39-6.51-8.39s-6.76,3.32-6.76,8.58,2.57,8.33,6.7,8.33,6.57-3.26,6.57-8.52Z"/>
    <path class="cls-1" d="M147.3,4.44h8.58c4.63,0,18.34,0,18.34,16.09s-13.02,16.47-17.91,16.47h-9.02V4.44ZM155.81,12.51v16.4h.63c4.13,0,9.02,0,9.02-8.39s-5.51-8.01-9.45-8.01h-.19Z"/>
    <path class="cls-1" d="M190.58,4.44v17.97c0,3.01,0,6.64,4.88,6.64s4.76-3.63,4.76-6.64V4.44h8.51v17.09c0,5.7,0,15.9-13.34,15.9s-13.34-10.21-13.34-15.9V4.44h8.51Z"/>
    <path class="cls-1" d="M216.58,20.97c0-9.7,7.01-16.97,16.22-16.97,3.38,0,6.45.81,8.95,2.32l-4.45,7.14c-1.19-.69-2.57-1.06-4.07-1.06-4.82,0-7.89,3.76-7.89,8.51s3.13,8.14,7.76,8.14c1.69,0,3.38-.56,4.76-1.5l4.45,7.01c-2.69,1.82-5.95,2.88-9.45,2.88-9.7,0-16.28-6.83-16.28-16.47Z"/>
    <path class="cls-1" d="M271,4.44v8.14h-7.26v24.42h-8.51V12.58h-7.26V4.44h23.04Z"/>
  </g>
</svg>