<?xml version="1.0" encoding="UTF-8"?>
<svg id="_レイヤー_1" data-name="レイヤー 1" xmlns="http://www.w3.org/2000/svg" viewBox="0 0 314 42">
  <polygon points="289.35 42 305.85 18.35 303.2 17.74 314 1.1 296.37 0 288.8 17.28 294.03 18.46 287 41.53 289.35 42"/>
  <polygon points="24.65 42 8.15 18.35 10.8 17.74 0 1.1 17.63 0 25.2 17.28 19.97 18.46 27 41.53 24.65 42"/>
  <g>
    <path d="M48,4.44h8.8c5.97,0,16.85,0,16.85,12.13s-10.75,12.2-16.72,12.2h-.38v8.36h-8.55V4.44ZM56.55,12.49v8.24h2.45c2.7,0,5.85,0,5.85-4.21s-3.33-4.02-5.85-4.02h-2.45Z"/>
    <path d="M79.26,4.44h9.87c6.92,0,17.16,0,17.16,11.69,0,6.03-2.83,8.93-6.48,10.37l7.42,10.62h-9.74l-6.1-9.24h-3.58v9.24h-8.55V4.44ZM87.81,12.49v7.86h3.71c3.21,0,5.97,0,5.97-3.96s-2.96-3.9-5.97-3.9h-3.71Z"/>
    <path d="M144.85,20.35c0,10.44-6.1,17.23-15.53,17.23s-15.4-6.48-15.4-16.47,6.16-17.1,15.72-17.1,15.21,6.41,15.21,16.35ZM136.05,20.72c0-5.15-2.51-8.42-6.54-8.42s-6.79,3.33-6.79,8.61,2.58,8.36,6.73,8.36,6.6-3.27,6.6-8.55Z"/>
    <path d="M172.21,4.44v17.54c0,5.53,0,15.59-12.01,15.59-3.33,0-6.79-1.01-9.56-2.64l3.33-7.54c1.63.94,3.71,1.76,5.47,1.76,4.15,0,4.21-3.39,4.21-6.73V4.44h8.55Z"/>
    <path d="M203.48,4.44v8.11h-14.58v4.34h10.94v7.67h-10.94v4.46h14.58v8.11h-23.13V4.44h23.13Z"/>
    <path d="M211.35,21.04c0-9.74,7.04-17.04,16.28-17.04,3.39,0,6.48.82,8.99,2.33l-4.46,7.17c-1.19-.69-2.58-1.07-4.09-1.07-4.84,0-7.92,3.77-7.92,8.55s3.14,8.17,7.8,8.17c1.7,0,3.39-.57,4.78-1.51l4.46,7.04c-2.7,1.82-5.97,2.89-9.49,2.89-9.74,0-16.35-6.85-16.35-16.53Z"/>
    <path d="M266,4.44v8.17h-7.29v24.52h-8.55V12.61h-7.29V4.44h23.14Z"/>
  </g>
</svg>