<?xml version="1.0" encoding="UTF-8"?>
<svg id="_レイヤー_1" data-name="レイヤー 1" xmlns="http://www.w3.org/2000/svg" viewBox="0 0 256 42">
  <defs>
    <style>
      .cls-1 {
        fill: #ffe300;
      }
    </style>
  </defs>
  <polygon class="cls-1" points="231.35 42 247.85 18.35 245.2 17.74 256 1.1 238.37 0 230.8 17.28 236.03 18.46 229 41.53 231.35 42"/>
  <polygon class="cls-1" points="24.65 42 8.15 18.35 10.8 17.74 0 1.1 17.63 0 25.2 17.28 19.97 18.46 27 41.53 24.65 42"/>
  <g>
    <path class="cls-1" d="M59.47,20.19v16.63h-8.47V4.44h8.41l8.47,13.89,8.47-13.89h8.41v32.38h-8.47v-16.56l-7.22,11.83h-2.37l-7.22-11.89Z"/>
    <path class="cls-1" d="M123.19,20.19c0,10.34-6.04,17.06-15.38,17.06s-15.26-6.41-15.26-16.31,6.1-16.94,15.57-16.94,15.07,6.35,15.07,16.19ZM114.47,20.56c0-5.11-2.49-8.34-6.48-8.34s-6.73,3.3-6.73,8.53,2.55,8.28,6.66,8.28,6.54-3.24,6.54-8.47Z"/>
    <path class="cls-1" d="M138.27,4.44l6.04,22.54,5.98-22.54h8.84l-9.47,32.38h-10.77l-9.47-32.38h8.84Z"/>
    <path class="cls-1" d="M174.03,4.44v32.38h-8.47V4.44h8.47Z"/>
    <path class="cls-1" d="M205,4.44v8.03h-14.45v4.3h10.84v7.6h-10.84v4.42h14.45v8.03h-22.91V4.44h22.91Z"/>
  </g>
</svg>