<?xml version="1.0" encoding="UTF-8"?>
<svg id="_レイヤー_1" data-name="レイヤー 1" xmlns="http://www.w3.org/2000/svg" viewBox="0 0 180 40">
  <defs>
    <style>
      .cls-1 {
        fill: black;
        stroke: url(#cyberGradient);
        stroke-width: 1.5;
        stroke-linecap: round;
        stroke-linejoin: round;
        stroke-dasharray: 3 2;
        paint-order: stroke fill;
      }
      .glow-stroke path,
      .glow-stroke polygon {
        fill: none;
        stroke: url(#cyberGradient);
        stroke-width: 4;
        stroke-linecap: round;
        stroke-linejoin: round;
        stroke-dasharray: 3 2;
      }
    </style>
    <linearGradient id="cyberGradient" x1="100%" y1="0%" x2="0%" y2="0%">
      <stop offset="0%" stop-color="#00E5FF"/>
      <stop offset="100%" stop-color="#FF2442"/>
    </linearGradient>
    <filter id="neonGlow" x="-80%" y="-80%" width="260%" height="260%">
      <feGaussianBlur in="SourceGraphic" stdDeviation="3" result="BLUR"/>
      <feMerge>
        <feMergeNode in="BLUR"/>
      </feMerge>
    </filter>
  </defs>
  <g class="glow-stroke" filter="url(#neonGlow)">
    <path d="M52.84,21.01l-9.83-16.27h6.32l6.36,11.29,6.48-11.29h5.7l-9.64,16.27v10.64h-5.4v-10.64Z"/>
    <path d="M84.56,31.65h-4.89v-2.7h-.08c-1.58,1.93-3.82,3.16-6.51,3.16-4.7,0-6.74-3.31-6.74-7.79v-12.53h5.16v10.6c0,2.43.04,5.7,3.35,5.7,3.74,0,4.55-4.05,4.55-6.59v-9.71h5.17v19.85Z"/>
    <path d="M87.56,11.8h4.93v2.81h.08c1.16-1.93,3.12-3.28,6.17-3.28,6.09,0,8.33,4.86,8.33,10.33s-2.24,10.45-8.44,10.45c-2.2,0-4.01-.54-5.82-2.74h-.08v10.37h-5.16V11.8ZM92.76,21.67c0,2.81,1.12,6.44,4.55,6.44s4.36-3.7,4.36-6.44-.93-6.32-4.28-6.32-4.63,3.55-4.63,6.32Z"/>
    <path d="M108.92,11.8h5.17v19.85h-5.17V11.8Z"/>
    <path d="M117.39,15.58v-7.26l5.17-2.14v5.63h4.59v3.78h-4.59v9.25c0,1.7.46,3.28,2.43,3.28.93,0,1.81-.19,2.35-.54l.15,4.09c-1.08.31-2.27.46-3.82.46-4.05,0-6.28-2.51-6.28-6.44v-10.1Z"/>
    <path d="M145.28,30.53c-1.89,1.04-4.05,1.58-6.82,1.58-6.55,0-10.37-3.78-10.37-10.29,0-5.74,3.04-10.48,9.21-10.48,7.36,0,9.44,5.05,9.44,11.99h-13.72c.23,3.2,2.47,5.01,5.66,5.01,2.51,0,4.66-.92,6.59-2v4.2ZM141.82,19.78c-.15-2.51-1.31-4.66-4.2-4.66s-4.36,2-4.59,4.66h8.79Z"/>
    <path d="M148.48,11.8h4.59v4.51h.08c.23-1.85,2.35-4.97,5.43-4.97.5,0,1.04,0,1.58.15v5.2c-.46-.27-1.39-.42-2.31-.42-4.2,0-4.2,5.24-4.2,8.09v7.28h-5.16V11.8Z"/>
    <path d="M180,31.65h-4.9v-2.7h-.08c-1.58,1.93-3.82,3.16-6.51,3.16-4.7,0-6.75-3.31-6.75-7.79v-12.53h5.16v10.6c0,2.43.04,5.7,3.35,5.7,3.74,0,4.55-4.05,4.55-6.59v-9.71h5.17v19.85Z"/>
    <path d="M22.47,26.85c-1.15-.8-2.54-1.27-4.05-1.27s-2.9.47-4.05,1.27c-1.84,1.28-3.04,3.41-3.04,5.82,0,3.91,3.17,7.08,7.09,7.08s7.09-3.17,7.09-7.08c0-2.41-1.2-4.54-3.04-5.82Z"/>
    <polygon points="18.43 23.19 0 4.76 4.76 0 18.43 13.66 32.09 0 36.85 4.76 18.43 23.19"/>
  </g>
  <g>
    <path class="cls-1" d="M52.84,21.01l-9.83-16.27h6.32l6.36,11.29,6.48-11.29h5.7l-9.64,16.27v10.64h-5.4v-10.64Z"/>
    <path class="cls-1" d="M84.56,31.65h-4.89v-2.7h-.08c-1.58,1.93-3.82,3.16-6.51,3.16-4.7,0-6.74-3.31-6.74-7.79v-12.53h5.16v10.6c0,2.43.04,5.7,3.35,5.7,3.74,0,4.55-4.05,4.55-6.59v-9.71h5.17v19.85Z"/>
    <path class="cls-1" d="M87.56,11.8h4.93v2.81h.08c1.16-1.93,3.12-3.28,6.17-3.28,6.09,0,8.33,4.86,8.33,10.33s-2.24,10.45-8.44,10.45c-2.2,0-4.01-.54-5.82-2.74h-.08v10.37h-5.16V11.8ZM92.76,21.67c0,2.81,1.12,6.44,4.55,6.44s4.36-3.7,4.36-6.44-.93-6.32-4.28-6.32-4.63,3.55-4.63,6.32Z"/>
    <path class="cls-1" d="M108.92,11.8h5.17v19.85h-5.17V11.8Z"/>
    <path class="cls-1" d="M117.39,15.58v-7.26l5.17-2.14v5.63h4.59v3.78h-4.59v9.25c0,1.7.46,3.28,2.43,3.28.93,0,1.81-.19,2.35-.54l.15,4.09c-1.08.31-2.27.46-3.82.46-4.05,0-6.28-2.51-6.28-6.44v-10.1Z"/>
    <path class="cls-1" d="M145.28,30.53c-1.89,1.04-4.05,1.58-6.82,1.58-6.55,0-10.37-3.78-10.37-10.29,0-5.74,3.04-10.48,9.21-10.48,7.36,0,9.44,5.05,9.44,11.99h-13.72c.23,3.2,2.47,5.01,5.66,5.01,2.51,0,4.66-.92,6.59-2v4.2ZM141.82,19.78c-.15-2.51-1.31-4.66-4.2-4.66s-4.36,2-4.59,4.66h8.79Z"/>
    <path class="cls-1" d="M148.48,11.8h4.59v4.51h.08c.23-1.85,2.35-4.97,5.43-4.97.5,0,1.04,0,1.58.15v5.2c-.46-.27-1.39-.42-2.31-.42-4.2,0-4.2,5.24-4.2,8.09v7.28h-5.16V11.8Z"/>
    <path class="cls-1" d="M180,31.65h-4.9v-2.7h-.08c-1.58,1.93-3.82,3.16-6.51,3.16-4.7,0-6.75-3.31-6.75-7.79v-12.53h5.16v10.6c0,2.43.04,5.7,3.35,5.7,3.74,0,4.55-4.05,4.55-6.59v-9.71h5.17v19.85Z"/>
  </g>
  <g>
    <path class="cls-1" d="M22.47,26.85c-1.15-.8-2.54-1.27-4.05-1.27s-2.9.47-4.05,1.27c-1.84,1.28-3.04,3.41-3.04,5.82,0,3.91,3.17,7.08,7.09,7.08s7.09-3.17,7.09-7.08c0-2.41-1.2-4.54-3.04-5.82Z"/>
    <polygon class="cls-1" points="18.43 23.19 0 4.76 4.76 0 18.43 13.66 32.09 0 36.85 4.76 18.43 23.19"/>
  </g>
</svg>